<svg xmlns="http://www.w3.org/2000/svg" xmlns:xlink="http://www.w3.org/1999/xlink" width="800" height="164" viewBox="0 -5.5 800 164">
  <defs>
    <style>
      .cls-1 {
        fill: #fff;
        fill-rule: evenodd;
      }
    </style>
    <clipPath id="clip-path">
      <rect width="800" height="153"/>
    </clipPath>
  </defs>
  <g clip-path="url(#clip-path)">
    <path id="Forma_2" data-name="Forma 2" class="cls-1" d="M153.016,77.463a76.8,76.8,0,1,1,0-.854v0.854ZM40.159,72.22a10.058,10.058,0,0,1-2.9-.211c-4.175-2-3.784.427-3.177,3.135A19.032,19.032,0,0,0,46.191,88.709c-1.747,1.428-4.676-.712-5.246,1.639s1.5,3.815,2.819,5.458a20.563,20.563,0,0,0,12.875,6.771,41.541,41.541,0,0,1-25,7.666c0.428,1.5,1.462,1.713,2.3,2.144a55.476,55.476,0,0,0,28.21,5.83,52.161,52.161,0,0,0,50.29-51.593,5.664,5.664,0,0,1,2.106-4.742,19.585,19.585,0,0,0,6.322-7.133c-2.758-.5-4.86,1.643-7.678,1.143a18.306,18.306,0,0,0,5.821-9.181l-3.573,1.5a11.733,11.733,0,0,1-12.788-.5A18.385,18.385,0,0,0,74.6,63.719c0,3.567-1.072,4.031-4.106,3.567A54.675,54.675,0,0,1,39.276,51.632c-0.919-.918-1.6-2.888-3.219-2.25s-1.5,2.3-1.839,3.567a20.175,20.175,0,0,0,5.647,19.363ZM224.553,54.86a25.146,25.146,0,0,1,8.794,1.563,22.38,22.38,0,0,1,7.48,4.562,21.557,21.557,0,0,1,5.165,7.436A25.727,25.727,0,0,1,247.9,78.669q0,0.876-.094,2.343A24.546,24.546,0,0,1,247.4,84.1a21,21,0,0,1-.939,3.313,11.611,11.611,0,0,1-1.689,3.062,7.8,7.8,0,0,1-6.51,3.063,7.141,7.141,0,0,1-2.786-.469,4.808,4.808,0,0,1-1.753-1.219,4.936,4.936,0,0,1-.97-1.656,9.458,9.458,0,0,1-.438-1.781,14.578,14.578,0,0,1-4.694,3.093,15.206,15.206,0,0,1-5.947,1.155q-4.7,0-7.137-2.437a8.53,8.53,0,0,1-2.441-6.312,8.358,8.358,0,0,1,1.033-4.311,8.274,8.274,0,0,1,2.692-2.812,11.621,11.621,0,0,1,3.755-1.532,19.36,19.36,0,0,1,4.227-.468,17.5,17.5,0,0,1,4.318.468,16.97,16.97,0,0,1,2.753.907,14.609,14.609,0,0,0-.313-3.125,5.75,5.75,0,0,0-1.126-2.437,5.392,5.392,0,0,0-2.192-1.563,9.347,9.347,0,0,0-3.5-.562,14.074,14.074,0,0,0-4.7.75,11.717,11.717,0,0,0-3.63,2L213.786,66.8a19.185,19.185,0,0,1,10.767-3.123,13.381,13.381,0,0,1,6.353,1.248,8.457,8.457,0,0,1,3.38,3.156,10.707,10.707,0,0,1,1.347,4.217,41.511,41.511,0,0,1,.249,4.437v6c0,0.918.033,1.8,0.094,2.657a9.623,9.623,0,0,0,.408,2.249,3.594,3.594,0,0,0,.939,1.563,2.434,2.434,0,0,0,1.751.593,3.355,3.355,0,0,0,2.724-1.249,9.358,9.358,0,0,0,1.626-3.032,16.75,16.75,0,0,0,.784-3.718q0.188-1.935.188-3.249a21.832,21.832,0,0,0-1.471-8.093,19.471,19.471,0,0,0-4.1-6.436,18.579,18.579,0,0,0-6.323-4.248,22.683,22.683,0,0,0-16.306-.033,19.1,19.1,0,0,0-6.322,4.156,18.622,18.622,0,0,0-4.131,6.312,21.12,21.12,0,0,0-1.471,7.966,22.046,22.046,0,0,0,1.377,7.844,19.057,19.057,0,0,0,3.913,6.373,18.618,18.618,0,0,0,6.1,4.313,19.3,19.3,0,0,0,7.951,1.593,18.256,18.256,0,0,0,5.193-.656,37.931,37.931,0,0,0,4.57-1.719l1,3.249A25.831,25.831,0,0,1,229,101.039a24.8,24.8,0,0,1-5.508.626,23.138,23.138,0,0,1-8.827-1.687,21.792,21.792,0,0,1-7.228-4.78,22.419,22.419,0,0,1-4.883-7.436,25.051,25.051,0,0,1-1.784-9.594,24.024,24.024,0,0,1,1.941-9.9,21.547,21.547,0,0,1,5.226-7.312,22.832,22.832,0,0,1,7.606-4.529A26.292,26.292,0,0,1,224.553,54.86Zm3.068,32.246a5.726,5.726,0,0,0,2.441-2,4.819,4.819,0,0,0,.75-2.624V80.105q-0.877-.311-2.755-0.811a16.547,16.547,0,0,0-4.254-.5,9.269,9.269,0,0,0-4.821,1.124A4.084,4.084,0,0,0,217.1,83.73a4.388,4.388,0,0,0,1.345,3.376,5.264,5.264,0,0,0,3.725,1.249,13.708,13.708,0,0,0,2.755-.312A10.351,10.351,0,0,0,227.621,87.106Zm36.677-23V92.542h-8.637V48.173h6.7l23.159,29.12V48.237h8.639v44.3h-7.01Zm53.081,29.06a18.222,18.222,0,0,1-7.135-1.345,16.064,16.064,0,0,1-8.92-9.029,17.212,17.212,0,0,1-1.22-6.436,18.191,18.191,0,0,1,1.189-6.593,16.015,16.015,0,0,1,3.443-5.436,16.415,16.415,0,0,1,5.475-3.718,18.253,18.253,0,0,1,7.231-1.375,17.8,17.8,0,0,1,7.168,1.375,16.491,16.491,0,0,1,5.383,3.686,15.733,15.733,0,0,1,3.38,5.375,17.924,17.924,0,0,1,1.157,6.375q0,0.811-.031,1.561a6.468,6.468,0,0,1-.157,1.251H308.991a9.754,9.754,0,0,0,.939,3.437,8.438,8.438,0,0,0,4.633,4.187,8.848,8.848,0,0,0,3.13.563,9.69,9.69,0,0,0,4.724-1.218,6.455,6.455,0,0,0,3.037-3.219l7.2,2a14.607,14.607,0,0,1-5.789,6.155A17.973,17.973,0,0,1,317.379,93.167Zm8.514-19.748a8.7,8.7,0,0,0-2.724-5.9,8.791,8.791,0,0,0-9.012-1.626,8.239,8.239,0,0,0-2.6,1.656,8.533,8.533,0,0,0-1.847,2.563,8.983,8.983,0,0,0-.845,3.311h17.026ZM343.669,59.8l7.073,10.248,0.5,1.124,0.626-1.124,7.01-10.248h8.639L355.811,76.232l11.894,16.309h-8.639l-7.261-10.187-0.563-1.061-0.5,1.061-7.2,10.187h-8.637l11.831-16.309L335.093,59.8h8.576Zm37.493,4.311V92.542h-8.637V48.173h6.7l23.159,29.12V48.237h8.639v44.3H404.01Zm53.081,29.06a18.217,18.217,0,0,1-7.134-1.345,16.062,16.062,0,0,1-8.921-9.029,17.212,17.212,0,0,1-1.22-6.436,18.191,18.191,0,0,1,1.189-6.593,16.015,16.015,0,0,1,3.443-5.436,16.429,16.429,0,0,1,5.476-3.718,18.244,18.244,0,0,1,7.23-1.375,17.8,17.8,0,0,1,7.168,1.375,16.491,16.491,0,0,1,5.383,3.686,15.733,15.733,0,0,1,3.38,5.375,17.9,17.9,0,0,1,1.157,6.375q0,0.811-.031,1.561a6.39,6.39,0,0,1-.157,1.251H425.855a9.754,9.754,0,0,0,.939,3.437,8.438,8.438,0,0,0,4.633,4.187,8.848,8.848,0,0,0,3.13.563,9.7,9.7,0,0,0,4.725-1.218,6.457,6.457,0,0,0,3.036-3.219l7.2,2a14.607,14.607,0,0,1-5.789,6.155A17.973,17.973,0,0,1,434.243,93.167Zm8.514-19.748a8.7,8.7,0,0,0-2.724-5.9,8.791,8.791,0,0,0-9.012-1.626,8.239,8.239,0,0,0-2.6,1.656,8.55,8.55,0,0,0-1.847,2.563,8.983,8.983,0,0,0-.845,3.311h17.026ZM485.7,92.542L479.375,72.8l-6.259,19.746H464.1L452.774,59.8h8.7l7.513,22.745L475.5,59.8h7.885l6.511,22.745L497.4,59.8h8.575l-11.2,32.745H485.7Zm36.681,0.626a25.449,25.449,0,0,1-8.076-1.312,19.7,19.7,0,0,1-6.758-3.751l3.128-5.248a26.932,26.932,0,0,0,5.853,3.217,15.693,15.693,0,0,0,5.665,1.094,7.167,7.167,0,0,0,3.943-.937,3.017,3.017,0,0,0,1.441-2.687,2.682,2.682,0,0,0-1.69-2.561,36.451,36.451,0,0,0-5.508-1.874q-3.193-.876-5.447-1.689a13.974,13.974,0,0,1-3.631-1.842,6.3,6.3,0,0,1-2-2.376,7.529,7.529,0,0,1-.627-3.219,10.189,10.189,0,0,1,.969-4.5,9.814,9.814,0,0,1,2.725-3.407,12.61,12.61,0,0,1,4.1-2.156,16.692,16.692,0,0,1,5.1-.749,21.988,21.988,0,0,1,6.918,1.063,16.846,16.846,0,0,1,5.914,3.438l-3.379,5.061a19.733,19.733,0,0,0-4.851-2.751,13.323,13.323,0,0,0-4.663-.874,6.784,6.784,0,0,0-3.57.874A3.044,3.044,0,0,0,516.5,68.8a2.7,2.7,0,0,0,.344,1.436,3.023,3.023,0,0,0,1.094,1,10.691,10.691,0,0,0,1.974.844q1.218,0.405,3.034.843,3.381,0.876,5.79,1.75a15.842,15.842,0,0,1,3.945,2,7.13,7.13,0,0,1,2.253,2.593,7.986,7.986,0,0,1,.72,3.531,9.1,9.1,0,0,1-3.569,7.593Q528.516,93.169,522.379,93.167Zm38.5-.314a20.214,20.214,0,0,1-8.856-1.905,21.734,21.734,0,0,1-6.823-5.063,23.451,23.451,0,0,1-5.977-15.529,22.246,22.246,0,0,1,1.659-8.5,23.439,23.439,0,0,1,4.569-7.186,21.792,21.792,0,0,1,6.916-4.969,20.588,20.588,0,0,1,8.7-1.842,19.546,19.546,0,0,1,8.8,1.968,21.974,21.974,0,0,1,6.792,5.155,23.734,23.734,0,0,1,4.381,7.249,22.809,22.809,0,0,1,1.566,8.249,22.405,22.405,0,0,1-1.629,8.468,22.975,22.975,0,0,1-4.506,7.123,21.674,21.674,0,0,1-6.885,4.939A20.565,20.565,0,0,1,560.874,92.854Zm-12.893-22.5a17.787,17.787,0,0,0,.875,5.562,14.813,14.813,0,0,0,2.537,4.749,12.574,12.574,0,0,0,4.067,3.313,12.633,12.633,0,0,0,11.017-.031,12.631,12.631,0,0,0,4.069-3.407,15.186,15.186,0,0,0,2.5-4.78,17.742,17.742,0,0,0,.845-5.407,17.259,17.259,0,0,0-.908-5.56,15.342,15.342,0,0,0-2.565-4.749,12.265,12.265,0,0,0-4.07-3.282,12.694,12.694,0,0,0-10.986.063A12.345,12.345,0,0,0,551.3,60.2a15.124,15.124,0,0,0-2.473,4.749A17.724,17.724,0,0,0,547.981,70.356Zm42.438-2.437H586.1V61.547h4.318v-2a14.578,14.578,0,0,1,.909-5.124,12.025,12.025,0,0,1,2.628-4.217,12.749,12.749,0,0,1,4.194-2.844,14.068,14.068,0,0,1,5.6-1.061,17.938,17.938,0,0,1,6.541,1.155,29.218,29.218,0,0,1,5.6,2.9l-3.319,6.251A12.975,12.975,0,0,0,608.76,54.3a11.869,11.869,0,0,0-4.443-.876,4.921,4.921,0,0,0-4.163,1.75,6.482,6.482,0,0,0-1.345,4.062v2.313H616.4V92.542h-8.387V67.92h-9.2V92.542h-8.39V67.92Zm31.485,8.25a17.776,17.776,0,0,1,1.19-6.5,15.8,15.8,0,0,1,3.443-5.375,16.744,16.744,0,0,1,5.445-3.686,18.02,18.02,0,0,1,7.2-1.375,17.286,17.286,0,0,1,9.171,2.313,14.792,14.792,0,0,1,5.666,6.061l-8.2,2.5A7.385,7.385,0,0,0,643,67.327a7.9,7.9,0,0,0-3.879-.97,8.03,8.03,0,0,0-3.382.72,8.319,8.319,0,0,0-2.722,2A9.23,9.23,0,0,0,631.2,72.17a11.666,11.666,0,0,0-.657,4,11.133,11.133,0,0,0,.688,4,10.042,10.042,0,0,0,1.847,3.125,8.08,8.08,0,0,0,2.722,2.029,7.849,7.849,0,0,0,3.319.72,8.049,8.049,0,0,0,4.161-1.125,6.324,6.324,0,0,0,2.661-2.75l8.2,2.5a13.768,13.768,0,0,1-5.571,6.124,17.517,17.517,0,0,1-9.327,2.376,18.053,18.053,0,0,1-7.2-1.375,16.279,16.279,0,0,1-8.92-9.156A17.451,17.451,0,0,1,621.9,76.169Zm37.369-20.934V46.922h8.388v8.313h-8.388Zm0,37.307V59.8h8.388V92.542h-8.388Zm24.912,0.626a12.452,12.452,0,0,1-4.444-.782,10.676,10.676,0,0,1-3.568-2.186,10.185,10.185,0,0,1-2.347-3.28,9.938,9.938,0,0,1-.844-4.126,9.055,9.055,0,0,1,1.032-4.281,9.829,9.829,0,0,1,2.88-3.344,14.292,14.292,0,0,1,4.412-2.156,19.285,19.285,0,0,1,5.635-.78,24.277,24.277,0,0,1,4.287.375,17.487,17.487,0,0,1,3.725,1.062V71.8a6.566,6.566,0,0,0-1.847-5,7.691,7.691,0,0,0-5.478-1.75,14.562,14.562,0,0,0-5.132.937,23.9,23.9,0,0,0-5.133,2.751L674.8,63.421a24.242,24.242,0,0,1,13.647-4.187q7.074,0,10.985,3.468t3.913,10.03V82.919a2.933,2.933,0,0,0,.469,1.874,2.044,2.044,0,0,0,1.533.623v7.125a18.664,18.664,0,0,1-3.692.438,5.6,5.6,0,0,1-3.664-1.064,4.569,4.569,0,0,1-1.595-2.812L696.2,87.294a14.51,14.51,0,0,1-5.32,4.374A15.322,15.322,0,0,1,684.185,93.167Zm2.38-6.124a10.968,10.968,0,0,0,4.037-.75,7.33,7.33,0,0,0,2.973-2,3.011,3.011,0,0,0,1.378-2.373V78.168a20.582,20.582,0,0,0-3.255-.9,17.6,17.6,0,0,0-3.382-.345A8.974,8.974,0,0,0,683,78.388a4.41,4.41,0,0,0-2.065,3.718,4.466,4.466,0,0,0,1.628,3.531A5.909,5.909,0,0,0,686.565,87.043ZM711.1,46.922h8.387V82.043a4.119,4.119,0,0,0,.878,2.812,3.147,3.147,0,0,0,2.5,1,6.237,6.237,0,0,0,1.657-.251,11.331,11.331,0,0,0,1.722-.623l1.127,6.373a16.2,16.2,0,0,1-3.943,1.251,21.708,21.708,0,0,1-4.069.436,8.4,8.4,0,0,1-6.1-2.093,7.923,7.923,0,0,1-2.161-5.967V46.922Z"/>
  </g>
</svg>
