<svg xmlns="http://www.w3.org/2000/svg" xmlns:xlink="http://www.w3.org/1999/xlink" width="800" height="164" viewBox="0 -5.5 800 164">
  <defs>
    <style>
      .cls-1 {
        fill: #fff;
        fill-rule: evenodd;
      }
    </style>
    <clipPath id="clip-path">
      <rect width="800" height="153"/>
    </clipPath>
  </defs>
  <g clip-path="url(#clip-path)">
    <path id="Forma_5" data-name="Forma 5" class="cls-1" d="M77.32,0.948A76.008,76.008,0,1,0,153.418,77h0v-0.07A76.029,76.029,0,0,0,77.338.948H77.32Zm43.153,44.821L81.76,83.262a6.839,6.839,0,0,1-9.56,0L33.517,45.769h86.956ZM27.724,107.555V45.831a0.337,0.337,0,0,1,.249-0.407h0a0.343,0.343,0,0,1,.36.136L60.5,77.153a0.925,0.925,0,0,1,.056,1.308l-0.008.008h0L60.52,78.5,28.431,107.835a0.352,0.352,0,0,1-.651-0.271h0Zm93.377,1.092H32.9a0.2,0.2,0,0,1-.067-0.271h0a0.147,0.147,0,0,1,.057-0.057L63.619,81.7l0.242,0.2L71.3,88.721a8.315,8.315,0,0,0,5.714,2.194,8.676,8.676,0,0,0,5.974-2.321l7.31-6.815,0.238-.206L121.264,108.2a0.229,0.229,0,0,1,.156.283,0.019,0.019,0,0,0,0,.007,0.237,0.237,0,0,1-.29.153Zm5.358-1.092a0.341,0.341,0,0,1-.3.368h0a0.379,0.379,0,0,1-.272-0.1L93.725,78.483a0.947,0.947,0,0,1,0-1.316l32.159-31.6a0.347,0.347,0,0,1,.479-0.087h0a0.332,0.332,0,0,1,.136.355Zm71.269-52.218V47.079h8.333v8.258h-8.333Zm0,37.063V59.869h8.333V92.4h-8.333Zm46.143,0h-8.333V74.147q0-3.91-1.369-5.71a4.49,4.49,0,0,0-3.793-1.8,7.186,7.186,0,0,0-2.549.5,9.477,9.477,0,0,0-2.457,1.4,11.391,11.391,0,0,0-2.083,2.141,8.462,8.462,0,0,0-1.368,2.731v19h-8.333V59.869h7.524v6.022a12.311,12.311,0,0,1,5.225-4.842,16.781,16.781,0,0,1,7.711-1.739,9.841,9.841,0,0,1,4.975,1.117,8.075,8.075,0,0,1,2.985,2.919,12.213,12.213,0,0,1,1.462,4.1,26.853,26.853,0,0,1,.4,4.655V92.4Zm8.956,0V67.939h-4.29V61.608h4.29V59.62q0-6.083,2.924-9.623a9.774,9.774,0,0,1,7.96-3.538,18.532,18.532,0,0,1,8.023,1.925l-1.678,6.268a10.748,10.748,0,0,0-2.209-.838,9.179,9.179,0,0,0-2.331-.34q-4.356,0-4.354,5.835v2.3h7.961v6.331h-7.961V92.4h-8.335Zm34.455,0.622a17.947,17.947,0,0,1-7.154-1.366,16.037,16.037,0,0,1-5.379-3.694,16.264,16.264,0,0,1-3.388-5.37,18.055,18.055,0,0,1,0-12.851,16.242,16.242,0,0,1,3.388-5.37,16.038,16.038,0,0,1,5.379-3.694,17.909,17.909,0,0,1,7.154-1.366,17.68,17.68,0,0,1,7.12,1.366,16.045,16.045,0,0,1,8.737,9.064,18.055,18.055,0,0,1,0,12.851,16.546,16.546,0,0,1-3.357,5.37,15.733,15.733,0,0,1-5.349,3.694A17.939,17.939,0,0,1,287.282,93.022ZM278.762,76.2a11.286,11.286,0,0,0,.653,3.941,9.6,9.6,0,0,0,1.8,3.075,8.043,8.043,0,0,0,2.705,2.016,8.249,8.249,0,0,0,6.718,0,8.069,8.069,0,0,0,2.7-2.016,9.561,9.561,0,0,0,1.805-3.1,11.61,11.61,0,0,0,.653-3.973,11.414,11.414,0,0,0-.653-3.911,9.538,9.538,0,0,0-1.805-3.105,8.1,8.1,0,0,0-2.7-2.018,7.978,7.978,0,0,0-3.358-.715,7.686,7.686,0,0,0-3.36.745,8.447,8.447,0,0,0-2.705,2.051,9.507,9.507,0,0,0-1.8,3.1A11.386,11.386,0,0,0,278.762,76.2ZM340.2,92.4H331.87V74.147q0-3.91-1.369-5.71a4.49,4.49,0,0,0-3.793-1.8,7.186,7.186,0,0,0-2.549.5,9.477,9.477,0,0,0-2.457,1.4,11.356,11.356,0,0,0-2.082,2.141,8.444,8.444,0,0,0-1.369,2.731v19h-8.333V59.869h7.524v6.022a12.317,12.317,0,0,1,5.225-4.842,16.781,16.781,0,0,1,7.711-1.739,9.847,9.847,0,0,1,4.976,1.117,8.079,8.079,0,0,1,2.984,2.919,12.213,12.213,0,0,1,1.462,4.1,26.853,26.853,0,0,1,.4,4.655V92.4Zm22.388,0.622a18.1,18.1,0,0,1-7.088-1.336,15.962,15.962,0,0,1-8.863-8.971,17.094,17.094,0,0,1-1.213-6.394,18.048,18.048,0,0,1,1.183-6.55,15.885,15.885,0,0,1,3.42-5.4,16.31,16.31,0,0,1,5.44-3.694,18.13,18.13,0,0,1,7.184-1.366,17.691,17.691,0,0,1,7.121,1.366,16.375,16.375,0,0,1,5.348,3.662,15.621,15.621,0,0,1,3.358,5.34,17.784,17.784,0,0,1,1.149,6.333q0,0.806-.03,1.55a6.471,6.471,0,0,1-.156,1.243H354.258a9.723,9.723,0,0,0,.933,3.415,8.389,8.389,0,0,0,4.6,4.16,8.8,8.8,0,0,0,3.11.559,9.635,9.635,0,0,0,4.694-1.21,6.417,6.417,0,0,0,3.017-3.2l7.151,1.987a14.511,14.511,0,0,1-5.752,6.115A17.853,17.853,0,0,1,362.592,93.022Zm8.459-19.62a8.65,8.65,0,0,0-2.707-5.866,8.735,8.735,0,0,0-8.954-1.616,8.175,8.175,0,0,0-2.58,1.646,8.484,8.484,0,0,0-1.836,2.547,8.952,8.952,0,0,0-.839,3.289h16.916Zm17.662-13.533,7.028,10.181,0.5,1.117,0.623-1.117,6.965-10.181h8.583L400.777,76.2l11.817,16.2h-8.583L396.8,82.28l-0.56-1.055-0.5,1.055L388.588,92.4h-8.581l11.754-16.2L380.193,59.869h8.52Zm50.313-4.9a24.994,24.994,0,0,1,8.737,1.553,22.22,22.22,0,0,1,7.43,4.532,21.393,21.393,0,0,1,5.132,7.388,25.554,25.554,0,0,1,1.9,10.181q0,0.871-.094,2.328a24.388,24.388,0,0,1-.4,3.073,20.82,20.82,0,0,1-.932,3.291,11.569,11.569,0,0,1-1.679,3.042,7.752,7.752,0,0,1-6.468,3.043,7.091,7.091,0,0,1-2.768-.466,4.786,4.786,0,0,1-1.742-1.211,4.894,4.894,0,0,1-.963-1.646,9.492,9.492,0,0,1-.436-1.769,14.463,14.463,0,0,1-4.663,3.073,15.106,15.106,0,0,1-5.908,1.148q-4.667,0-7.091-2.421a8.476,8.476,0,0,1-2.425-6.271,8.309,8.309,0,0,1,1.026-4.283,8.222,8.222,0,0,1,2.674-2.793,11.549,11.549,0,0,1,3.731-1.522,19.233,19.233,0,0,1,4.2-.465,17.394,17.394,0,0,1,4.291.465,16.825,16.825,0,0,1,2.735.9,14.556,14.556,0,0,0-.31-3.1,5.734,5.734,0,0,0-1.119-2.421,5.361,5.361,0,0,0-2.178-1.553,9.29,9.29,0,0,0-3.482-.559,13.982,13.982,0,0,0-4.665.745,11.649,11.649,0,0,0-3.607,1.988l-1.616-4.408a19.063,19.063,0,0,1,10.7-3.1,13.3,13.3,0,0,1,6.312,1.24A8.4,8.4,0,0,1,448.7,68.1a10.642,10.642,0,0,1,1.338,4.19,41.215,41.215,0,0,1,.247,4.408v5.959c0,0.912.033,1.793,0.094,2.639a9.51,9.51,0,0,0,.406,2.235,3.576,3.576,0,0,0,.932,1.552,2.42,2.42,0,0,0,1.74.589,3.335,3.335,0,0,0,2.707-1.241,9.319,9.319,0,0,0,1.616-3.012,16.767,16.767,0,0,0,.778-3.694q0.186-1.922.186-3.228a21.682,21.682,0,0,0-1.461-8.04,19.329,19.329,0,0,0-4.074-6.394,18.439,18.439,0,0,0-6.281-4.22,22.537,22.537,0,0,0-16.2-.033,18.964,18.964,0,0,0-6.282,4.13,18.512,18.512,0,0,0-4.1,6.271,20.975,20.975,0,0,0-1.462,7.914,21.9,21.9,0,0,0,1.369,7.793,18.932,18.932,0,0,0,3.887,6.332,18.515,18.515,0,0,0,6.062,4.285,19.181,19.181,0,0,0,7.9,1.583,18.142,18.142,0,0,0,5.16-.652,37.739,37.739,0,0,0,4.54-1.708l1,3.228a25.636,25.636,0,0,1-5.349,1.862,24.647,24.647,0,0,1-5.472.622,22.983,22.983,0,0,1-8.769-1.676,21.639,21.639,0,0,1-7.182-4.749,22.28,22.28,0,0,1-4.852-7.388,24.891,24.891,0,0,1-1.772-9.531,23.876,23.876,0,0,1,1.928-9.839,21.41,21.41,0,0,1,5.193-7.265,22.681,22.681,0,0,1,7.557-4.5A26.119,26.119,0,0,1,439.026,54.965ZM442.073,87a5.688,5.688,0,0,0,2.425-1.988,4.777,4.777,0,0,0,.746-2.607v-2.36q-0.872-.309-2.737-0.805a16.449,16.449,0,0,0-4.228-.5,9.208,9.208,0,0,0-4.789,1.117,4.056,4.056,0,0,0-1.865,3.787A4.357,4.357,0,0,0,432.961,87a5.227,5.227,0,0,0,3.7,1.24,13.608,13.608,0,0,0,2.737-.31A10.272,10.272,0,0,0,442.073,87Zm57.335,5.4h-8.333V74.147q0-3.91-1.369-5.71a4.489,4.489,0,0,0-3.793-1.8,7.186,7.186,0,0,0-2.549.5,9.477,9.477,0,0,0-2.457,1.4,11.356,11.356,0,0,0-2.082,2.141,8.464,8.464,0,0,0-1.369,2.731v19h-8.333V59.869h7.524v6.022a12.317,12.317,0,0,1,5.225-4.842,16.781,16.781,0,0,1,7.711-1.739,9.845,9.845,0,0,1,4.976,1.117,8.072,8.072,0,0,1,2.984,2.919,12.213,12.213,0,0,1,1.462,4.1,26.853,26.853,0,0,1,.4,4.655V92.4ZM521.8,93.022a18.1,18.1,0,0,1-7.088-1.336,15.962,15.962,0,0,1-8.863-8.971,17.093,17.093,0,0,1-1.212-6.394,18.048,18.048,0,0,1,1.182-6.55,15.9,15.9,0,0,1,3.42-5.4,16.32,16.32,0,0,1,5.44-3.694,18.133,18.133,0,0,1,7.184-1.366,17.685,17.685,0,0,1,7.121,1.366,16.375,16.375,0,0,1,5.348,3.662,15.606,15.606,0,0,1,3.358,5.34,17.784,17.784,0,0,1,1.15,6.333c0,0.537-.011,1.055-0.03,1.55a6.384,6.384,0,0,1-.157,1.243H513.464a9.7,9.7,0,0,0,.932,3.415,8.389,8.389,0,0,0,4.6,4.16,8.8,8.8,0,0,0,3.111.559,9.631,9.631,0,0,0,4.693-1.21,6.417,6.417,0,0,0,3.017-3.2l7.152,1.987a14.52,14.52,0,0,1-5.753,6.115A17.853,17.853,0,0,1,521.8,93.022Zm8.459-19.62a8.646,8.646,0,0,0-2.707-5.866,8.733,8.733,0,0,0-8.953-1.616,8.179,8.179,0,0,0-2.581,1.646,8.484,8.484,0,0,0-1.836,2.547,8.952,8.952,0,0,0-.839,3.289h16.916Zm17.66-13.533,7.028,10.181,0.5,1.117,0.622-1.117,6.965-10.181h8.582L559.98,76.2,571.8,92.4h-8.583L556,82.28l-0.559-1.055-0.5,1.055L547.79,92.4h-8.58l11.754-16.2L539.4,59.869h8.519ZM606.065,92.4h-8.333V74.147q0-3.91-1.369-5.71a4.49,4.49,0,0,0-3.793-1.8,7.186,7.186,0,0,0-2.549.5,9.482,9.482,0,0,0-2.458,1.4,11.418,11.418,0,0,0-2.082,2.141,8.462,8.462,0,0,0-1.368,2.731v19h-8.334V59.869H583.3v6.022a12.319,12.319,0,0,1,5.226-4.842,16.778,16.778,0,0,1,7.711-1.739,9.841,9.841,0,0,1,4.975,1.117,8.075,8.075,0,0,1,2.985,2.919,12.213,12.213,0,0,1,1.462,4.1,26.853,26.853,0,0,1,.4,4.655V92.4Zm22.389,0.622a18.106,18.106,0,0,1-7.089-1.336,15.964,15.964,0,0,1-8.862-8.971,17.094,17.094,0,0,1-1.213-6.394,18.048,18.048,0,0,1,1.183-6.55,15.885,15.885,0,0,1,3.42-5.4,16.3,16.3,0,0,1,5.44-3.694,18.13,18.13,0,0,1,7.184-1.366,17.683,17.683,0,0,1,7.12,1.366,16.368,16.368,0,0,1,5.349,3.662,15.621,15.621,0,0,1,3.358,5.34,17.806,17.806,0,0,1,1.149,6.333q0,0.806-.03,1.55a6.471,6.471,0,0,1-.156,1.243H620.12a9.681,9.681,0,0,0,.933,3.415,8.38,8.38,0,0,0,4.6,4.16,8.791,8.791,0,0,0,3.11.559,9.635,9.635,0,0,0,4.694-1.21,6.421,6.421,0,0,0,3.017-3.2l7.151,1.987a14.517,14.517,0,0,1-5.752,6.115A17.853,17.853,0,0,1,628.454,93.022Zm8.459-19.62a8.654,8.654,0,0,0-2.707-5.866,8.735,8.735,0,0,0-8.954-1.616,8.19,8.19,0,0,0-2.581,1.646,8.5,8.5,0,0,0-1.835,2.547A8.932,8.932,0,0,0,620,73.4h16.916Zm42.662,19-6.282-19.617L667.075,92.4h-8.956L646.864,59.869h8.644l7.463,22.6,6.468-22.6h7.835l6.468,22.6,7.463-22.6h8.52L688.594,92.4h-9.019Zm36.444,0.622a25.273,25.273,0,0,1-8.023-1.3,19.578,19.578,0,0,1-6.716-3.726l3.108-5.214a26.769,26.769,0,0,0,5.815,3.2,15.6,15.6,0,0,0,5.629,1.087,7.126,7.126,0,0,0,3.918-.931,3,3,0,0,0,1.431-2.67,2.665,2.665,0,0,0-1.679-2.544,36.251,36.251,0,0,0-5.472-1.862q-3.173-.871-5.412-1.678a13.878,13.878,0,0,1-3.607-1.83,6.245,6.245,0,0,1-1.989-2.361,7.5,7.5,0,0,1-.622-3.2,10.12,10.12,0,0,1,.963-4.469,9.722,9.722,0,0,1,2.707-3.384,12.53,12.53,0,0,1,4.073-2.141,16.58,16.58,0,0,1,5.067-.745,21.845,21.845,0,0,1,6.873,1.056,16.744,16.744,0,0,1,5.876,3.415L724.6,68.747a19.6,19.6,0,0,0-4.819-2.733,13.235,13.235,0,0,0-4.633-.868,6.735,6.735,0,0,0-3.546.868,3.022,3.022,0,0,0-1.43,2.8,2.674,2.674,0,0,0,.343,1.427,2.989,2.989,0,0,0,1.087.994,10.633,10.633,0,0,0,1.96.838q1.211,0.4,3.015.838,3.359,0.871,5.752,1.739a15.731,15.731,0,0,1,3.92,1.986,7.087,7.087,0,0,1,2.238,2.577,7.932,7.932,0,0,1,.716,3.508,9.044,9.044,0,0,1-3.546,7.544Q722.115,93.024,716.019,93.022Zm18.408-.622V83.46h6.841V92.4h-6.841Zm12.127-16.265a17.656,17.656,0,0,1,1.182-6.457,15.676,15.676,0,0,1,3.421-5.34,16.633,16.633,0,0,1,5.409-3.662,17.9,17.9,0,0,1,7.151-1.366,17.173,17.173,0,0,1,9.112,2.3,14.686,14.686,0,0,1,5.629,6.022l-8.147,2.484a7.335,7.335,0,0,0-2.8-2.763,7.846,7.846,0,0,0-3.855-.964,7.976,7.976,0,0,0-3.359.715,8.26,8.26,0,0,0-2.705,1.987,9.168,9.168,0,0,0-1.8,3.073,11.593,11.593,0,0,0-.652,3.973,11.06,11.06,0,0,0,.683,3.973,9.976,9.976,0,0,0,1.835,3.1,8.023,8.023,0,0,0,2.705,2.016,7.79,7.79,0,0,0,3.3.715,8,8,0,0,0,4.135-1.117,6.29,6.29,0,0,0,2.644-2.733l8.147,2.484a13.684,13.684,0,0,1-5.536,6.084,17.4,17.4,0,0,1-9.266,2.361,17.932,17.932,0,0,1-7.151-1.366,16.17,16.17,0,0,1-8.862-9.1A17.331,17.331,0,0,1,746.554,76.135Zm37.064-29.056h8.334V81.971a4.088,4.088,0,0,0,.872,2.793,3.123,3.123,0,0,0,2.487.994,6.191,6.191,0,0,0,1.646-.249,11.252,11.252,0,0,0,1.712-.619l1.119,6.331a16.092,16.092,0,0,1-3.917,1.243,21.581,21.581,0,0,1-4.043.433,8.345,8.345,0,0,1-6.063-2.079,7.874,7.874,0,0,1-2.147-5.929V47.079Z"/>
  </g>
</svg>
