<svg xmlns="http://www.w3.org/2000/svg" xmlns:xlink="http://www.w3.org/1999/xlink" width="800" height="164" viewBox="0 -5.5 800 164">
  <defs>
    <style>
      .cls-1 {
        fill: #fff;
        fill-rule: evenodd;
      }
    </style>
    <clipPath id="clip-path">
      <rect width="800" height="153"/>
    </clipPath>
  </defs>
  <g clip-path="url(#clip-path)">
    <path id="Forma_4" data-name="Forma 4" class="cls-1" d="M80.239,152.048c-42.247-.1-76.416-34.21-76.319-76.2S38.345-.089,80.592.008,157,34.213,156.911,76.194v0.512C156.574,118.511,122.306,152.185,80.239,152.048Zm0-31.091H107.6a17.074,17.074,0,0,0,17.661-15.476,100.824,100.824,0,0,0,.308-12.042V50.156c0-12.112-7.293-19.049-19.388-19.049H53.4A17.091,17.091,0,0,0,34.959,46.679v1.808c-0.273,18.436-.308,36.907,0,55.338a17.061,17.061,0,0,0,17.115,17.008h1.092Zm0-8.907h-26.8a8.713,8.713,0,0,1-9.579-7.65,7.076,7.076,0,0,1,0-1.5V69.622c0-2.19.683-2.956,2.873-2.82,3.045,0,6.843-1.02,9.037.337s-0.278,5.137-.278,7.926A24.178,24.178,0,0,0,69.184,97.989a24.718,24.718,0,0,0,33.1-10.846A24.355,24.355,0,0,0,104.166,70.1c-0.723-2.96,0-3.4,2.736-3.4,9.822,0,9.822,0,9.822,9.595v25.4c0,7.243-3.181,10.2-10.474,10.2C97.627,112.08,88.968,112.05,80.239,112.05ZM64.522,75.923A15.863,15.863,0,1,1,80.2,91.875H79.957A15.963,15.963,0,0,1,64.522,75.923Zm42.64-19.115c-7.288,0-7.288,0-7.288-7.107,0-8.026,0-8.026,7.931-8.062,7.289,0,7.289,0,7.289,7.072C115.116,56.808,115.116,56.808,107.162,56.808Zm116.647-2.742a25.13,25.13,0,0,1,8.752,1.548,22.285,22.285,0,0,1,7.445,4.52,21.342,21.342,0,0,1,5.141,7.368,25.39,25.39,0,0,1,1.9,10.154q0,0.868-.093,2.321a24.46,24.46,0,0,1-.4,3.064,20.742,20.742,0,0,1-.935,3.282,11.482,11.482,0,0,1-1.682,3.034,7.775,7.775,0,0,1-6.479,3.034,7.136,7.136,0,0,1-2.773-.464,4.791,4.791,0,0,1-1.745-1.207,4.883,4.883,0,0,1-.965-1.641,9.365,9.365,0,0,1-.436-1.764,14.51,14.51,0,0,1-4.672,3.064,15.2,15.2,0,0,1-5.919,1.144q-4.674,0-7.1-2.414a8.433,8.433,0,0,1-2.429-6.254,7.889,7.889,0,0,1,3.707-7.057,11.6,11.6,0,0,1,3.738-1.518,19.344,19.344,0,0,1,4.206-.464,17.491,17.491,0,0,1,4.3.464,16.865,16.865,0,0,1,2.74.9,14.48,14.48,0,0,0-.31-3.1,5.691,5.691,0,0,0-1.122-2.414,5.359,5.359,0,0,0-2.181-1.548A9.347,9.347,0,0,0,223,67.563a14.069,14.069,0,0,0-4.674.743,11.691,11.691,0,0,0-3.613,1.982l-1.619-4.4A19.158,19.158,0,0,1,223.809,62.8a13.369,13.369,0,0,1,6.323,1.237,8.4,8.4,0,0,1,3.364,3.127,10.581,10.581,0,0,1,1.341,4.178,41,41,0,0,1,.247,4.4v5.943c0,0.909.033,1.788,0.093,2.632a9.561,9.561,0,0,0,.407,2.229,3.567,3.567,0,0,0,.934,1.548,2.433,2.433,0,0,0,1.743.587,3.347,3.347,0,0,0,2.712-1.238,9.27,9.27,0,0,0,1.618-3,16.572,16.572,0,0,0,.781-3.684q0.186-1.917.187-3.22a21.533,21.533,0,0,0-1.465-8.018,19.272,19.272,0,0,0-4.081-6.377,18.488,18.488,0,0,0-6.292-4.209,22.675,22.675,0,0,0-16.23-.033,19,19,0,0,0-6.293,4.118,18.431,18.431,0,0,0-4.111,6.254,20.831,20.831,0,0,0-1.465,7.892,21.749,21.749,0,0,0,1.371,7.772,18.873,18.873,0,0,0,3.894,6.314,18.542,18.542,0,0,0,6.074,4.273,19.28,19.28,0,0,0,7.913,1.579,18.254,18.254,0,0,0,5.17-.65,37.893,37.893,0,0,0,4.548-1.7l1,3.22a25.8,25.8,0,0,1-5.358,1.857,24.835,24.835,0,0,1-5.482.621,23.126,23.126,0,0,1-8.786-1.672,21.689,21.689,0,0,1-7.195-4.736,22.218,22.218,0,0,1-4.86-7.368,24.71,24.71,0,0,1-1.776-9.506,23.724,23.724,0,0,1,1.932-9.812,21.376,21.376,0,0,1,5.2-7.245,22.749,22.749,0,0,1,7.571-4.488A26.273,26.273,0,0,1,223.809,54.066Zm3.053,31.95a5.693,5.693,0,0,0,2.429-1.983,4.748,4.748,0,0,0,.747-2.6V79.079c-0.582-.205-1.494-0.473-2.742-0.8a16.542,16.542,0,0,0-4.235-.5,9.26,9.26,0,0,0-4.8,1.114A4.04,4.04,0,0,0,216.4,82.67a4.337,4.337,0,0,0,1.338,3.345,5.252,5.252,0,0,0,3.707,1.237,13.7,13.7,0,0,0,2.742-.309A10.326,10.326,0,0,0,226.862,86.016Zm26.662,12.877V91.4H276.39v7.491H253.524ZM313.9,91.4h-8.349V73.2q0-3.9-1.371-5.695a4.507,4.507,0,0,0-3.8-1.8,7.231,7.231,0,0,0-2.554.495A9.5,9.5,0,0,0,295.36,67.6a11.359,11.359,0,0,0-2.087,2.136,8.438,8.438,0,0,0-1.371,2.723V91.4h-8.348V58.957h7.538v6.006a12.318,12.318,0,0,1,5.235-4.829,16.867,16.867,0,0,1,7.724-1.734,9.9,9.9,0,0,1,4.985,1.114,8.064,8.064,0,0,1,2.99,2.911,12.163,12.163,0,0,1,1.465,4.086,26.711,26.711,0,0,1,.4,4.643V91.4Zm22.429,0.62a18.215,18.215,0,0,1-7.1-1.332,16.305,16.305,0,0,1-5.421-3.621,16.079,16.079,0,0,1-3.457-5.325,16.991,16.991,0,0,1-1.215-6.377,17.937,17.937,0,0,1,1.185-6.533,15.836,15.836,0,0,1,3.426-5.386,16.345,16.345,0,0,1,5.45-3.684,18.239,18.239,0,0,1,7.2-1.363,17.783,17.783,0,0,1,7.133,1.363,16.413,16.413,0,0,1,5.359,3.652,15.588,15.588,0,0,1,3.364,5.325,17.674,17.674,0,0,1,1.152,6.316c0,0.536-.012,1.052-0.031,1.546a6.36,6.36,0,0,1-.156,1.24H327.976a9.594,9.594,0,0,0,.934,3.405,8.377,8.377,0,0,0,4.611,4.148,8.845,8.845,0,0,0,3.116.557,9.683,9.683,0,0,0,4.7-1.207,6.419,6.419,0,0,0,3.023-3.19l7.164,1.982a14.5,14.5,0,0,1-5.763,6.1A17.948,17.948,0,0,1,336.324,92.021ZM344.8,72.454a8.607,8.607,0,0,0-2.711-5.85,8.784,8.784,0,0,0-8.971-1.611,8.214,8.214,0,0,0-2.585,1.641,8.471,8.471,0,0,0-1.839,2.54,8.91,8.91,0,0,0-.841,3.28H344.8Zm17.695-13.5,7.04,10.154,0.5,1.114,0.623-1.114,6.978-10.154h8.6L374.578,75.242,386.417,91.4h-8.6l-7.228-10.093-0.56-1.052-0.5,1.052L362.367,91.4h-8.6l11.775-16.159L353.957,58.957h8.536ZM420.745,91.4H412.4V73.2q0-3.9-1.372-5.695a4.505,4.505,0,0,0-3.8-1.8,7.231,7.231,0,0,0-2.554.495A9.5,9.5,0,0,0,402.21,67.6a11.355,11.355,0,0,0-2.086,2.136,8.418,8.418,0,0,0-1.371,2.723V91.4H390.4V58.957h7.538v6.006a12.318,12.318,0,0,1,5.235-4.829A16.867,16.867,0,0,1,410.9,58.4a9.9,9.9,0,0,1,4.985,1.114,8.072,8.072,0,0,1,2.99,2.911,12.163,12.163,0,0,1,1.465,4.086,26.711,26.711,0,0,1,.4,4.643V91.4Zm22.429,0.62a18.21,18.21,0,0,1-7.1-1.332,16.3,16.3,0,0,1-5.422-3.621,16.079,16.079,0,0,1-3.457-5.325,16.991,16.991,0,0,1-1.215-6.377,17.937,17.937,0,0,1,1.185-6.533,15.823,15.823,0,0,1,3.427-5.386,16.34,16.34,0,0,1,5.449-3.684,18.239,18.239,0,0,1,7.2-1.363,17.791,17.791,0,0,1,7.134,1.363,16.408,16.408,0,0,1,5.358,3.652,15.573,15.573,0,0,1,3.364,5.325,17.674,17.674,0,0,1,1.152,6.316q0,0.8-.031,1.546a6.439,6.439,0,0,1-.156,1.24H434.826a9.614,9.614,0,0,0,.934,3.405,8.386,8.386,0,0,0,4.611,4.148,8.845,8.845,0,0,0,3.116.557,9.683,9.683,0,0,0,4.7-1.207,6.411,6.411,0,0,0,3.023-3.19l7.164,1.982a14.5,14.5,0,0,1-5.763,6.1A17.948,17.948,0,0,1,443.174,92.021Zm8.475-19.567a8.612,8.612,0,0,0-2.712-5.85,8.782,8.782,0,0,0-8.97-1.611,8.208,8.208,0,0,0-2.586,1.641,8.486,8.486,0,0,0-1.838,2.54,8.852,8.852,0,0,0-.841,3.28h16.947ZM494.39,91.4L488.1,71.836,481.868,91.4H472.9L461.62,58.957h8.659l7.478,22.536,6.479-22.536h7.849l6.48,22.536,7.477-22.536h8.535L503.426,91.4H494.39Zm36.508,0.62a25.437,25.437,0,0,1-8.038-1.3A19.638,19.638,0,0,1,516.133,87l3.114-5.2a26.855,26.855,0,0,0,5.825,3.187,15.686,15.686,0,0,0,5.639,1.084,7.159,7.159,0,0,0,3.924-.928,2.985,2.985,0,0,0,1.435-2.663,2.658,2.658,0,0,0-1.682-2.537,36.458,36.458,0,0,0-5.483-1.857q-3.177-.868-5.421-1.674a13.935,13.935,0,0,1-3.614-1.825,6.233,6.233,0,0,1-1.992-2.354,7.446,7.446,0,0,1-.624-3.19,10.043,10.043,0,0,1,.965-4.457,9.713,9.713,0,0,1,2.712-3.375,12.567,12.567,0,0,1,4.08-2.136,16.693,16.693,0,0,1,5.077-.743,21.97,21.97,0,0,1,6.885,1.053A16.782,16.782,0,0,1,542.86,62.8L539.5,67.811a19.654,19.654,0,0,0-4.828-2.726,13.309,13.309,0,0,0-4.641-.866,6.772,6.772,0,0,0-3.553.866,3.011,3.011,0,0,0-1.432,2.788,2.661,2.661,0,0,0,.343,1.423,2.993,2.993,0,0,0,1.089.991,10.7,10.7,0,0,0,1.964.836q1.213,0.4,3.021.835,3.363,0.868,5.762,1.734a15.788,15.788,0,0,1,3.927,1.981,7.077,7.077,0,0,1,2.242,2.57,7.878,7.878,0,0,1,.718,3.5,9,9,0,0,1-3.554,7.523Q537.005,92.022,530.9,92.021Z"/>
  </g>
</svg>
