<svg xmlns="http://www.w3.org/2000/svg" width="150" height="150" viewBox="0 0 150 150">
  <defs>
    <style>
      .cls-1 {
        fill: #fff;
        fill-rule: evenodd;
      }
    </style>
  </defs>
  <path id="Forma_1" data-name="Forma 1" class="cls-1" d="M122.281,59.616h-3.554V43.569a43.228,43.228,0,1,0-86.454,0V59.616H28.725a13.2,13.2,0,0,0-13.16,13.24v62.829a13.207,13.207,0,0,0,13.16,13.247h93.556a13.2,13.2,0,0,0,13.154-13.247V72.856A13.2,13.2,0,0,0,122.281,59.616ZM81.012,105.13v8.217a2.213,2.213,0,0,1-2.208,2.22H72.191a2.216,2.216,0,0,1-2.2-2.22V105.13A10.552,10.552,0,1,1,81.012,105.13ZM99.776,59.616H51.229V43.569a24.274,24.274,0,1,1,48.546,0V59.616Z"/>
</svg>
