<svg id="Capa_1" data-name="Capa 1" xmlns="http://www.w3.org/2000/svg" width="403.11" height="403.11" viewBox="0 0 403.11 403.11">
  <circle cx="201.555" cy="201.555" r="201.555" fill="#fefefe"/>
  <path d="M246.849,208.868c5.238-7.049,9.91-13.831,15.078-20.211,34.982-43.193,85.021-17.924,98.036,16.712,6.042,16.078,4.585,31.772-.692,47.629-9.471,28.464-27.01,51.672-47.167,73.224-19.629,20.989-40.709,40.513-61.225,60.605-1.753,1.716-2.827,2.788-5.3.671-32.089-27.427-64.009-55.047-87.828-90.437-12.566-18.671-23.909-38.047-27.65-60.8-6.044-36.758,25.821-72.626,62.478-70.133,14.391.978,25.727,8.262,35.389,18.479C234.985,192.035,240.394,200.77,246.849,208.868Z" transform="translate(-47.89 -48.973)" fill="#ff4d00"/>
</svg>
