<svg xmlns="http://www.w3.org/2000/svg" viewBox="0 0 83.98 83.98"><defs><style>.cls-1,.cls-4{fill:#fff;}.cls-1{stroke:#365875;stroke-width:1.5px;}.cls-1,.cls-5{stroke-miterlimit:10;}.cls-2,.cls-5{fill:#275b7b;}.cls-3{fill:#90a0b5;}.cls-5{stroke:#1d5777;}.cls-6{fill:#fcfcfd;}.cls-7{fill:#98c4d3;}.cls-8{fill:#99c4d3;}.cls-9{fill:#97c3d2;}</style></defs><g id="Capa_2" data-name="Capa 2"><circle class="cls-1" cx="41.99" cy="41.99" r="41.24"/></g><g id="Capa_3" data-name="Capa 3"><path class="cls-2" d="M65.38,26h1c0,.08.09.08.15.11a1.93,1.93,0,0,1,1.33,2c0,.32,0,.64,0,1s.06.48.44.57A8.52,8.52,0,0,1,75,36.17a4.77,4.77,0,0,0,.23,1.06v.09c-.16.17-.09.37-.09.56V65.52c0,.15-.08.33.09.45v.19c-.15.06-.09.19-.11.29a8.62,8.62,0,0,1-8.8,7.37H32.2a8.62,8.62,0,0,1-8.54-8.53V38a8.65,8.65,0,0,1,5.89-8.13,10,10,0,0,1,3.69-.43c.51,0,.66-.14.58-.61,0-.13,0-.26,0-.39A2.13,2.13,0,0,1,35.37,26h1c0,.14.13.12.2.15A2,2,0,0,1,37.76,28c0,.26,0,.52,0,.78,0,.71-.08.63.62.63H63c.9,0,.93,0,.89-.88A2.32,2.32,0,0,1,65.38,26Zm-16,46.82H66.69a7.59,7.59,0,0,0,7.43-7.45q0-11.59,0-23.2c0-.44-.1-.56-.55-.56q-24.18,0-48.35,0c-.45,0-.55.13-.55.56,0,7.69,0,15.37,0,23.06a7.58,7.58,0,0,0,7.58,7.59Zm0-32.24H73.63c.38,0,.51-.12.5-.5,0-.68,0-1.36,0-2a7.58,7.58,0,0,0-5.65-7.31c-.65-.17-.65-.17-.65.48,0,2,0,4.11,0,6.16A1.75,1.75,0,0,1,66.65,39a1.89,1.89,0,0,1-2.12-.35,2.31,2.31,0,0,1-.68-1.85c0-1.94,0-3.89,0-5.83,0-.44-.13-.58-.57-.58H38.37c-.48,0-.6.16-.59.62,0,2,0,4,0,6A2.11,2.11,0,0,1,37,38.77a1.94,1.94,0,0,1-2.11.23,1.85,1.85,0,0,1-1.1-1.79c0-2.07,0-4.15,0-6.22,0-.45-.14-.59-.58-.57-.68,0-1.36,0-2,.09a7.7,7.7,0,0,0-6.34,5.84,17,17,0,0,0-.18,3.34c0,.92-.09.85.83.85Zm17.42-7.93c0-1.52,0-3,0-4.56a1,1,0,1,0-1.92,0c0,3.06,0,6.11,0,9.16a1,1,0,0,0,.47.86.84.84,0,0,0,.91,0,1,1,0,0,0,.54-1Zm-30.09,0V28.13c0-.68-.36-1.12-.93-1.13a1,1,0,0,0-.95,1.09v9c0,.67.39,1.12.95,1.11a1,1,0,0,0,.93-1.13Z" transform="translate(-7.91 -7.78)"/><path class="cls-3" d="M75.19,66c-.17-.12-.09-.3-.09-.45V37.88c0-.19-.07-.39.09-.56Z" transform="translate(-7.91 -7.78)"/><path class="cls-4" d="M49.41,72.78H32.27a7.58,7.58,0,0,1-7.58-7.59c0-7.69,0-15.37,0-23.06,0-.43.1-.56.55-.56q24.18,0,48.35,0c.45,0,.55.12.55.56q0,11.59,0,23.2a7.59,7.59,0,0,1-7.43,7.45ZM27.22,48.44c0,.76,0,1.52,0,2.28,0,.35.09.49.46.49,1.55,0,3.1,0,4.65,0,.35,0,.44-.13.44-.45,0-1.54,0-3.07,0-4.61,0-.34-.09-.49-.46-.48q-2.32,0-4.65,0c-.35,0-.45.13-.44.46C27.23,46.89,27.22,47.67,27.22,48.44Zm13.29,0c0-.79,0-1.58,0-2.38,0-.27-.07-.41-.38-.41-1.58,0-3.17,0-4.75,0-.3,0-.4.11-.4.4,0,1.58,0,3.17,0,4.75,0,.3.12.39.41.39,1.56,0,3.13,0,4.7,0,.32,0,.43-.11.42-.42C40.5,50,40.51,49.23,40.51,48.45Zm7.77,0c0-.79,0-1.58,0-2.37,0-.28-.07-.42-.38-.42-1.58,0-3.17,0-4.75,0-.3,0-.4.11-.4.4,0,1.58,0,3.17,0,4.75,0,.3.12.39.4.39q2.35,0,4.71,0c.31,0,.43-.1.42-.42C48.27,50,48.28,49.23,48.28,48.45Zm5,2.75c.8,0,1.59,0,2.38,0,.3,0,.44-.09.43-.41q0-2.35,0-4.71c0-.31-.1-.42-.42-.42q-2.35,0-4.71,0c-.28,0-.4.09-.4.39,0,1.58,0,3.17,0,4.75,0,.34.15.41.44.4C51.72,51.19,52.48,51.2,53.24,51.2Zm7.79,0c.76,0,1.52,0,2.28,0,.36,0,.52-.07.52-.48,0-1.53,0-3.07,0-4.61,0-.32-.09-.46-.44-.45-1.55,0-3.1,0-4.66,0-.35,0-.43.13-.43.46,0,1.53,0,3.07,0,4.6,0,.41.16.49.52.48C59.54,51.19,60.29,51.2,61,51.2Zm10.56-2.81c0-.77,0-1.55,0-2.33,0-.28-.1-.4-.39-.4-1.59,0-3.18,0-4.76,0-.3,0-.39.12-.39.41,0,1.57,0,3.13,0,4.7,0,.31.1.43.42.43,1.57,0,3.14,0,4.7,0,.33,0,.43-.12.42-.43C71.58,50,71.59,49.19,71.59,48.39ZM32.75,56.28c0-.76,0-1.52,0-2.28,0-.32-.07-.47-.43-.47-1.57,0-3.13,0-4.7,0-.32,0-.42.11-.42.42q0,2.35,0,4.71c0,.32.12.41.43.41h4.7c.32,0,.42-.11.42-.42C32.74,57.86,32.75,57.07,32.75,56.28Zm2.24,0c0,.79,0,1.59,0,2.38,0,.25.06.39.35.39h4.81c.27,0,.37-.1.37-.37V53.9c0-.27-.11-.36-.38-.36H35.37c-.29,0-.39.1-.39.39C35,54.73,35,55.52,35,56.31Zm7.77,0c0,.79,0,1.58,0,2.38,0,.29.1.39.4.39h4.76c.26,0,.37-.1.37-.37q0-2.4,0-4.8c0-.28-.1-.37-.37-.37H43.15c-.34,0-.4.15-.4.44C42.76,54.75,42.76,55.53,42.76,56.31Zm7.76,0c0,.78,0,1.56,0,2.33,0,.34.1.45.44.45h4.66c.31,0,.43-.09.43-.41q0-2.36,0-4.71c0-.32-.1-.43-.42-.42H51c-.33,0-.46.09-.45.43C50.54,54.75,50.52,55.53,50.52,56.3Zm7.77,0c0,.81,0,1.62,0,2.43,0,.29.1.39.4.39h4.75c.27,0,.38-.1.38-.37q0-2.4,0-4.8c0-.28-.11-.37-.38-.37H58.69c-.3,0-.41.09-.4.39C58.3,54.71,58.29,55.48,58.29,56.26Zm10.49-2.72H66.5c-.32,0-.46.08-.45.43,0,1.55,0,3.1,0,4.65,0,.38.14.46.49.46h4.6c.33,0,.47-.09.46-.43,0-1.56,0-3.11,0-4.66,0-.37-.13-.46-.48-.46C70.33,53.55,69.56,53.54,68.78,53.54ZM30,61.41c-.77,0-1.55,0-2.33,0-.31,0-.46.07-.46.43,0,1.57,0,3.13,0,4.7,0,.33.12.42.43.42,1.57,0,3.14,0,4.7,0,.33,0,.42-.12.42-.43,0-1.57,0-3.14,0-4.71,0-.32-.12-.41-.43-.41C31.55,61.42,30.78,61.41,30,61.41Zm7.75,5.53c.78,0,1.56,0,2.33,0,.31,0,.44-.09.43-.42q0-2.36,0-4.71c0-.31-.1-.42-.42-.42H35.38c-.28,0-.4.09-.4.39,0,1.59,0,3.17,0,4.76,0,.34.15.4.44.4C36.2,66.93,37,66.94,37.75,66.94Zm5-2.76c0,.79,0,1.58,0,2.38,0,.25.06.39.35.38h4.81c.27,0,.37-.1.37-.37q0-2.4,0-4.8c0-.28-.11-.37-.38-.37H43.14c-.29,0-.39.11-.39.4C42.76,62.59,42.76,63.38,42.76,64.18Zm10.56-2.77H50.94c-.27,0-.42.06-.42.37,0,1.61,0,3.21,0,4.81,0,.28.11.37.38.36h4.75c.3,0,.4-.11.4-.4,0-1.59,0-3.17,0-4.76,0-.3-.12-.39-.4-.39Zm7.78,0c-.8,0-1.59,0-2.38,0-.31,0-.43.09-.43.41q0,2.36,0,4.71c0,.31.09.43.41.43,1.57,0,3.14,0,4.71,0,.29,0,.41-.08.41-.38,0-1.59,0-3.17,0-4.76,0-.34-.15-.4-.44-.4Zm10.49,2.77c0-.77,0-1.55,0-2.32,0-.33-.08-.46-.43-.46H66.5c-.32,0-.46.09-.45.44q0,2.32,0,4.65c0,.32.08.46.43.46,1.55,0,3.1,0,4.66,0,.37,0,.46-.15.45-.49C71.57,65.7,71.59,64.94,71.59,64.18Z" transform="translate(-7.91 -7.78)"/><path class="cls-5" d="M49.4,40.54H25.52c-.92,0-.83.07-.83-.85a17,17,0,0,1,.18-3.34,7.7,7.7,0,0,1,6.34-5.84c.68-.09,1.36,0,2-.09.44,0,.58.12.58.57,0,2.07,0,4.15,0,6.22A1.85,1.85,0,0,0,34.92,39,1.94,1.94,0,0,0,37,38.77,2.11,2.11,0,0,0,37.79,37c0-2,0-4,0-6,0-.46.11-.62.59-.62H63.28c.44,0,.58.14.57.58,0,1.94,0,3.89,0,5.83a2.31,2.31,0,0,0,.68,1.85,1.89,1.89,0,0,0,2.12.35,1.75,1.75,0,0,0,1.16-1.7c0-2,0-4.11,0-6.16,0-.65,0-.65.65-.48A7.58,7.58,0,0,1,74.12,38c0,.68,0,1.36,0,2,0,.38-.12.51-.5.5H49.4Z" transform="translate(-7.91 -7.78)"/><path class="cls-6" d="M66.82,32.61v4.51a1,1,0,0,1-.54,1,.84.84,0,0,1-.91,0,1,1,0,0,1-.47-.86c0-3.05,0-6.1,0-9.16a1,1,0,1,1,1.92,0C66.83,29.57,66.82,31.09,66.82,32.61Z" transform="translate(-7.91 -7.78)"/><path class="cls-4" d="M36.73,32.59v4.47a1,1,0,0,1-.93,1.13c-.56,0-.95-.44-.95-1.11v-9A1,1,0,0,1,35.8,27c.57,0,.93.45.93,1.13Z" transform="translate(-7.91 -7.78)"/><path class="cls-7" d="M27.22,49.12c0-.78,0-1.55,0-2.33,0-.32.09-.46.44-.46q2.33,0,4.65,0c.37,0,.46.14.46.49,0,1.53,0,3.07,0,4.6,0,.33-.09.46-.44.46-1.55,0-3.1,0-4.65,0-.37,0-.47-.13-.46-.48C27.23,50.64,27.22,49.88,27.22,49.12Z" transform="translate(-7.91 -7.78)"/><path class="cls-8" d="M40.51,49.13c0,.77,0,1.55,0,2.33,0,.31-.1.42-.42.42-1.57,0-3.14,0-4.7,0-.29,0-.41-.09-.41-.39,0-1.59,0-3.17,0-4.76,0-.29.1-.4.4-.39h4.75c.31,0,.39.13.38.41C40.5,47.54,40.51,48.34,40.51,49.13Z" transform="translate(-7.91 -7.78)"/><path class="cls-8" d="M48.28,49.13c0,.77,0,1.55,0,2.33,0,.31-.11.42-.42.42q-2.36,0-4.71,0c-.28,0-.4-.09-.4-.39,0-1.59,0-3.17,0-4.76,0-.29.1-.4.4-.39H47.9c.31,0,.38.14.38.41C48.27,47.54,48.28,48.34,48.28,49.13Z" transform="translate(-7.91 -7.78)"/><path class="cls-8" d="M53.24,51.87H51c-.29,0-.44-.06-.44-.4,0-1.59,0-3.17,0-4.75,0-.31.12-.4.4-.39,1.57,0,3.14,0,4.71,0,.32,0,.42.12.42.43q0,2.35,0,4.71c0,.32-.13.41-.43.41Z" transform="translate(-7.91 -7.78)"/><path class="cls-8" d="M61,51.87c-.74,0-1.49,0-2.23,0-.36,0-.52-.07-.52-.48,0-1.54,0-3.07,0-4.61,0-.32.08-.46.43-.46,1.56,0,3.11,0,4.66,0,.35,0,.44.13.44.46,0,1.54,0,3.07,0,4.61,0,.41-.16.49-.52.48C62.55,51.86,61.79,51.87,61,51.87Z" transform="translate(-7.91 -7.78)"/><path class="cls-8" d="M71.59,49.07c0,.79,0,1.59,0,2.38,0,.31-.09.43-.42.43-1.56,0-3.13,0-4.7,0-.32,0-.43-.12-.42-.43q0-2.36,0-4.71c0-.28.09-.41.39-.4H71.2c.29,0,.39.11.39.4C71.58,47.52,71.59,48.29,71.59,49.07Z" transform="translate(-7.91 -7.78)"/><path class="cls-9" d="M32.75,57c0,.8,0,1.59,0,2.38,0,.31-.1.43-.42.43-1.57,0-3.13,0-4.7,0-.31,0-.43-.1-.43-.42,0-1.57,0-3.14,0-4.7,0-.31.1-.43.42-.43,1.57,0,3.13,0,4.7,0,.36,0,.43.15.43.46C32.74,55.43,32.75,56.19,32.75,57Z" transform="translate(-7.91 -7.78)"/><path class="cls-7" d="M35,57c0-.79,0-1.59,0-2.38,0-.29.1-.4.39-.4h4.76c.27,0,.38.09.38.37v4.8c0,.27-.1.38-.37.37H35.33c-.29,0-.35-.13-.35-.38C35,58.57,35,57.78,35,57Z" transform="translate(-7.91 -7.78)"/><path class="cls-7" d="M42.76,57c0-.77,0-1.55,0-2.33,0-.29.06-.44.4-.44h4.76c.27,0,.37.1.37.37,0,1.6,0,3.21,0,4.81,0,.27-.11.37-.37.36H43.15c-.3,0-.4-.1-.4-.4C42.76,58.57,42.76,57.78,42.76,57Z" transform="translate(-7.91 -7.78)"/><path class="cls-7" d="M50.52,57c0-.78,0-1.55,0-2.33,0-.35.12-.44.45-.44h4.66c.32,0,.42.11.42.42q0,2.35,0,4.71c0,.32-.12.42-.43.42-1.55,0-3.1,0-4.66,0-.34,0-.45-.11-.44-.45C50.54,58.53,50.52,57.76,50.52,57Z" transform="translate(-7.91 -7.78)"/><path class="cls-7" d="M58.29,56.94c0-.78,0-1.56,0-2.33,0-.3.1-.4.4-.4h4.75c.27,0,.38.1.38.37,0,1.6,0,3.21,0,4.81,0,.27-.11.37-.38.36H58.69c-.3,0-.41-.1-.4-.4C58.3,58.55,58.29,57.74,58.29,56.94Z" transform="translate(-7.91 -7.78)"/><path class="cls-7" d="M68.78,54.22c.78,0,1.55,0,2.33,0,.35,0,.49.08.48.46q0,2.32,0,4.65c0,.35-.13.44-.46.44-1.53,0-3.07,0-4.6,0-.35,0-.49-.09-.49-.46,0-1.55,0-3.1,0-4.65,0-.35.13-.45.45-.44C67.26,54.23,68,54.22,68.78,54.22Z" transform="translate(-7.91 -7.78)"/><path class="cls-9" d="M30,62.08c.78,0,1.55,0,2.33,0,.31,0,.43.09.43.41,0,1.57,0,3.14,0,4.71,0,.3-.09.42-.42.42-1.56,0-3.13,0-4.7,0-.31,0-.43-.09-.43-.41,0-1.57,0-3.14,0-4.71,0-.36.15-.43.46-.42C28.45,62.09,29.23,62.08,30,62.08Z" transform="translate(-7.91 -7.78)"/><path class="cls-7" d="M37.75,67.62c-.77,0-1.55,0-2.33,0-.29,0-.44-.06-.44-.4,0-1.58,0-3.17,0-4.75,0-.31.12-.39.4-.39q2.35,0,4.71,0c.32,0,.43.11.42.42q0,2.35,0,4.71c0,.32-.12.42-.43.41C39.31,67.61,38.53,67.62,37.75,67.62Z" transform="translate(-7.91 -7.78)"/><path class="cls-7" d="M42.76,64.85c0-.79,0-1.58,0-2.38,0-.29.1-.39.39-.39,1.59,0,3.18,0,4.76,0,.27,0,.38.09.38.36,0,1.6,0,3.21,0,4.81,0,.27-.1.37-.37.37-1.6,0-3.2,0-4.81,0-.29,0-.35-.13-.35-.39C42.76,66.44,42.76,65.65,42.76,64.85Z" transform="translate(-7.91 -7.78)"/><path class="cls-7" d="M53.32,62.08c.77,0,1.55,0,2.33,0,.28,0,.4.09.4.39,0,1.58,0,3.17,0,4.76,0,.29-.1.39-.4.39-1.58,0-3.17,0-4.75,0-.27,0-.38-.09-.38-.36,0-1.61,0-3.21,0-4.81,0-.32.15-.37.42-.37C51.73,62.09,52.52,62.08,53.32,62.08Z" transform="translate(-7.91 -7.78)"/><path class="cls-7" d="M61.1,62.08c.76,0,1.52,0,2.28,0,.29,0,.44.06.44.4,0,1.58,0,3.17,0,4.75,0,.31-.12.39-.41.39q-2.35,0-4.71,0c-.32,0-.41-.11-.41-.42q0-2.36,0-4.71c0-.33.12-.42.43-.41C59.51,62.09,60.3,62.08,61.1,62.08Z" transform="translate(-7.91 -7.78)"/><path class="cls-7" d="M71.59,64.86c0,.76,0,1.52,0,2.28,0,.34-.08.49-.45.48-1.56,0-3.11,0-4.66,0-.35,0-.44-.13-.43-.45,0-1.56,0-3.11,0-4.66,0-.35.13-.44.45-.43,1.55,0,3.11,0,4.66,0,.35,0,.44.13.43.45C71.58,63.31,71.59,64.08,71.59,64.86Z" transform="translate(-7.91 -7.78)"/></g></svg>