<svg id="Capa_3" data-name="Capa 3" xmlns="http://www.w3.org/2000/svg" width="317.805" height="342.271" viewBox="0 0 317.805 342.271">
  <g>
    <path d="M338.117,298.487c-2.24-23.511-21.833-41.985-45.345-41.985A44.93,44.93,0,0,0,255.825,276.1a15.492,15.492,0,0,0-5.038-.56,30.569,30.569,0,0,0-29.11,21.833c-10.636,6.717-17.914,18.473-17.914,31.349,0,20.153,15.675,36.387,35.268,36.387H327.48a33.81,33.81,0,0,0,33.589-34.148C361.069,316.4,351.552,303.526,338.117,298.487Z" transform="translate(-43.264 -33.864)" fill="#ff4d00"/>
    <path d="M209.361,284.492a47.231,47.231,0,0,1,39.187-25.751,61.819,61.819,0,0,1,44.784-19.033,59.493,59.493,0,0,1,38.627,14l1.679-1.679V198.842c-7.277,5.038-17.354,9.517-28.55,13.435-24.072,8.4-57.3,13.9-99.287,15.583-4.994.276-9.875.092-14.913.092H175.773c-41.425-1.12-75.014-7.277-99.085-15.675-11.2-3.918-20.713-8.4-27.99-13.435v53.182c16.234,16.794,70.535,32.468,142.19,32.468C197.046,285.052,203.2,284.492,209.361,284.492Z" transform="translate(-43.264 -33.864)" fill="none" stroke="#ff4d00" stroke-miterlimit="10" stroke-width="10.867"/>
    <path d="M183.051,210.038c3.844.038,5.038,0,7.837,0s5.039.046,7.837,0c2.2-.036,3.919,0,5.6,0h2.239c64.378-2.239,111.961-16.794,127.076-32.468V124.388c-27.99,19.034-86.21,29.11-142.19,29.11S76.128,143.422,48.7,123.828V177.01c15.114,15.674,62.049,30.5,126.426,32.735C177.368,209.8,181.374,210.022,183.051,210.038Z" transform="translate(-43.264 -33.864)" fill="none" stroke="#ff4d00" stroke-miterlimit="10" stroke-width="10.867"/>
    <path d="M330.711,106.357a7.932,7.932,0,0,0,2.927-6.143s-.3-11.284-.559-12.213c-6.159-24.632-55.421-48.7-141.631-48.7S52.128,62.632,49.257,88c-.39,3.448-.559,5.6-.559,5.6v5.99a9.126,9.126,0,0,0,3.4,7.157c19.486,15.585,71,29.4,138.789,29.4C259.242,136.144,311.546,122.1,330.711,106.357Z" transform="translate(-43.264 -33.864)" fill="none" stroke="#ff4d00" stroke-miterlimit="10" stroke-width="10.867"/>
    <path d="M186.969,328.717a53.022,53.022,0,0,1,7.278-26.311h-3.359c-70.535,0-118.679-12.876-142.19-29.67V319.2a5.051,5.051,0,0,0,.559,2.8c6.718,27.99,67.177,48.7,141.631,48.7a157.256,157.256,0,0,0,16.234-.56A52.271,52.271,0,0,1,186.969,328.717Z" transform="translate(-43.264 -33.864)" fill="none" stroke="#ff4d00" stroke-miterlimit="10" stroke-width="10.867"/>
  </g>
</svg>
