<?xml version="1.0" encoding="utf-8"?>
<!-- Generator: Adobe Illustrator 24.1.2, SVG Export Plug-In . SVG Version: 6.00 Build 0)  -->
<svg version="1.1" id="Capa_1" xmlns="http://www.w3.org/2000/svg" xmlns:xlink="http://www.w3.org/1999/xlink" x="0px" y="0px"
	 viewBox="0 0 3333 683" style="enable-background:new 0 0 3333 683;" xml:space="preserve">
<style type="text/css">
	.st0{fill-rule:evenodd;clip-rule:evenodd;fill:#FFFFFF;}
</style>
<path id="Forma_1" class="st0" d="M319.4,657.4C143.4,657,1,515,1.4,340.2S144.9,24,320.9,24.4s318.4,142.4,318,317.2v2.1
	C637.6,517.8,494.8,658,319.4,657.4z M319.4,528h114c37.8,1.5,70.1-26.8,73.6-64.4c1.4-16.7,1.9-33.4,1.3-50.1V233.2
	c0-50.4-30.4-79.3-80.8-79.3h-220c-39.1-3.3-73.5,25.7-76.8,64.8v7.5c-1.1,76.8-1.3,153.7,0,230.4c0.1,39.2,32.1,71,71.3,70.8h4.6
	L319.4,528z M319.4,490.9H207.8c-19.8,2.1-37.6-12.1-39.9-31.9c-0.2-2.1-0.2-4.2,0-6.2V314.2c0-9.1,2.8-12.3,12-11.7
	c12.7,0,28.5-4.2,37.7,1.4s-1.2,21.4-1.2,33c-1.9,40.4,20.6,78,57.1,95.4c50.6,25.4,112.2,5.2,137.9-45.1
	c11.1-21.9,13.9-47.1,7.8-71c-3-12.3,0-14.2,11.4-14.2c40.9,0,40.9,0,40.9,40v105.7c0,30.2-13.3,42.5-43.7,42.5
	C391.9,491,355.8,490.9,319.4,490.9L319.4,490.9z M253.9,340.5c0.2-36.5,29.9-66,66.4-65.8c36.5,0.2,66,29.9,65.8,66.4
	s-29.9,66-66.4,65.8c0,0,0,0-0.1,0h-0.4h-1C282.4,405.7,254,376.3,253.9,340.5L253.9,340.5z M431.6,260.9c-30.4,0-30.4,0-30.4-29.6
	c0-33.4,0-33.4,33-33.6c30.4,0,30.4,0,30.4,29.4C464.8,260.9,464.8,260.9,431.6,260.9z M917.7,249.5c12.4,0,24.8,2.1,36.5,6.4
	c11.5,4.2,22,10.6,31,18.8c9.2,8.6,16.5,19,21.4,30.7c5.5,13.4,8.2,27.8,7.9,42.3c0,2.4-0.1,5.6-0.4,9.7c-0.3,4.3-0.8,8.5-1.7,12.8
	c-0.9,4.7-2.2,9.2-3.9,13.7c-1.7,4.5-4,8.8-7,12.6c-6.4,8.3-16.5,13.1-27,12.6c-3.9,0.1-7.9-0.5-11.6-1.9c-2.8-1.1-5.3-2.8-7.3-5
	c-1.8-2-3.1-4.3-4-6.8c-0.8-2.4-1.5-4.8-1.8-7.3c-5.6,5.5-12.2,9.8-19.5,12.8c-7.8,3.2-16.2,4.8-24.7,4.8c-13,0-22.8-3.4-29.6-10.1
	c-6.8-6.9-10.5-16.3-10.1-26c-0.5-11.9,5.4-23.1,15.4-29.4c4.8-3,10.1-5.1,15.6-6.3c5.8-1.3,11.6-1.9,17.5-1.9
	c6-0.1,12,0.5,17.9,1.9c3.9,0.9,7.7,2.2,11.4,3.7c0-4.3-0.4-8.7-1.3-12.9c-0.7-3.7-2.3-7.1-4.7-10.1c-2.4-2.9-5.6-5.1-9.1-6.4
	c-4.7-1.7-9.6-2.5-14.6-2.3c-6.6-0.1-13.2,1-19.5,3.1c-5.5,1.8-10.6,4.6-15.1,8.3l-6.8-18.3c13.3-8.6,28.8-13.1,44.7-12.9
	c9.1-0.5,18.1,1.3,26.3,5.2c5.8,3,10.6,7.5,14,13c3.1,5.3,5,11.3,5.6,17.4c0.7,6.1,1,12.2,1,18.3v24.7c0,3.8,0.1,7.4,0.4,11
	c0.2,3.2,0.8,6.3,1.7,9.3c0.7,2.4,2.1,4.7,3.9,6.4c2,1.7,4.6,2.6,7.3,2.4c4.4,0.1,8.5-1.8,11.3-5.2c3-3.7,5.3-7.9,6.8-12.5
	c1.7-5,2.8-10.1,3.3-15.3c0.5-5.3,0.8-9.8,0.8-13.4c0.1-11.4-2-22.7-6.1-33.4c-3.9-9.9-9.6-18.9-17-26.6
	c-7.4-7.6-16.4-13.6-26.2-17.5c-21.8-8.4-45.8-8.4-67.6-0.1c-9.8,3.9-18.7,9.7-26.2,17.1c-7.4,7.4-13.3,16.3-17.1,26
	c-4.1,10.5-6.2,21.6-6.1,32.9c-0.1,11,1.9,22,5.7,32.4c3.6,9.8,9.1,18.7,16.2,26.3c7.2,7.6,15.8,13.6,25.3,17.8
	c10.4,4.5,21.6,6.7,33,6.6c7.3,0.1,14.5-0.8,21.6-2.7c6.5-2,12.8-4.3,18.9-7.1l4.2,13.4c-7.1,3.4-14.6,6-22.3,7.7
	c-7.5,1.7-15.2,2.6-22.8,2.6c-12.5,0.1-25-2.3-36.6-7c-11.2-4.5-21.4-11.2-30-19.7c-8.7-8.8-15.6-19.2-20.3-30.7
	c-5-12.6-7.6-26-7.4-39.6c-0.3-14,2.5-28,8.1-40.9c5-11.5,12.4-21.7,21.7-30.2c9.2-8.2,19.9-14.6,31.6-18.7
	C892.3,251.6,905,249.4,917.7,249.5z M930.5,382.5c4.1-1.8,7.6-4.6,10.1-8.3c2.1-3.2,3.2-7,3.1-10.8v-9.8c-2.4-0.9-6.2-2-11.4-3.3
	c-5.8-1.5-11.7-2.2-17.7-2.1c-7-0.3-13.9,1.3-20,4.6c-5.3,3.4-8.3,9.4-7.8,15.7c-0.2,5.2,1.8,10.3,5.6,13.9
	c4.3,3.6,9.8,5.5,15.4,5.2c3.8,0,7.7-0.5,11.4-1.3C923.2,385.6,926.9,384.3,930.5,382.5z M1041.6,436.1v-31.2h95.3v31.2
	L1041.6,436.1L1041.6,436.1L1041.6,436.1z M1293.2,404.9h-34.8v-75.8c0-10.8-1.9-18.7-5.7-23.7c-3.7-5-9.6-7.8-15.8-7.5
	c-3.6,0-7.3,0.7-10.6,2.1c-3.7,1.4-7.2,3.4-10.3,5.8c-3.3,2.6-6.2,5.6-8.7,8.9c-2.6,3.4-4.5,7.2-5.7,11.3v78.9h-34.8V269.8h31.4v25
	c5.1-8.7,12.7-15.7,21.8-20.1c10-4.9,21-7.4,32.2-7.2c7.2-0.3,14.4,1.3,20.8,4.6c5.1,2.9,9.4,7.1,12.5,12.1c3,5.3,5.1,11,6.1,17
	c1.1,6.4,1.7,12.9,1.7,19.3L1293.2,404.9L1293.2,404.9L1293.2,404.9z M1386.6,407.5c-10.1,0.1-20.2-1.7-29.6-5.5
	c-8.5-3.5-16.2-8.6-22.6-15.1c-6.2-6.4-11.1-13.9-14.4-22.2c-3.4-8.4-5.1-17.5-5.1-26.6c-0.1-9.3,1.6-18.5,4.9-27.2
	c3.2-8.4,8-16,14.3-22.4c6.5-6.6,14.2-11.8,22.7-15.3c9.5-3.9,19.7-5.8,30-5.7c10.2-0.2,20.3,1.8,29.7,5.7c8.4,3.5,16,8.7,22.3,15.2
	c6.1,6.4,10.9,13.9,14,22.2c3.2,8.4,4.8,17.3,4.8,26.3c0,2.2-0.1,4.4-0.1,6.4c-0.1,1.7-0.3,3.5-0.7,5.2h-105.2
	c0.4,4.9,1.7,9.7,3.9,14.2c4,8,10.8,14.2,19.2,17.3c4.2,1.5,8.6,2.3,13,2.3c6.9,0,13.6-1.7,19.6-5c5.6-2.8,10.1-7.5,12.6-13.3
	l29.9,8.3c-5.3,10.6-13.7,19.5-24,25.4C1414,404.4,1400.4,407.9,1386.6,407.5L1386.6,407.5z M1421.9,326c-0.5-9.3-4.5-18-11.3-24.4
	c-10.2-9-24.7-11.6-37.4-6.7c-4,1.6-7.6,3.9-10.8,6.8c-3.2,3-5.8,6.6-7.7,10.6c-2,4.3-3.2,8.9-3.5,13.7L1421.9,326L1421.9,326z
	 M1495.7,269.8l29.3,42.3l2.1,4.6l2.6-4.6l29.1-42.3h35.8l-48.6,67.8l49.3,67.3h-35.8l-30.1-42l-2.3-4.4l-2.1,4.4l-29.8,42h-35.8
	l49.1-67.3l-48.3-67.8L1495.7,269.8L1495.7,269.8z M1738.4,404.9h-34.8v-75.8c0-10.8-1.9-18.7-5.7-23.7c-3.7-5-9.6-7.8-15.8-7.5
	c-3.6,0-7.2,0.7-10.6,2.1c-3.7,1.4-7.2,3.4-10.3,5.8c-3.3,2.6-6.2,5.6-8.7,8.9c-2.6,3.4-4.5,7.2-5.7,11.3v78.9H1612V269.8h31.4v25
	c5.1-8.7,12.7-15.7,21.8-20.1c10-4.9,21-7.4,32.2-7.2c7.2-0.3,14.4,1.3,20.8,4.6c5.1,2.9,9.4,7.1,12.5,12.1c3,5.3,5.1,11,6.1,17
	c1.1,6.4,1.7,12.9,1.7,19.3L1738.4,404.9L1738.4,404.9L1738.4,404.9z M1831.9,407.5c-10.1,0.1-20.2-1.7-29.6-5.5
	c-8.5-3.5-16.2-8.6-22.6-15.1c-6.2-6.4-11.1-13.9-14.4-22.2c-3.4-8.4-5.1-17.5-5.1-26.6c-0.1-9.3,1.6-18.5,4.9-27.2
	c3.2-8.4,8-16,14.3-22.4c6.5-6.6,14.2-11.8,22.7-15.3c9.5-3.9,19.7-5.8,30-5.7c10.2-0.2,20.3,1.8,29.7,5.7c8.4,3.5,16,8.7,22.3,15.2
	c6.1,6.4,10.9,13.9,14,22.2c3.2,8.4,4.8,17.3,4.8,26.3c0,2.2,0,4.4-0.1,6.4c0,1.7-0.3,3.5-0.6,5.2h-105.2c0.4,4.9,1.7,9.7,3.9,14.2
	c4,8,10.8,14.2,19.2,17.3c4.2,1.5,8.5,2.3,13,2.3c6.9,0,13.6-1.7,19.6-5c5.6-2.8,10.1-7.5,12.6-13.3l29.9,8.3
	c-5.3,10.6-13.7,19.5-24,25.4C1859.3,404.4,1845.7,407.9,1831.9,407.5L1831.9,407.5L1831.9,407.5z M1867.2,326
	c-0.5-9.3-4.5-18-11.3-24.4c-10.2-9-24.6-11.6-37.4-6.7c-4,1.6-7.6,3.9-10.8,6.8c-3.2,3-5.8,6.6-7.7,10.6c-2,4.3-3.2,8.9-3.5,13.7
	H1867.2L1867.2,326z M2045.3,404.9l-26.2-81.5l-26,81.5h-37.4l-47-135.1h36.1l31.2,93.8l27-93.8h32.7l27,93.8l31.2-93.8h35.6
	L2083,404.9H2045.3z M2197.4,407.5c-11.4,0-22.7-1.8-33.5-5.4c-10.3-3.3-19.8-8.5-28-15.5l13-21.7c7.5,5.4,15.7,9.9,24.3,13.3
	c7.5,2.9,15.4,4.5,23.5,4.5c5.7,0.3,11.4-1,16.4-3.9c3.9-2.3,6.1-6.6,6-11.1c0.1-4.6-2.7-8.9-7-10.6c-7.4-3.2-15-5.8-22.9-7.7
	c-8.8-2.4-16.4-4.7-22.6-7c-5.4-1.8-10.4-4.3-15.1-7.6c-3.5-2.5-6.4-5.9-8.3-9.8c-1.8-4.2-2.7-8.7-2.6-13.3
	c-0.1-6.4,1.3-12.8,4-18.6c2.7-5.5,6.5-10.3,11.3-14.1c5.1-4,10.8-7,17-8.9c6.9-2.1,14-3.2,21.2-3.1c9.7-0.1,19.4,1.4,28.7,4.4
	c9.1,3,17.4,7.9,24.5,14.2l-14,20.9c-6.1-4.7-12.9-8.5-20.1-11.4c-6.2-2.3-12.7-3.6-19.3-3.6c-5.2-0.2-10.3,1.1-14.8,3.6
	c-4,2.4-6.3,6.9-6,11.6c-0.1,2.1,0.4,4.1,1.4,5.9c1.1,1.7,2.7,3.2,4.5,4.1c2.6,1.4,5.4,2.6,8.2,3.5c3.4,1.1,7.6,2.3,12.6,3.5
	c9.3,2.4,17.3,4.8,24,7.2c5.8,2,11.3,4.7,16.4,8.2c3.9,2.8,7.2,6.4,9.4,10.7c2.1,4.6,3.1,9.6,3,14.6c0.5,12.2-5.1,23.9-14.8,31.3
	C2227.8,403.7,2214.4,407.5,2197.4,407.5L2197.4,407.5z"/>
</svg>
