<svg id="Capa_6" data-name="Capa 6" xmlns="http://www.w3.org/2000/svg" viewBox="0 0 60.57 60.57"><defs><style>.cls-1{fill:#195777;}.cls-2{fill:none;stroke:#fff;stroke-miterlimit:10;stroke-width:3px;}.cls-3{fill:#fff;}</style></defs><circle class="cls-1" cx="30.29" cy="30.29" r="30.29"/><circle class="cls-1" cx="30.25" cy="30.42" r="24.91"/><circle class="cls-2" cx="30.32" cy="30.09" r="26.36"/><polyline class="cls-2" points="12.81 28.62 22.45 39.22 42.55 16.13"/><path class="cls-3" d="M63.19,51.14a2.84,2.84,0,0,1-.06.29l-1.44,4.75c-.4,1.31-.79,2.62-1.18,3.94a2.21,2.21,0,0,0-.07.46c0,.31.09.41.41.39a1.15,1.15,0,0,0,.8-.53,8.11,8.11,0,0,0,.65-.89c.11-.17.21-.2.38-.09.47.3.41.22.16.64a7.3,7.3,0,0,1-2.47,2.62,2.88,2.88,0,0,1-2.76.26,1.83,1.83,0,0,1-1-2,12.65,12.65,0,0,1,.36-1.62c.46-1.54,1-3.08,1.42-4.63a5,5,0,0,0,.14-1.09c0-.57-.42-.83-.94-.88h0l-.45-.09c.06-.21.12-.42.2-.63,0,0,.1-.05.15-.06l4-.6c.45-.06.9-.14,1.34-.22Z" transform="translate(-19.89 -19.67)"/><path class="cls-3" d="M61.74,49.86a2.13,2.13,0,0,1-2.13-2.16,2.26,2.26,0,0,1,2.23-2.18A2.17,2.17,0,0,1,64,47.68,2.21,2.21,0,0,1,61.74,49.86Z" transform="translate(-19.89 -19.67)"/></svg>