<svg xmlns="http://www.w3.org/2000/svg" width="77.999" height="53.423" viewBox="0 0 77.999 53.423">
  <g id="Capa_2" data-name="Capa 2">
    <g id="Layer_1" data-name="Layer 1">
      <g>
        <path d="M64.91,25.514c0,5-2.266,9.049-5.063,9.049s-5.065-4.051-5.065-9.049,2.268-9.048,5.065-9.048S64.91,20.517,64.91,25.514Z" fill="#ff4d00"/>
        <rect x="9.147" y="30.035" width="11.364" height="20.877" fill="#fff" stroke="#ff4d00" stroke-miterlimit="10" stroke-width="0.75"/>
        <path d="M32.839,33.873H9.037A9.036,9.036,0,0,1,0,24.837v-.183a9.037,9.037,0,0,1,9.037-9.036h23.8Z" fill="#ff4d00"/>
        <polygon points="56.675 2.925 26.394 15.618 26.394 33.873 56.675 46.566 56.675 2.925" fill="#ff4d00"/>
        <rect x="53.299" y="0.375" width="6.548" height="48.741" rx="3.241" fill="#fff" stroke="#ff4d00" stroke-miterlimit="10" stroke-width="0.75"/>
        <g>
          <rect x="69.212" y="23.026" width="8.787" height="2.511" rx="1.243" fill="#ff4d00"/>
          <path d="M72.936,15.2l-3.408,3.407a.951.951,0,0,1-1.344,0l-.013-.013a.951.951,0,0,1,0-1.344l3.407-3.408a.951.951,0,0,1,1.344,0l.014.014A.951.951,0,0,1,72.936,15.2Z" fill="#ff4d00"/>
          <path d="M72.359,33.075l-2.926-2.926a.891.891,0,0,0-1.249.095l-.013.014a.89.89,0,0,0-.1,1.248L71,34.432a.89.89,0,0,0,1.249-.095l.014-.013A.892.892,0,0,0,72.359,33.075Z" fill="#ff4d00"/>
        </g>
        <path d="M19.693,53.423H9.966A2.215,2.215,0,0,1,7.808,50.71l1.362-5.9H20.489l1.363,5.9A2.216,2.216,0,0,1,19.693,53.423Z" fill="#ff4d00"/>
      </g>
    </g>
  </g>
</svg>
