<svg xmlns="http://www.w3.org/2000/svg" width="434.918" height="434.918" viewBox="0 0 434.918 434.918">
  <g id="Capa_1" data-name="Capa 1">
    <circle cx="217.459" cy="217.459" r="217.459" fill="#0055b8"/>
  </g>
  <g id="Capa_3" data-name="Capa 3">
    <g>
      <path d="M317.711,213.176c16.73-37.174-15.873-76.088-52.044-83.515C229,122.134,188.33,141.84,176.114,178.282c-6.96,20.762,4.457,38.809,13.243,56.682l31.769,64.629,22.256,45.275c2.19,4.454,9.747,4.554,11.906,0l54.741-115.486,7.682-16.206c3.781-7.976-8.1-14.981-11.906-6.959L251.064,321.7l-7.682,16.205h11.906l-45.87-93.314c-6.11-12.429-12.34-24.806-18.332-37.292-14.763-30.768,19.4-59.583,46.78-64.6,17.94-3.286,37.656,1.392,51.592,13.329,13.987,11.98,24.517,32.031,16.347,50.184C302.193,214.244,314.071,221.264,317.711,213.176Z" transform="translate(-32.541 -32.541)" fill="#fff"/>
      <g>
        <polygon points="243.842 161.702 215.53 145.356 187.219 161.702 187.219 193.23 243.853 193.23 243.853 161.702 243.842 161.702" fill="none" stroke="#fff" stroke-miterlimit="10" stroke-width="4.128"/>
        <g>
          <rect x="262.916" y="157.765" width="4.569" height="42.794" transform="translate(-55.088 286.735) rotate(-60.005)" fill="#fff"/>
          <rect x="209.029" y="176.878" width="42.794" height="4.569" transform="translate(-91.251 106.678) rotate(-30.001)" fill="#fff"/>
        </g>
        <rect x="209.217" y="170.346" width="12.639" height="22.884" fill="#fff"/>
        <rect x="234.317" y="135.554" width="7.773" height="14.012" fill="#fff"/>
      </g>
      <path d="M218.209,321.874c-14.614,2.053-42.671,6.724-45.7,25.271-2.751,16.82,20.818,24.331,33.042,27.443,25.064,6.379,52.327,6.643,77.745,2.336,10.3-1.745,20.768-4.392,30.076-9.275,5.761-3.022,12-7.557,13.847-14.144,2.271-8.11-3.355-14.857-9.65-19.157-10.849-7.41-24.89-10.343-37.628-12.3-5.666-.871-8.108,7.8-2.392,8.678,9.928,1.526,20.154,3.6,29.295,7.915,4.094,1.933,12.228,5.8,11.891,11.434-.269,4.515-6.006,7.7-9.435,9.551-7.34,3.957-15.65,6.129-23.779,7.766a184.508,184.508,0,0,1-67.2.722c-8.535-1.491-17.288-3.524-25.155-7.248-4.057-1.92-10.382-4.947-11.7-9.752-1.4-5.133,4.145-9.326,7.916-11.551,9.335-5.507,20.641-7.523,31.222-9.009,5.712-.8,3.281-9.475-2.392-8.679Z" transform="translate(-32.541 -32.541)" fill="#fff"/>
    </g>
  </g>
</svg>
