<svg xmlns="http://www.w3.org/2000/svg" width="434.918" height="434.918" viewBox="0 0 434.918 434.918">
  <g id="Capa_1" data-name="Capa 1">
    <circle cx="217.459" cy="217.459" r="217.459" fill="#0055b8"/>
  </g>
  <g id="Capa_5" data-name="Capa 5">
    <g id="x1hxbp.tif">
      <g>
        <path d="M262.049,137.255l10.25,3.417c7.973,4.556,13.668,13.667,13.668,22.779v89.976c0,6.833-2.278,14.806-4.556,18.223-4.556,5.694-10.251,10.25-18.223,11.389H238.131c-9.111-1.139-15.945-6.833-20.5-14.806a22.967,22.967,0,0,1-3.416-12.528V163.451c0-10.251,5.694-18.223,14.806-22.779,3.417-2.278,6.833-2.278,9.111-3.417Z" transform="translate(-32.541 -32.541)" fill="#fff"/>
        <path d="M182.323,223.814h18.223v30.752c0,20.5,13.668,36.446,33.03,41a14.44,14.44,0,0,0,6.833,1.139h19.362a39.379,39.379,0,0,0,37.585-26.195c2.278-5.7,3.417-10.251,3.417-15.945V223.814H319v35.307c0,3.417-1.139,5.695-1.139,9.112-5.7,22.779-20.5,38.724-43.28,44.418-4.556,1.139-9.111,1.139-13.667,2.278V346.82h38.724v18.223H203.963V346.82h38.724V314.929c-4.556,0-7.973-1.139-12.528-1.139a62.064,62.064,0,0,1-27.335-13.667c-9.111-7.972-14.806-18.223-18.223-29.612-1.139-4.556-2.278-7.973-2.278-11.39Z" transform="translate(-32.541 -32.541)" fill="#fff"/>
      </g>
    </g>
  </g>
</svg>
