<svg id="Capa_1" data-name="Capa 1" xmlns="http://www.w3.org/2000/svg" width="434.918" height="434.918" viewBox="0 0 434.918 434.918">
  <circle cx="217.459" cy="217.459" r="217.459" fill="#0055b8"/>
  <g>
    <circle cx="204.151" cy="199.659" r="101.981" fill="none" stroke="#fff" stroke-miterlimit="10" stroke-width="15.452"/>
    <rect x="336.688" y="285.603" width="23.621" height="103.856" rx="9.921" transform="translate(-169.139 312.745) rotate(-45)" fill="#fff"/>
  </g>
  <g>
    <rect x="231.113" y="198.682" width="12.098" height="126.139" rx="6.049" transform="translate(-57.13 466.373) rotate(-90)" fill="#fff"/>
    <g>
      <path d="M283.113,210.459a31.246,31.246,0,0,0,2.035-20.164A48.251,48.251,0,0,0,238.16,153.21a50.623,50.623,0,0,0-47.943,34.622,31.81,31.81,0,0,0,1.549,23.114L238.16,311.189Z" transform="translate(-32.541 -32.541)" fill="#fff"/>
      <path d="M285.091,211c10.607-25.482-11.07-53.227-35.947-58.651-25.583-5.578-53.019,9.75-60.9,34.934-4.612,14.731,3.05,27.491,9,40.359l22.974,49.64,16.17,34.938a2.06,2.06,0,0,0,3.541,0l39.389-88.26,5.565-12.47c1.067-2.39-2.466-4.478-3.541-2.07l-39.389,88.26-5.565,12.47h3.541l-32.4-70c-4.559-9.85-9.3-19.636-13.683-29.565-10.691-24.219,10.848-49.114,34.073-54.223a46.637,46.637,0,0,1,40.948,10.549c11.964,10.753,18.695,27.554,12.265,43C280.123,212.348,284.09,213.41,285.091,211Z" transform="translate(-32.541 -32.541)" fill="#0055b8"/>
    </g>
    <circle cx="205.619" cy="169.873" r="19.747" fill="#fff" stroke="#0055b8" stroke-miterlimit="10" stroke-width="9.633"/>
  </g>
</svg>
