<svg xmlns="http://www.w3.org/2000/svg" width="434.918" height="434.918" viewBox="0 0 434.918 434.918">
  <g id="Capa_1" data-name="Capa 1">
    <circle cx="217.459" cy="217.459" r="217.459" fill="#0055b8"/>
  </g>
  <g id="Capa_7" data-name="Capa 7">
    <g id="Capa_2" data-name="Capa 2">
      <g id="Capa_1-2" data-name="Capa 1-2">
        <g>
          <path d="M250.426,175.886V344.228a9.6,9.6,0,0,0,11.439,9.424l116.094-22.635a9.6,9.6,0,0,0,7.764-9.425V153.251a9.6,9.6,0,0,0-11.439-9.424L258.189,166.461A9.6,9.6,0,0,0,250.426,175.886Z" transform="translate(-32.541 -32.541)" fill="none" stroke="#fff" stroke-miterlimit="10" stroke-width="13.094"/>
          <rect x="82.034" y="135.435" width="135.298" height="187.907" rx="9.601" fill="none" stroke="#fff" stroke-miterlimit="10" stroke-width="13.094"/>
        </g>
        <polygon points="138.37 220.266 116.488 195.269 94.606 220.266 94.606 135.435 138.37 135.435 138.37 220.266" fill="#fff"/>
        <g>
          <rect x="272.013" y="185.934" width="97.85" height="8.553" rx="4.276" transform="translate(-61.932 29.41) rotate(-10.546)" fill="#fff"/>
          <path d="M276.263,217.981l87.789-16.343a4.277,4.277,0,0,1,4.987,3.422h0a4.276,4.276,0,0,1-3.422,4.986L277.829,226.39a4.277,4.277,0,0,1-4.987-3.422h0A4.277,4.277,0,0,1,276.263,217.981Z" transform="translate(-32.541 -32.541)" fill="#fff"/>
          <path d="M276.28,241.808l87.8-16.338a4.278,4.278,0,0,1,4.988,3.422h0a4.278,4.278,0,0,1-3.423,4.987l-87.8,16.338a4.277,4.277,0,0,1-4.987-3.422h0A4.277,4.277,0,0,1,276.28,241.808Z" transform="translate(-32.541 -32.541)" fill="#fff"/>
          <path d="M276.279,265.614l87.8-16.338a4.277,4.277,0,0,1,4.987,3.422h0a4.277,4.277,0,0,1-3.422,4.987l-87.8,16.338a4.277,4.277,0,0,1-4.987-3.422h0A4.277,4.277,0,0,1,276.279,265.614Z" transform="translate(-32.541 -32.541)" fill="#fff"/>
          <path d="M276.279,289.421l87.8-16.338a4.277,4.277,0,0,1,4.987,3.422h0a4.278,4.278,0,0,1-3.422,4.988l-87.8,16.337a4.277,4.277,0,0,1-4.987-3.422h0A4.277,4.277,0,0,1,276.279,289.421Z" transform="translate(-32.541 -32.541)" fill="#fff"/>
          <path d="M276.279,313.227l87.8-16.338a4.277,4.277,0,0,1,4.987,3.423h0a4.277,4.277,0,0,1-3.423,4.987l-87.8,16.337a4.276,4.276,0,0,1-4.987-3.422h0A4.276,4.276,0,0,1,276.279,313.227Z" transform="translate(-32.541 -32.541)" fill="#fff"/>
        </g>
      </g>
    </g>
  </g>
</svg>
