<svg xmlns="http://www.w3.org/2000/svg" viewBox="0 0 83.98 83.98"><defs><style>.cls-1,.cls-4{fill:#fff;}.cls-1{stroke:#ff4d00;stroke-width:1.5px;}.cls-1,.cls-3{stroke-miterlimit:10;}.cls-2{fill:#ff4d00;}.cls-3{fill:none;stroke:#fff;stroke-width:2px;}</style></defs><g id="Capa_2" data-name="Capa 2"><circle class="cls-1" cx="41.99" cy="41.99" r="41.24"/></g><g id="Capa_10" data-name="Capa 10"><path class="cls-2" d="M48,27.17,24,68.71a2,2,0,0,0,1.72,3h48a2,2,0,0,0,1.71-3l-24-41.54A2,2,0,0,0,48,27.17Z" transform="translate(-7.91 -7.78)"/><path class="cls-3" d="M49.19,32.65,29.84,66.57a1,1,0,0,0,.91,1.57H69.68a1.06,1.06,0,0,0,.92-1.58L51,32.64A1,1,0,0,0,49.19,32.65Z" transform="translate(-7.91 -7.78)"/><line class="cls-3" x1="41.96" y1="34.37" x2="41.96" y2="49.98"/><circle class="cls-4" cx="41.96" cy="54.15" r="1.72"/></g></svg>