<svg xmlns="http://www.w3.org/2000/svg" viewBox="0 0 83.98 83.98"><defs><style>.cls-1,.cls-2,.cls-7{fill:#fff;}.cls-1,.cls-2,.cls-5{stroke:#60269e;}.cls-1,.cls-2,.cls-3,.cls-5,.cls-6{stroke-miterlimit:10;}.cls-1{stroke-width:1.5px;}.cls-2,.cls-3{stroke-width:2px;}.cls-3,.cls-4,.cls-6{fill:#60269e;}.cls-3,.cls-6{stroke:#fff;}.cls-5{fill:none;}.cls-5,.cls-6{stroke-width:3px;}</style></defs><g id="Capa_2" data-name="Capa 2"><circle class="cls-1" cx="41.99" cy="41.99" r="41.24"/></g><g id="Capa_5" data-name="Capa 5"><path class="cls-2" d="M55.76,41.27V25.4H34.33a7.62,7.62,0,0,0-7.6,7.6V67.29a7.62,7.62,0,0,0,7.6,7.6H63.82a7.62,7.62,0,0,0,7.6-7.6V41.24Z" transform="translate(-7.91 -7.78)"/><polygon class="cls-3" points="47.4 33.8 65.83 33.77 47.4 14.86 47.4 33.8"/><rect class="cls-4" x="23.79" y="42.35" width="8.59" height="8.59" rx="3.12"/><rect class="cls-4" x="23.79" y="53.08" width="8.59" height="8.59" rx="3.12"/><line class="cls-5" x1="35.68" y1="46.64" x2="57.19" y2="46.64"/><line class="cls-5" x1="35.68" y1="57.38" x2="57.19" y2="57.38"/><circle class="cls-6" cx="57.58" cy="60.32" r="8.14"/><path class="cls-7" d="M64.52,73V69.5h-2.9V67.08h2.9v-3.5h1.93v3.5h2.9V69.5h-2.9V73Z" transform="translate(-7.91 -7.78)"/><rect class="cls-4" x="23.79" y="32.25" width="8.59" height="8.59" rx="3.12"/><line class="cls-5" x1="35.79" y1="38.41" x2="57.3" y2="38.41"/></g></svg>