<?xml version="1.0" encoding="utf-8"?>
<!-- Generator: Adobe Illustrator 24.1.2, SVG Export Plug-In . SVG Version: 6.00 Build 0)  -->
<svg version="1.1" id="Capa_1" xmlns="http://www.w3.org/2000/svg" xmlns:xlink="http://www.w3.org/1999/xlink" x="0px" y="0px"
	 viewBox="0 0 150.3 143.4" style="enable-background:new 0 0 150.3 143.4;" xml:space="preserve">
<style type="text/css">
	.st0{fill:#FFFFFF;}
</style>
<path class="st0" d="M109.1,134.1H93.4v-3.2h15.7c5.7,0,12.3-4.4,14.5-9.7l0.5-1.1c2.4-5.9,4-9.8,4.3-10.6l0-0.1c0,0,0,0,0,0l0.1,0
	h3.1v0.4c0,0.3,0,0.7-4.6,11.7l-0.5,1.1C123.9,128.9,116.1,134.1,109.1,134.1z"/>
<path class="st0" d="M79.9,0h-9.5C40.3,0.1,15.9,24.6,16,54.7v9.2h7.9v-9.2C23.9,29,44.7,8,70.4,7.9h9.5c25.7,0.1,46.5,21,46.5,46.8
	v9.2h7.9v-9.2C134.3,24.6,110,0.1,79.9,0z"/>
<path class="st0" d="M147.2,64.9c-4.1-5.1-10.9-5.6-10.9-5.6c-2.2-0.6-4.5-0.6-6.7,0c-4.8,1.3-8.2,5.7-8.2,11.7v36.3
	c0,6,3.3,10.4,8.2,11.7c2.2,0.6,4.5,0.6,6.7,0c0,0,6.8-0.4,10.9-5.6S151.3,70,147.2,64.9z"/>
<path class="st0" d="M20.6,59.3c-2.2-0.6-4.5-0.6-6.7,0c0,0-6.8,0.4-10.9,5.6s-4.1,43.5,0,48.6s10.9,5.6,10.9,5.6
	c2.2,0.6,4.5,0.6,6.7,0c4.8-1.3,8.2-5.7,8.2-11.7V71C28.8,65,25.5,60.7,20.6,59.3z"/>
<path class="st0" d="M85.2,120H73.9c-6.5,0-11.7,5.2-11.7,11.7s5.2,11.7,11.7,11.7h11.3c6.5,0,11.7-5.2,11.7-11.7S91.6,120,85.2,120
	z"/>
<path class="st0" d="M103.8,47.9H46.4c-2.9,0-5.3,2.4-5.3,5.3V78c0,2.9,2.4,5.3,5.3,5.3h8.1l2.7,9l2.9,9.7l2.9-9.7l2.7-9h38
	c2.9,0,5.3-2.4,5.3-5.3V53.3C109.1,50.3,106.7,48,103.8,47.9z M94.8,73.9H56.2c-0.7,0.2-1.4-0.3-1.6-1c-0.2-0.7,0.3-1.4,1-1.6
	c0.2,0,0.4,0,0.6,0h38.6c0.7-0.2,1.4,0.3,1.6,1c0.2,0.7-0.3,1.4-1,1.6C95.2,74,95,74,94.8,73.9z M94.8,66.8H56.2
	c-0.7,0.2-1.4-0.3-1.6-1c-0.2-0.7,0.3-1.4,1-1.6c0.2,0,0.4,0,0.6,0h38.6c0.7-0.2,1.4,0.3,1.6,1c0.2,0.7-0.3,1.4-1,1.6
	C95.2,66.8,95,66.8,94.8,66.8z M94.8,59.6H56.2c-0.7,0.2-1.4-0.3-1.6-1c-0.2-0.7,0.3-1.4,1-1.6c0.2,0,0.4,0,0.6,0h38.6
	c0.7-0.2,1.4,0.3,1.6,1c0.2,0.7-0.3,1.4-1,1.6C95.2,59.6,95,59.6,94.8,59.6z"/>
</svg>
