<svg xmlns="http://www.w3.org/2000/svg" width="150" height="150" viewBox="0 0 150 150">
  <defs>
    <style>
      .cls-1 {
        fill: #fff;
        fill-rule: evenodd;
      }
    </style>
  </defs>
  <path id="Forma_2" data-name="Forma 2" class="cls-1" d="M53.145,149.238H96.015m16.913-33.464a59.948,59.948,0,0,1-8.447,5.987,1.518,1.518,0,0,0-.666,1.832l2.522,6.98a1.521,1.521,0,0,0,.9.915,1.54,1.54,0,0,0,1.285-.1,70.825,70.825,0,0,0,8.965-5.969A69.7,69.7,0,0,0,74.58.762a72.693,72.693,0,0,0-7.963.442A69.777,69.777,0,0,0,40.643,131.391a1.53,1.53,0,0,0,.742.2l0.537-.1a1.539,1.539,0,0,0,.905-0.915l2.518-6.98a1.52,1.52,0,0,0-.665-1.832,60,60,0,0,1-8.449-5.987A59.377,59.377,0,1,1,112.928,115.774Zm-17.287-19.3a1.611,1.611,0,0,0-.5,1.79l2.74,7.586a1.615,1.615,0,0,0,1.035.994l0.481,0.07a1.6,1.6,0,0,0,.938-0.3,44.484,44.484,0,0,0,8.854-8.428A43.69,43.69,0,0,0,118.808,70.7a44.228,44.228,0,1,0-88.456,0,43.7,43.7,0,0,0,9.619,27.483,44.411,44.411,0,0,0,8.85,8.428,1.638,1.638,0,0,0,1.416.233,1.619,1.619,0,0,0,1.041-.994l2.733-7.586a1.611,1.611,0,0,0-.489-1.79,33.6,33.6,0,0,1-7.69-9A33.288,33.288,0,1,1,95.641,96.478ZM66.335,84.77L42.544,144.932H54.852L74.58,95.179l19.728,49.753h12.309L82.829,84.77A16.812,16.812,0,1,0,66.335,84.77ZM74.58,61.423a8.412,8.412,0,1,1-8.414,8.412A8.411,8.411,0,0,1,74.58,61.423Z"/>
</svg>
