<svg xmlns="http://www.w3.org/2000/svg" width="3333" height="683" viewBox="0 0 3333 683">
  <defs>
    <style>
      .cls-1 {
        fill: #fff;
        fill-rule: evenodd;
      }
    </style>
  </defs>
  <path id="Forma_1" data-name="Forma 1" class="cls-1" d="M321.415,23.061c175.751,0.067,318.172,142.69,318.1,318.558S496.924,660,321.172,659.932,3,517.242,3.067,341.375c0-.14,0-0.281,0-0.421C3.127,165.326,145.456,23,320.969,23.06h0.446ZM127.8,219.394c0.225,14.922,5.788,28.4,11.667,41.693C192.043,380.146,279.928,463.545,397.8,516.408c41.72,18.707,78.553,6.254,102.036-33.734,12.47-21.226,10.062-37.082-9.2-52.117q-24.087-18.807-49.457-35.9C413.521,376,395.8,378.316,374.784,403.907c-11,13.392-23.057,16.214-38.457,9.352-37.866-16.865-67.99-42.19-87.944-79.026-13.671-25.224-12.375-45.42,11.779-60.117,17.216-10.477,18.962-22.931,10.266-40.7a248.27,248.27,0,0,0-51.744-69.8,35.85,35.85,0,0,0-26.637-11.132C158.61,153.61,127.573,186.043,127.8,219.394ZM503.44,319.9C501.9,224.881,419.021,145.826,328.794,148.04c-7.529.188-14.583,0.992-15.312,10.223-0.8,9.894,7.183,11.2,14.074,11.545a196.667,196.667,0,0,1,40.954,7.859c48.636,12.971,83.844,41.343,100.8,89.941A192.091,192.091,0,0,1,481.42,328.83c0.1,7.817,3.433,13.692,12.5,13.4,8.925-.287,9.559-7.087,9.834-13.633A57.222,57.222,0,0,0,503.44,319.9Zm-46.2-17.094c-0.2-56.932-58.049-112.4-115.877-111.216-7.25.145-12.587,2.689-13.72,10.473-1.054,7.267,3.625,10.661,9.637,12.462,3.3,0.988,6.9.959,10.321,1.618,54.832,10.536,76.665,32.074,86.9,85.8,0.758,3.986.767,8.11,1.2,12.158,0.721,6.733,3.979,10.753,11.275,10.5s10.266-4.423,10.262-11.307q-0.009-5.257,0-10.506v0.012Zm-99.765-65.679c-6.412,1.142-14.691,1.438-16.116,11.257-1.283,8.831,5.833,10.882,12.016,11.816,22.667,3.419,34.65,16.4,37.654,38.9,0.862,6.466,4.271,12.566,12.55,11.582,9.058-1.076,10.416-8.385,10.566-15.493C414.671,269.5,383.684,237.384,357.472,237.126ZM909.406,325.4v28.81H881.953v30.148H849.687V354.213H822.221V325.4h27.466V295.25h32.266V325.4h27.453Zm91.714-13.342a66.847,66.847,0,0,1,24.8,4.536,61.152,61.152,0,0,1,19.87,12.537,55.9,55.9,0,0,1,13.06,19.217,67.673,67.673,0,0,1-.53,50.7,60.321,60.321,0,0,1-14.53,20.275,65.765,65.765,0,0,1-22.14,13.208,81.111,81.111,0,0,1-28,4.67,76.658,76.658,0,0,1-37.082-8.8,62.2,62.2,0,0,1-25.033-24.282l20.529-21.347a58.6,58.6,0,0,0,18.8,16.539,46.837,46.837,0,0,0,23.062,6.142,33.02,33.02,0,0,0,23.6-8.672,30.246,30.246,0,0,0,9.2-23.082,33.486,33.486,0,0,0-2.28-12.4,28.519,28.519,0,0,0-16.13-16.273,32.453,32.453,0,0,0-12.27-2.268,34.82,34.82,0,0,0-16.249,4A31.763,31.763,0,0,0,967.53,357.7H936.335a57.579,57.579,0,0,1,1.063-6q1.062-5.2,2.67-13.342t3.467-18.141q1.859-10.006,4-20.429,4.8-24.27,10.666-54.7h93.329v32.558H984.072l-7.467,42.423a21.078,21.078,0,0,1,9.329-5.874A46.869,46.869,0,0,1,1001.12,312.061Zm223.74,59.246a63,63,0,0,1-5.34,25.883,65.542,65.542,0,0,1-14.66,20.947,67.9,67.9,0,0,1-22,14.009,72.911,72.911,0,0,1-27.33,5.065,69.187,69.187,0,0,1-28.93-5.866,59.724,59.724,0,0,1-22.01-17.094,78.546,78.546,0,0,1-13.86-27.347,128.5,128.5,0,0,1-4.8-36.69,186.024,186.024,0,0,1,5.07-45.762,99.346,99.346,0,0,1,14.66-33.355,64.192,64.192,0,0,1,23.2-20.429,65.916,65.916,0,0,1,30.42-6.938,70.323,70.323,0,0,1,58.4,29.886l-20.53,22.414a45.3,45.3,0,0,0-16.53-15.743,44.509,44.509,0,0,0-21.87-5.6,33.956,33.956,0,0,0-28.54,14.138q-10.665,14.151-11.2,40.026a40.3,40.3,0,0,1,15.85-15.185,49.067,49.067,0,0,1,23.87-5.6,70.064,70.064,0,0,1,26,4.8,64.523,64.523,0,0,1,21.06,13.341A61.846,61.846,0,0,1,1224.86,371.307Zm-69.07,35.756a33.065,33.065,0,0,0,13.34-2.8,35.159,35.159,0,0,0,11.2-7.738,37.33,37.33,0,0,0,7.59-11.474,34.615,34.615,0,0,0,2.81-13.759,32.752,32.752,0,0,0-2.81-13.479,36.67,36.67,0,0,0-7.59-11.07,34.953,34.953,0,0,0-11.07-7.471,34.072,34.072,0,0,0-13.47-2.673,34.972,34.972,0,0,0-13.6,2.673,34.387,34.387,0,0,0-11.2,7.471,34.971,34.971,0,0,0-7.47,11.07,35.587,35.587,0,0,0,7.74,38.558,38.591,38.591,0,0,0,11.07,7.742,31.241,31.241,0,0,0,13.46,2.944v0.008Zm154.4-97.4a62.993,62.993,0,0,1,5.33-25.883,65.545,65.545,0,0,1,14.67-20.946,67.706,67.706,0,0,1,22-14.009,72.9,72.9,0,0,1,27.33-5.07,69.27,69.27,0,0,1,28.93,5.87,59.22,59.22,0,0,1,21.87,16.944,80.35,80.35,0,0,1,13.87,27.218,126.086,126.086,0,0,1,4.93,36.69,182.224,182.224,0,0,1-5.2,45.758,104.647,104.647,0,0,1-14.67,33.492,62.6,62.6,0,0,1-23.06,20.542,65.891,65.891,0,0,1-30.42,6.938,70.081,70.081,0,0,1-32.91-7.867,72.578,72.578,0,0,1-25.47-22.281l20.53-22.415a45.511,45.511,0,0,0,16.4,15.74,44.238,44.238,0,0,0,22.01,5.607,33.909,33.909,0,0,0,28.52-14.146q10.665-14.135,11.2-40.026a39.907,39.907,0,0,1-16,15.206,49.168,49.168,0,0,1-23.72,5.608,69.827,69.827,0,0,1-26.14-4.8,64.7,64.7,0,0,1-20.93-13.342,61.891,61.891,0,0,1-14-20.013A60.683,60.683,0,0,1,1310.19,309.659Zm69.06-36.022a31.306,31.306,0,0,0-13.47,2.918,36.392,36.392,0,0,0-18.4,19.079,34.782,34.782,0,0,0-2.8,13.759,32.892,32.892,0,0,0,2.8,13.475,38.209,38.209,0,0,0,7.47,11.074,32.91,32.91,0,0,0,11.07,7.471,36.047,36.047,0,0,0,27.2,0,33.841,33.841,0,0,0,11.07-7.338,36.118,36.118,0,0,0,7.46-10.94,32.576,32.576,0,0,0,2.8-13.476,34.435,34.435,0,0,0-2.8-13.758,37.4,37.4,0,0,0-7.6-11.474,37,37,0,0,0-11.2-7.872A32.147,32.147,0,0,0,1379.25,273.637Zm297.33,97.67a63,63,0,0,1-5.34,25.883,65.549,65.549,0,0,1-14.67,20.947,67.745,67.745,0,0,1-21.99,14.009,72.911,72.911,0,0,1-27.33,5.065,69.233,69.233,0,0,1-28.94-5.866,59.61,59.61,0,0,1-22-17.094,78.207,78.207,0,0,1-13.86-27.347,128.865,128.865,0,0,1-4.81-36.69,186.507,186.507,0,0,1,5.07-45.762,99.169,99.169,0,0,1,14.67-33.355,64.11,64.11,0,0,1,23.2-20.429A65.941,65.941,0,0,1,1611,243.73a70.3,70.3,0,0,1,58.39,29.886l-20.53,22.414a45.3,45.3,0,0,0-16.53-15.743,44.488,44.488,0,0,0-21.87-5.6,33.93,33.93,0,0,0-28.53,14.138q-10.68,14.151-11.2,40.026a40.181,40.181,0,0,1,15.87-15.21,49,49,0,0,1,23.86-5.6,70.046,70.046,0,0,1,26,4.8,64.6,64.6,0,0,1,21.07,13.342A61.932,61.932,0,0,1,1676.58,371.307Zm-69.07,35.756a33.048,33.048,0,0,0,13.34-2.8,35.159,35.159,0,0,0,11.2-7.738,37.33,37.33,0,0,0,7.59-11.474,34.615,34.615,0,0,0,2.81-13.759,32.752,32.752,0,0,0-2.81-13.479,36.67,36.67,0,0,0-7.59-11.07,34.885,34.885,0,0,0-11.08-7.471,33.954,33.954,0,0,0-13.46-2.673,35.008,35.008,0,0,0-13.6,2.673,34.281,34.281,0,0,0-11.2,7.471,34.586,34.586,0,0,0-7.33,38.291,35.666,35.666,0,0,0,7.6,11.337,38.454,38.454,0,0,0,11.07,7.742,31.27,31.27,0,0,0,13.46,2.944v0.008ZM1836.57,378.5a51.965,51.965,0,0,1-5.46,24.02,57.429,57.429,0,0,1-14.94,18.411,68.179,68.179,0,0,1-22,11.874,84.577,84.577,0,0,1-26.67,4.136,79.756,79.756,0,0,1-26.66-4.407,67.524,67.524,0,0,1-21.87-12.4,58.21,58.21,0,0,1-14.66-18.946,53.933,53.933,0,0,1-5.34-24.015,40.083,40.083,0,0,1,2.67-14.809,50.9,50.9,0,0,1,6.93-12.408,58.793,58.793,0,0,1,9.47-9.877,56.77,56.77,0,0,1,10.53-6.938,44.656,44.656,0,0,1-16.8-14.409,35.223,35.223,0,0,1-6.93-21.076,43.554,43.554,0,0,1,5.73-22.552,53.608,53.608,0,0,1,14.94-16.406,69.857,69.857,0,0,1,20.26-10.144,73.4,73.4,0,0,1,22-3.469,77.931,77.931,0,0,1,22,3.335,65.389,65.389,0,0,1,20.4,10.007,56.177,56.177,0,0,1,14.93,16.414,42.883,42.883,0,0,1,5.87,22.544,34.213,34.213,0,0,1-1.87,11.074,39.128,39.128,0,0,1-5.2,10.143,43.757,43.757,0,0,1-7.87,8.406,46,46,0,0,1-9.58,6.133,59.729,59.729,0,0,1,11.2,7.342,58.109,58.109,0,0,1,9.58,10.14,49.981,49.981,0,0,1,6.79,12.675A44,44,0,0,1,1836.57,378.5Zm-36.25-2.13a25.43,25.43,0,0,0-2.8-12.008,26.864,26.864,0,0,0-7.47-8.939,33.807,33.807,0,0,0-10.53-5.47,39.4,39.4,0,0,0-11.99-1.872,37.694,37.694,0,0,0-12.27,2,31.255,31.255,0,0,0-10.27,5.737,28.781,28.781,0,0,0-7.08,8.935,25.022,25.022,0,0,0-2.66,11.612,23.952,23.952,0,0,0,2.8,11.607,29.468,29.468,0,0,0,7.33,8.935,32.631,32.631,0,0,0,10.41,5.737,36.827,36.827,0,0,0,12,2,35.871,35.871,0,0,0,22.67-8,28.1,28.1,0,0,0,7.2-8.943,24.389,24.389,0,0,0,2.64-11.336h0.02Zm-59.22-77.65a19.041,19.041,0,0,0,2.4,9.736,22.292,22.292,0,0,0,6.25,6.941,29.354,29.354,0,0,0,8.53,4.27,31.385,31.385,0,0,0,9.47,1.467,31.925,31.925,0,0,0,9.33-1.467,27.418,27.418,0,0,0,8.67-4.407,23.675,23.675,0,0,0,6.25-7.088,19.152,19.152,0,0,0,2.4-9.739,18.661,18.661,0,0,0-7.87-15.744,31.013,31.013,0,0,0-19.06-5.87,29.513,29.513,0,0,0-18.67,6A19.112,19.112,0,0,0,1741.1,298.719Zm193.86,135.82V391.6h-79.72V359.554l90.93-114.473h24.51v114.21h23.47v32.287h-23.47v42.944Zm-43.75-75.248h47.73V298.986ZM2153.89,378.5a51.957,51.957,0,0,1-5.46,24.02,57.408,57.408,0,0,1-14.94,18.411,68,68,0,0,1-22,11.874,84.5,84.5,0,0,1-26.66,4.136,79.864,79.864,0,0,1-26.67-4.407,67.5,67.5,0,0,1-21.86-12.4,58.386,58.386,0,0,1-14.67-18.946,54.068,54.068,0,0,1-5.33-24.015,40.282,40.282,0,0,1,2.66-14.809,50.936,50.936,0,0,1,6.94-12.408,58.717,58.717,0,0,1,9.47-9.877,56.87,56.87,0,0,1,10.53-6.938,44.638,44.638,0,0,1-16.8-14.409,35.15,35.15,0,0,1-6.93-21.076,43.559,43.559,0,0,1,5.73-22.552,53.771,53.771,0,0,1,14.93-16.406,70.133,70.133,0,0,1,20.26-10.144,73.515,73.515,0,0,1,22.01-3.469,77.772,77.772,0,0,1,21.99,3.335,65.276,65.276,0,0,1,20.42,10.007,56.039,56.039,0,0,1,14.93,16.414,42.79,42.79,0,0,1,5.87,22.544,33.946,33.946,0,0,1-1.87,11.074,39.128,39.128,0,0,1-5.2,10.143,43.881,43.881,0,0,1-7.86,8.406,46.391,46.391,0,0,1-9.58,6.133,60.055,60.055,0,0,1,11.2,7.342,57.737,57.737,0,0,1,9.58,10.14,49.651,49.651,0,0,1,6.8,12.675A44.218,44.218,0,0,1,2153.89,378.5Zm-36.25-2.13a25.306,25.306,0,0,0-2.8-12.008,27.03,27.03,0,0,0-7.5-8.939,33.849,33.849,0,0,0-10.53-5.47,39.375,39.375,0,0,0-11.97-1.872,37.678,37.678,0,0,0-12.26,2,31.356,31.356,0,0,0-10.27,5.737,28.793,28.793,0,0,0-7.08,8.935,25.019,25.019,0,0,0-2.67,11.612,24.073,24.073,0,0,0,2.8,11.607,29.664,29.664,0,0,0,7.33,8.935,32.708,32.708,0,0,0,10.42,5.737,36.774,36.774,0,0,0,12,2,35.867,35.867,0,0,0,22.66-8,28.122,28.122,0,0,0,7.21-8.943,24.519,24.519,0,0,0,2.65-11.336h0.01Zm-59.21-77.65a19.041,19.041,0,0,0,2.4,9.736,22.292,22.292,0,0,0,6.25,6.941,29.379,29.379,0,0,0,8.53,4.27,31.482,31.482,0,0,0,9.47,1.467,31.939,31.939,0,0,0,9.33-1.467,27.354,27.354,0,0,0,8.67-4.407,23.785,23.785,0,0,0,6.25-7.088,19.052,19.052,0,0,0,2.4-9.739,18.661,18.661,0,0,0-7.87-15.744,30.986,30.986,0,0,0-19.02-5.849,29.509,29.509,0,0,0-18.66,6A19.094,19.094,0,0,0,2058.43,298.719ZM2302.42,436.94a75.591,75.591,0,0,1-39.33-9.589,51.019,51.019,0,0,1-22.54-27.488l18.94-23.478a26.57,26.57,0,0,0,3.75,8.406,39.875,39.875,0,0,0,8.13,9.072,44.282,44.282,0,0,0,12.8,7.338,53.31,53.31,0,0,0,30.94,1.2,38.174,38.174,0,0,0,11.06-4.941,24.575,24.575,0,0,0,7.6-7.867,20.591,20.591,0,0,0,2.8-10.807q0-13.609-14.4-20.284t-40.27-6.671h-8.81v-29.9h8.8a123.03,123.03,0,0,0,19.73-1.472,60.487,60.487,0,0,0,15.73-4.536,27.348,27.348,0,0,0,10.42-7.868,18.2,18.2,0,0,0,3.75-11.474,19.642,19.642,0,0,0-2.53-10.139,21.363,21.363,0,0,0-6.53-6.938,30.484,30.484,0,0,0-8.94-4,37.12,37.12,0,0,0-9.73-1.334,50.716,50.716,0,0,0-26.4,7.088,39.979,39.979,0,0,0-8.67,6.938,41.2,41.2,0,0,0-5.73,7.6l-22.92-25.883a50.36,50.36,0,0,1,11.44-11.49,72.086,72.086,0,0,1,15.46-8.535,99.49,99.49,0,0,1,17.87-5.328,95.339,95.339,0,0,1,18.67-1.864,84.135,84.135,0,0,1,26.53,4,66.087,66.087,0,0,1,20.93,11.069,51.921,51.921,0,0,1,13.75,16.548,43.624,43.624,0,0,1,4.94,20.43,36.949,36.949,0,0,1-9.58,26.267,49.617,49.617,0,0,1-26.14,14.013,47.661,47.661,0,0,1,16.4,6,46.522,46.522,0,0,1,12.54,10.941,49.214,49.214,0,0,1,8,14.676,51.942,51.942,0,0,1,2.8,16.944,44.312,44.312,0,0,1-6.14,23.615,52.028,52.028,0,0,1-16.13,16.544,76.477,76.477,0,0,1-22.8,9.873A103.467,103.467,0,0,1,2302.42,436.94Zm176.52,0.263A71.239,71.239,0,0,1,2443.35,428a84.631,84.631,0,0,1-25.73-22.931,101.2,101.2,0,0,1-15.6-30.949,112.04,112.04,0,0,1-5.2-32.958,107.782,107.782,0,0,1,5.73-34.285,103.15,103.15,0,0,1,16.4-30.953,85.186,85.186,0,0,1,25.87-22.28,73.206,73.206,0,0,1,69.86.662,86.947,86.947,0,0,1,25.87,23.349,103.349,103.349,0,0,1,15.6,31.086,110.769,110.769,0,0,1,5.19,32.417,107.509,107.509,0,0,1-5.73,34.426,103.8,103.8,0,0,1-16.4,30.819,85.2,85.2,0,0,1-25.87,22.281A68.963,68.963,0,0,1,2478.94,437.2Zm-45.06-96.061a102.732,102.732,0,0,0,3.06,22.414,75.808,75.808,0,0,0,8.27,20.43,46.713,46.713,0,0,0,13.87,14.943,37.34,37.34,0,0,0,40.41-.417,49.293,49.293,0,0,0,14-15.61,77.2,77.2,0,0,0,8.13-20.547,90.342,90.342,0,0,0,2.67-21.217,88.756,88.756,0,0,0-2.91-22.414,76.4,76.4,0,0,0-8.54-20.409,47.482,47.482,0,0,0-14.13-14.943,34.557,34.557,0,0,0-19.74-5.737,33.78,33.78,0,0,0-20.26,6.137,49.24,49.24,0,0,0-14,15.61,76.275,76.275,0,0,0-8.14,20.68A91.356,91.356,0,0,0,2433.88,341.142Zm149.6,93.4a179.468,179.468,0,0,1,2.52-32.154,80.111,80.111,0,0,1,8.27-24.149,62.991,62.991,0,0,1,15.07-18.149,115.794,115.794,0,0,1,22.92-14.4q8.79-4.264,17.33-8.138a87.114,87.114,0,0,0,15.47-8.939,44.539,44.539,0,0,0,11.19-11.612,28.307,28.307,0,0,0,4.27-15.872,25.276,25.276,0,0,0-7.33-19.079,28.585,28.585,0,0,0-20.67-7.088,47.39,47.39,0,0,0-14.26,2.139,64.751,64.751,0,0,0-12.67,5.466,73.745,73.745,0,0,0-10.67,7.338,90.46,90.46,0,0,0-8.26,7.742l-22.39-23.477a71.85,71.85,0,0,1,10.14-9.74,92.363,92.363,0,0,1,15.86-10.273,110.3,110.3,0,0,1,20.94-8.138,94.37,94.37,0,0,1,25.86-3.336,80.662,80.662,0,0,1,27.34,4.27,57.2,57.2,0,0,1,20,11.874,48.963,48.963,0,0,1,12.27,18.278,64.674,64.674,0,0,1,4.13,23.482,52.288,52.288,0,0,1-13.75,37.086,67.366,67.366,0,0,1-14.67,12.141,180.086,180.086,0,0,1-18,9.739q-10.125,5.079-18.27,9.74a84.663,84.663,0,0,0-13.86,9.744,39.964,39.964,0,0,0-8.8,10.673,25.747,25.747,0,0,0-3.07,12.541h90.69v32.288Zm230.39-122.478a66.9,66.9,0,0,1,24.8,4.536,61.075,61.075,0,0,1,19.86,12.537,55.745,55.745,0,0,1,13.06,19.217,67.577,67.577,0,0,1-.53,50.7,60.046,60.046,0,0,1-14.53,20.275,65.624,65.624,0,0,1-22.13,13.208,81.166,81.166,0,0,1-28,4.67,76.648,76.648,0,0,1-37.08-8.8,62.224,62.224,0,0,1-25.07-24.282l20.53-21.347a58.691,58.691,0,0,0,18.8,16.539,46.867,46.867,0,0,0,23.07,6.142,32.968,32.968,0,0,0,23.59-8.672,30.219,30.219,0,0,0,9.21-23.082,33.345,33.345,0,0,0-2.27-12.412,28.746,28.746,0,0,0-6.4-9.869,29.049,29.049,0,0,0-9.73-6.4,32.456,32.456,0,0,0-12.27-2.268,34.825,34.825,0,0,0-16.25,4,31.767,31.767,0,0,0-12.27,10.94h-31.2a58.133,58.133,0,0,1,1.07-6q1.065-5.2,2.67-13.342t3.46-18.14q1.875-10.007,4-20.43,4.8-24.27,10.67-54.7h93.33v32.558H2796.8l-7.47,42.435a21.188,21.188,0,0,1,9.33-5.879A46.955,46.955,0,0,1,2813.87,312.061Z"/>
</svg>
