<?xml version="1.0" encoding="utf-8"?>
<!-- Generator: Adobe Illustrator 24.1.2, SVG Export Plug-In . SVG Version: 6.00 Build 0)  -->
<svg version="1.1" id="Capa_1" xmlns="http://www.w3.org/2000/svg" xmlns:xlink="http://www.w3.org/1999/xlink" x="0px" y="0px"
	 viewBox="0 0 309 68.6" style="enable-background:new 0 0 309 68.6;" xml:space="preserve">
<style type="text/css">
	.st0{clip-path:url(#SVGID_2_);}
	.st1{fill-rule:evenodd;clip-rule:evenodd;fill:#FFFFFF;}
</style>
<g>
	<g>
		<defs>
			<rect id="SVGID_1_" x="-11.5" width="224" height="68.6"/>
		</defs>
		<clipPath id="SVGID_2_">
			<use xlink:href="#SVGID_1_"  style="overflow:visible;"/>
		</clipPath>
		<g class="st0">
			<path id="Forma_1" class="st1" d="M0.7,34C0.9,16.4,15.3,2.2,33,2.4C50.6,2.6,64.8,17,64.7,34.6C64.5,52.2,50,66.4,32.4,66.2
				C15,66.1,0.9,52,0.7,34.6V34z M35.7,29.1c0-0.5,0-1,0-1.5c0.3-1.5-0.4-1.8-1.8-1.7c-1.4,0.1-2.8,0.1-4.2,0c-1,0-1.3,0.3-1.3,1.3
				V50c0,1.1,0.4,1.5,1.5,1.4h4.8c1.1,0,1.5-0.3,1.5-1.4V39c0-1.1,0.1-2.2,0.3-3.3c0.4-2,2.2-3.5,4.3-3.4c2-0.1,3.8,1.4,4,3.5
				c0.2,0.9,0.3,1.7,0.3,2.6v11.7c0,1,0.3,1.3,1.3,1.3h5.3c0.7,0,1.2-0.1,1.2-1C52.8,45,53,39.5,52.7,34.1c-0.3-4.6-2.4-7.1-6.1-7.8
				C42.7,25.3,38.6,26.3,35.7,29.1L35.7,29.1L35.7,29.1z M14.6,38.7v11.6c0,1,0.3,1.3,1.3,1.3h6.5c0.9,0,1.2-0.3,1.2-1.2V27.1
				c0-0.8-0.3-1.1-1.2-1.1h-6.5c-1.1,0-1.5,0.3-1.4,1.4C14.7,31.1,14.6,34.9,14.6,38.7L14.6,38.7z M14.6,17.9
				c-0.1,2.5,1.8,4.6,4.3,4.8c2.5,0.1,4.6-1.7,4.7-4.2l0,0c0-0.2,0-0.3,0-0.5c-0.1-2.4-2.1-4.4-4.5-4.5
				C16.6,13.4,14.6,15.4,14.6,17.9L14.6,17.9z M87.2,28.9v11.8h-3.6V22.3h2.8L96,34.4V22.3h3.6v18.4h-2.9L87.2,28.9z M109.3,41
				c-1,0-2-0.2-3-0.6c-1.7-0.7-3-2-3.7-3.8c-0.3-0.9-0.5-1.8-0.5-2.7s0.2-1.9,0.5-2.7s0.8-1.6,1.4-2.3c0.6-0.7,1.4-1.2,2.3-1.5
				c1-0.4,2-0.6,3-0.6s2,0.2,3,0.6c0.8,0.4,1.6,0.9,2.2,1.5s1.1,1.4,1.4,2.2c0.3,0.8,0.5,1.7,0.5,2.7c0,0.2,0,0.4,0,0.6
				c0,0.2,0,0.3-0.1,0.5h-10.6c0,0.5,0.2,1,0.4,1.4c0.4,0.8,1.1,1.4,1.9,1.7c0.4,0.2,0.9,0.2,1.3,0.2c0.7,0,1.4-0.2,2-0.5
				s1-0.8,1.3-1.3l3,0.8c-0.5,1.1-1.4,2-2.4,2.6C112.1,40.7,110.7,41.1,109.3,41L109.3,41z M112.9,32.8c0-0.9-0.5-1.8-1.1-2.5
				c-1-0.9-2.5-1.2-3.8-0.7c-0.4,0.2-0.8,0.4-1.1,0.7c-0.3,0.3-0.6,0.7-0.8,1.1c-0.2,0.4-0.3,0.9-0.4,1.4H112.9L112.9,32.8z
				 M120.3,27.1l2.9,4.3l0.2,0.5l0.3-0.5l2.9-4.3h3.6l-4.9,6.8l5,6.8h-3.6l-3-4.2l-0.2-0.4l-0.2,0.4l-3,4.2h-3.6l4.9-6.8l-4.8-6.8
				L120.3,27.1L120.3,27.1z M135.9,28.9v11.8h-3.6V22.3h2.8l9.6,12.1V22.3h3.6v18.4h-2.9L135.9,28.9z M158,41c-1,0-2-0.2-3-0.6
				c-1.7-0.7-3-2-3.7-3.8c-0.3-0.9-0.5-1.8-0.5-2.7s0.2-1.9,0.5-2.7s0.8-1.6,1.4-2.3c0.6-0.7,1.4-1.2,2.3-1.5c1-0.4,2-0.6,3-0.6
				s2,0.2,3,0.6c0.8,0.4,1.6,0.9,2.2,1.5c0.6,0.6,1.1,1.4,1.4,2.2c0.3,0.8,0.5,1.7,0.5,2.7c0,0.2,0,0.4,0,0.6c0,0.2,0,0.3-0.1,0.5
				h-10.6c0,0.5,0.2,1,0.4,1.4c0.4,0.8,1.1,1.4,1.9,1.7c0.4,0.2,0.9,0.2,1.3,0.2c0.7,0,1.4-0.2,2-0.5s1-0.8,1.3-1.3l3,0.8
				c-0.5,1.1-1.4,2-2.4,2.6C160.7,40.7,159.4,41.1,158,41L158,41L158,41z M161.5,32.8c-0.1-2-1.7-3.5-3.7-3.4
				c-0.4,0-0.8,0.1-1.2,0.3c-0.4,0.2-0.8,0.4-1.1,0.7c-0.3,0.3-0.6,0.7-0.8,1.1s-0.3,0.9-0.4,1.4L161.5,32.8L161.5,32.8z
				 M179.4,40.8l-2.6-8.2l-2.6,8.2h-3.8l-4.7-13.6h3.6l3.1,9.5l2.7-9.5h3.3l2.7,9.5l3.1-9.5h3.6l-4.7,13.6L179.4,40.8L179.4,40.8z
				 M194.7,41c-1.1,0-2.3-0.2-3.4-0.5c-1-0.3-2-0.9-2.8-1.6l1.3-2.2c0.8,0.5,1.6,1,2.4,1.3c0.8,0.3,1.6,0.5,2.4,0.5
				c0.6,0,1.1-0.1,1.6-0.4c0.4-0.2,0.6-0.7,0.6-1.1c0-0.5-0.3-0.9-0.7-1.1c-0.7-0.3-1.5-0.6-2.3-0.8c-0.9-0.2-1.6-0.5-2.3-0.7
				c-0.5-0.2-1-0.4-1.5-0.8c-0.4-0.3-0.6-0.6-0.8-1s-0.3-0.9-0.3-1.3c0-0.6,0.1-1.3,0.4-1.9c0.3-0.6,0.7-1,1.1-1.4
				c0.5-0.4,1.1-0.7,1.7-0.9c0.7-0.2,1.4-0.3,2.1-0.3c1,0,1.9,0.1,2.9,0.4c0.9,0.3,1.7,0.8,2.5,1.4l-1.4,2.1c-0.6-0.5-1.3-0.9-2-1.1
				c-0.6-0.2-1.3-0.4-1.9-0.4c-0.5,0-1,0.1-1.5,0.4c-0.4,0.2-0.6,0.7-0.6,1.2c0,0.2,0,0.4,0.1,0.6s0.3,0.3,0.5,0.4
				c0.3,0.1,0.5,0.3,0.8,0.4s0.8,0.2,1.3,0.4c0.9,0.2,1.7,0.5,2.4,0.7c0.6,0.2,1.1,0.5,1.6,0.8c0.4,0.3,0.7,0.6,0.9,1.1
				s0.3,1,0.3,1.5c0,1.2-0.5,2.4-1.5,3.2C197.7,40.6,196.4,41,194.7,41L194.7,41z"/>
		</g>
	</g>
</g>
</svg>
