<?xml version="1.0" encoding="utf-8"?>
<!-- Generator: Adobe Illustrator 24.1.2, SVG Export Plug-In . SVG Version: 6.00 Build 0)  -->
<svg version="1.1" id="Capa_1" xmlns="http://www.w3.org/2000/svg" xmlns:xlink="http://www.w3.org/1999/xlink" x="0px" y="0px"
	 viewBox="0 0 800 164" style="enable-background:new 0 0 800 164;" xml:space="preserve">
<style type="text/css">
	.st0{clip-path:url(#SVGID_2_);}
	.st1{fill-rule:evenodd;clip-rule:evenodd;fill:#FFFFFF;}
</style>
<g>
	<defs>
		<rect id="SVGID_1_" y="5.5" width="800" height="153"/>
	</defs>
	<clipPath id="SVGID_2_">
		<use xlink:href="#SVGID_1_"  style="overflow:visible;"/>
	</clipPath>
	<g class="st0">
		<path id="Forma_6_1_" class="st1" d="M80.7,42.8c-26.1-0.1-46.4,28.4-32.4,54c2.1,3.1,2.4,7,0.8,10.4c-1,2.1-3.1,5-1.8,6.4
			c1.6,1.7,4.6-0.4,6.8-1.2c3.8-1.6,8.2-1.3,11.8,0.8c18.5,8.5,40.4,0.4,48.9-18.1s0.4-40.4-18.1-48.9
			C91.8,43.8,86.3,42.7,80.7,42.8L80.7,42.8L80.7,42.8z M101.8,96.6c-2.6,3.1-6.6,4.5-10.5,3.7C77.9,97.6,66.7,88.6,61,76.2
			C58.4,71.7,58.8,66,62.1,62c1-1.7,3-2.7,5-2.4c1.8-0.5,3.6,0.6,4,2.3c0,0,0,0,0,0c0,0.1,0,0.1,0,0.2c0.5,1.7,1.2,3.4,2.1,5
			c1.6,2.1,1.3,5.1-0.8,6.8c-1.9,1.7-1.6,3.2-0.2,5.1c2.9,4.1,6.7,7.5,11.2,9.9c2.7,1.4,4.8,1.4,6.3-1.4c1.8-3.2,4.1-3.2,6.9-1.5
			c1.1,0.6,2.2,1.1,3.4,1.7c2.7,0.7,4.3,3.4,3.6,6.1C103.4,94.9,102.7,95.9,101.8,96.6L101.8,96.6z M82.1,5.6
			C39.9,4.3,4.7,37.5,3.4,79.7s31.9,77.5,74.1,78.8c42.2,1.3,77.5-31.9,78.8-74.1c0,0,0-0.1,0-0.1v0c0-0.7,0-1.4,0-2.1
			C156.2,40.9,123.4,7,82.1,5.6L82.1,5.6z M88.2,123.4c-8.9,1.6-18,0.2-26-3.9c-1.7-0.9-3.7-1.1-5.5-0.4c-7.1,2.5-14.3,4.7-21.8,7.1
			c2.6-7.8,4.9-15.1,7.5-22.2c0.5-1.5-0.1-2.3-0.7-3.4c-3.6-6.4-5.5-13.6-5.4-20.9c0.2-12,5.2-23.4,13.8-31.8
			c17.9-17,46.2-16.4,63.2,1.5c8.3,8.7,12.8,20.4,12.3,32.4C124.2,102.6,108.8,119.9,88.2,123.4L88.2,123.4L88.2,123.4z M220.2,76.9
			v6.7h-6.4v7h-7.5v-7h-6.4v-6.7h6.4v-7h7.5v7H220.2z M241.5,73.8c2.1,0,4,0.4,5.8,1.1c1.8,0.7,3.3,1.7,4.6,2.9
			c1.3,1.2,2.3,2.7,3,4.5c0.7,1.7,1.1,3.6,1.1,5.7c0,2.2-0.4,4.3-1.2,6.1c-0.8,1.8-1.9,3.4-3.4,4.7c-1.4,1.3-3.2,2.3-5.1,3.1
			s-4.2,1.1-6.5,1.1c-3.2,0-6.1-0.7-8.6-2c-2.5-1.4-4.5-3.2-5.8-5.6l4.8-5c1.2,1.6,2.7,2.9,4.4,3.8c1.7,1,3.5,1.4,5.4,1.4
			c2.2,0,4.1-0.7,5.5-2c1.4-1.3,2.1-3.1,2.1-5.4c0-1-0.2-2-0.5-2.9c-0.4-0.9-0.8-1.7-1.5-2.3c-0.6-0.6-1.4-1.1-2.3-1.5
			c-0.9-0.4-1.8-0.5-2.9-0.5c-1.3,0-2.6,0.3-3.8,0.9c-1.2,0.6-2.1,1.5-2.9,2.5h-7.3c0-0.1,0.1-0.6,0.2-1.4c0.2-0.8,0.4-1.8,0.6-3.1
			c0.2-1.3,0.5-2.7,0.8-4.2c0.3-1.6,0.6-3.1,0.9-4.7c0.7-3.8,1.6-8,2.5-12.7h21.7v7.6h-15.7l-1.7,9.9c0.5-0.6,1.2-1,2.2-1.4
			C238.9,74,240.1,73.8,241.5,73.8z M293.5,87.6c0,2.1-0.4,4.2-1.2,6c-0.8,1.9-2,3.5-3.4,4.9c-1.4,1.4-3.2,2.5-5.1,3.3
			c-2,0.8-4.1,1.2-6.4,1.2c-2.5,0-4.7-0.5-6.7-1.4c-2-0.9-3.7-2.2-5.1-4c-1.4-1.7-2.5-3.9-3.2-6.4c-0.7-2.5-1.1-5.3-1.1-8.5
			c0-4,0.4-7.6,1.2-10.6c0.8-3.1,1.9-5.7,3.4-7.8c1.5-2.1,3.3-3.7,5.4-4.7c2.1-1.1,4.5-1.6,7.1-1.6c2.8,0,5.3,0.6,7.7,1.8
			c2.3,1.2,4.3,2.9,5.9,5.1l-4.8,5.2c-1-1.6-2.3-2.8-3.8-3.7c-1.6-0.9-3.3-1.3-5.1-1.3c-2.8,0-5,1.1-6.6,3.3
			c-1.7,2.2-2.5,5.3-2.6,9.3c0.9-1.5,2.1-2.7,3.7-3.5c1.6-0.9,3.4-1.3,5.5-1.3c2.1,0,4.2,0.4,6,1.1c1.9,0.7,3.5,1.8,4.9,3.1
			c1.4,1.3,2.5,2.9,3.3,4.7C293.1,83.6,293.5,85.5,293.5,87.6z M277.5,95.9c1.1,0,2.1-0.2,3.1-0.7c1-0.4,1.9-1,2.6-1.8
			c0.7-0.8,1.3-1.7,1.8-2.7c0.4-1,0.7-2.1,0.7-3.2c0-1.1-0.2-2.2-0.7-3.1c-0.4-1-1-1.8-1.8-2.6c-0.7-0.7-1.6-1.3-2.6-1.7
			c-1-0.4-2-0.6-3.1-0.6c-1.1,0-2.2,0.2-3.2,0.6c-1,0.4-1.9,1-2.6,1.7s-1.3,1.6-1.7,2.6c-0.4,1-0.6,2-0.6,3.1c0,1.1,0.2,2.2,0.7,3.2
			c0.4,1,1,1.9,1.8,2.6c0.7,0.7,1.6,1.3,2.6,1.8C275.3,95.6,276.4,95.9,277.5,95.9z M313.4,73.2c0-2.1,0.4-4.2,1.2-6
			c0.8-1.9,2-3.5,3.4-4.9c1.4-1.4,3.2-2.5,5.1-3.3c2-0.8,4.1-1.2,6.4-1.2c2.5,0,4.7,0.5,6.7,1.4c2,0.9,3.7,2.2,5.1,3.9
			c1.4,1.7,2.5,3.8,3.2,6.3c0.8,2.5,1.1,5.3,1.1,8.5c0,4-0.4,7.6-1.2,10.6c-0.8,3.1-1.9,5.7-3.4,7.8c-1.5,2.1-3.3,3.7-5.4,4.8
			c-2.1,1.1-4.5,1.6-7.1,1.6c-2.8,0-5.3-0.6-7.7-1.8c-2.3-1.2-4.3-2.9-5.9-5.2l4.8-5.2c1,1.6,2.3,2.8,3.8,3.7
			c1.5,0.9,3.3,1.3,5.1,1.3c2.8,0,5-1.1,6.6-3.3c1.7-2.2,2.5-5.3,2.6-9.3c-0.9,1.5-2.1,2.7-3.7,3.5s-3.5,1.3-5.5,1.3
			c-2.2,0-4.2-0.4-6.1-1.1c-1.9-0.7-3.5-1.8-4.9-3.1c-1.4-1.3-2.5-2.9-3.3-4.6C313.8,77.2,313.4,75.3,313.4,73.2z M329.4,64.9
			c-1.1,0-2.2,0.2-3.1,0.7c-1,0.5-1.8,1.1-2.5,1.8c-0.7,0.7-1.3,1.6-1.7,2.6c-0.4,1-0.7,2.1-0.7,3.2c0,1.1,0.2,2.2,0.7,3.1
			c0.4,1,1,1.8,1.7,2.6c0.7,0.7,1.6,1.3,2.6,1.7c1,0.4,2,0.6,3.2,0.6c1.1,0,2.2-0.2,3.2-0.6c1-0.4,1.8-1,2.6-1.7
			c0.7-0.7,1.3-1.6,1.7-2.5c0.4-1,0.7-2,0.7-3.1c0-1.1-0.2-2.2-0.7-3.2c-0.4-1-1-1.9-1.8-2.7c-0.7-0.8-1.6-1.4-2.6-1.8
			C331.6,65.1,330.5,64.9,329.4,64.9z M398.6,87.6c0,2.1-0.4,4.2-1.2,6c-0.8,1.9-2,3.5-3.4,4.9c-1.4,1.4-3.2,2.5-5.1,3.3
			c-2,0.8-4.1,1.2-6.4,1.2c-2.5,0-4.7-0.5-6.7-1.4c-2-0.9-3.7-2.2-5.1-4c-1.4-1.7-2.5-3.9-3.2-6.4c-0.7-2.5-1.1-5.3-1.1-8.5
			c0-4,0.4-7.6,1.2-10.6c0.8-3.1,1.9-5.7,3.4-7.8c1.5-2.1,3.3-3.7,5.4-4.7c2.1-1.1,4.5-1.6,7.1-1.6c2.8,0,5.3,0.6,7.7,1.8
			c2.3,1.2,4.3,2.9,5.9,5.1l-4.8,5.2c-1-1.6-2.3-2.8-3.8-3.7c-1.6-0.9-3.3-1.3-5.1-1.3c-2.8,0-5,1.1-6.6,3.3
			c-1.7,2.2-2.5,5.3-2.6,9.3c0.9-1.5,2.1-2.7,3.7-3.5c1.6-0.9,3.4-1.3,5.5-1.3c2.1,0,4.2,0.4,6,1.1c1.9,0.7,3.5,1.8,4.9,3.1
			c1.4,1.3,2.5,2.9,3.3,4.7C398.2,83.6,398.6,85.5,398.6,87.6z M382.5,95.9c1.1,0,2.1-0.2,3.1-0.7c1-0.4,1.9-1,2.6-1.8
			c0.7-0.8,1.3-1.7,1.8-2.7c0.4-1,0.7-2.1,0.7-3.2c0-1.1-0.2-2.2-0.7-3.1c-0.4-1-1-1.8-1.8-2.6c-0.7-0.7-1.6-1.3-2.6-1.7
			c-1-0.4-2-0.6-3.1-0.6c-1.1,0-2.2,0.2-3.2,0.6c-1,0.4-1.9,1-2.6,1.7s-1.3,1.6-1.7,2.6c-0.4,1-0.6,2-0.6,3.1c0,1.1,0.2,2.2,0.7,3.2
			c0.4,1,1,1.9,1.8,2.6c0.7,0.7,1.6,1.3,2.6,1.8C380.3,95.6,381.4,95.9,382.5,95.9z M435.8,89.2c0,2.1-0.4,3.9-1.3,5.6
			c-0.8,1.7-2,3.1-3.5,4.3c-1.5,1.2-3.2,2.1-5.1,2.8c-1.9,0.6-4,1-6.2,1c-2.2,0-4.3-0.3-6.2-1c-1.9-0.7-3.6-1.6-5.1-2.9
			c-1.4-1.2-2.6-2.7-3.4-4.4c-0.8-1.7-1.2-3.6-1.2-5.6c0-1.2,0.2-2.4,0.6-3.4s1-2,1.6-2.9c0.7-0.9,1.4-1.6,2.2-2.3
			c0.8-0.7,1.6-1.2,2.4-1.6c-1.5-0.7-2.8-1.9-3.9-3.3c-1.1-1.5-1.6-3.1-1.6-4.9c0-2,0.4-3.7,1.3-5.2c0.9-1.5,2-2.8,3.5-3.8
			c1.4-1,3-1.8,4.7-2.4c1.7-0.5,3.4-0.8,5.1-0.8c1.7,0,3.4,0.3,5.1,0.8c1.8,0.5,3.3,1.3,4.7,2.3c1.4,1,2.6,2.3,3.5,3.8
			c0.9,1.5,1.4,3.3,1.4,5.2c0,0.9-0.1,1.7-0.4,2.6c-0.3,0.8-0.7,1.6-1.2,2.4c-0.5,0.7-1.1,1.4-1.8,2c-0.7,0.6-1.4,1.1-2.2,1.4
			c0.9,0.5,1.8,1,2.6,1.7c0.8,0.7,1.6,1.5,2.2,2.4c0.7,0.9,1.2,1.9,1.6,2.9C435.6,86.8,435.8,88,435.8,89.2z M427.3,88.7
			c0-1-0.2-2-0.7-2.8c-0.4-0.8-1-1.5-1.7-2.1c-0.7-0.6-1.5-1-2.4-1.3c-0.9-0.3-1.8-0.4-2.8-0.4c-1,0-1.9,0.2-2.9,0.5
			s-1.7,0.8-2.4,1.3c-0.7,0.6-1.2,1.3-1.6,2.1c-0.4,0.8-0.6,1.7-0.6,2.7c0,1,0.2,1.9,0.7,2.7c0.4,0.8,1,1.5,1.7,2.1
			c0.7,0.6,1.5,1,2.4,1.3s1.8,0.5,2.8,0.5c1,0,1.9-0.2,2.9-0.5c0.9-0.3,1.7-0.8,2.4-1.4c0.7-0.6,1.3-1.3,1.7-2.1
			C427.1,90.6,427.3,89.7,427.3,88.7z M413.6,70.7c0,0.9,0.2,1.6,0.6,2.3c0.4,0.6,0.9,1.2,1.5,1.6c0.6,0.4,1.3,0.8,2,1
			c0.7,0.2,1.5,0.3,2.2,0.3c0.7,0,1.4-0.1,2.2-0.3c0.7-0.2,1.4-0.6,2-1c0.6-0.5,1.1-1,1.5-1.6c0.4-0.6,0.6-1.4,0.6-2.3
			c0-1.5-0.6-2.7-1.8-3.7c-1.2-0.9-2.7-1.4-4.4-1.4c-1.7,0-3.1,0.5-4.3,1.4C414.2,67.9,413.6,69.2,413.6,70.7z M458.6,102.3v-10
			h-18.5v-7.4l21.1-26.6h5.7v26.5h5.5v7.5h-5.5v10H458.6z M448.5,84.8h11.1v-14L448.5,84.8z M509.5,89.2c0,2.1-0.4,3.9-1.3,5.6
			c-0.8,1.7-2,3.1-3.5,4.3c-1.5,1.2-3.2,2.1-5.1,2.8c-1.9,0.6-4,1-6.2,1c-2.2,0-4.3-0.3-6.2-1c-1.9-0.7-3.6-1.6-5.1-2.9
			c-1.4-1.2-2.6-2.7-3.4-4.4c-0.8-1.7-1.2-3.6-1.2-5.6c0-1.2,0.2-2.4,0.6-3.4s1-2,1.6-2.9c0.7-0.9,1.4-1.6,2.2-2.3
			c0.8-0.7,1.6-1.2,2.4-1.6c-1.5-0.7-2.8-1.9-3.9-3.3c-1.1-1.5-1.6-3.1-1.6-4.9c0-2,0.4-3.7,1.3-5.2c0.9-1.5,2-2.8,3.5-3.8
			c1.4-1,3-1.8,4.7-2.4c1.7-0.5,3.4-0.8,5.1-0.8c1.7,0,3.4,0.3,5.1,0.8c1.8,0.5,3.3,1.3,4.7,2.3c1.4,1,2.6,2.3,3.5,3.8
			c0.9,1.5,1.4,3.3,1.4,5.2c0,0.9-0.1,1.7-0.4,2.6c-0.3,0.8-0.7,1.6-1.2,2.4c-0.5,0.7-1.1,1.4-1.8,2c-0.7,0.6-1.4,1.1-2.2,1.4
			c0.9,0.5,1.8,1,2.6,1.7c0.8,0.7,1.6,1.5,2.2,2.4c0.7,0.9,1.2,1.9,1.6,2.9C509.3,86.8,509.5,88,509.5,89.2z M501.1,88.7
			c0-1-0.2-2-0.7-2.8c-0.4-0.8-1-1.5-1.7-2.1c-0.7-0.6-1.5-1-2.4-1.3c-0.9-0.3-1.8-0.4-2.8-0.4c-1,0-1.9,0.2-2.9,0.5
			s-1.7,0.8-2.4,1.3c-0.7,0.6-1.2,1.3-1.6,2.1c-0.4,0.8-0.6,1.7-0.6,2.7c0,1,0.2,1.9,0.7,2.7c0.4,0.8,1,1.5,1.7,2.1
			c0.7,0.6,1.5,1,2.4,1.3s1.8,0.5,2.8,0.5c1,0,1.9-0.2,2.9-0.5c0.9-0.3,1.7-0.8,2.4-1.4c0.7-0.6,1.3-1.3,1.7-2.1
			C500.9,90.6,501.1,89.7,501.1,88.7z M487.3,70.7c0,0.9,0.2,1.6,0.6,2.3c0.4,0.6,0.9,1.2,1.5,1.6c0.6,0.4,1.3,0.8,2,1
			c0.7,0.2,1.5,0.3,2.2,0.3c0.7,0,1.4-0.1,2.2-0.3c0.7-0.2,1.4-0.6,2-1c0.6-0.5,1.1-1,1.5-1.6c0.4-0.6,0.6-1.4,0.6-2.3
			c0-1.5-0.6-2.7-1.8-3.7c-1.2-0.9-2.7-1.4-4.4-1.4c-1.7,0-3.1,0.5-4.3,1.4C487.9,67.9,487.3,69.2,487.3,70.7z M544.1,102.8
			c-3.6,0-6.6-0.7-9.1-2.2c-2.5-1.5-4.2-3.6-5.2-6.4l4.4-5.5c0.1,0.6,0.4,1.2,0.9,2c0.5,0.7,1.1,1.4,1.9,2.1s1.8,1.3,3,1.7
			c1.2,0.5,2.6,0.7,4.1,0.7c1.1,0,2.1-0.1,3.1-0.4c1-0.3,1.8-0.7,2.6-1.1c0.7-0.5,1.3-1.1,1.8-1.8c0.4-0.7,0.7-1.6,0.7-2.5
			c0-2.1-1.1-3.7-3.3-4.7c-2.2-1-5.4-1.6-9.4-1.6h-2v-6.9h2c1.7,0,3.2-0.1,4.6-0.3c1.4-0.2,2.6-0.6,3.7-1.1c1-0.5,1.8-1.1,2.4-1.8
			c0.6-0.7,0.9-1.6,0.9-2.7c0-0.9-0.2-1.7-0.6-2.4c-0.4-0.7-0.9-1.2-1.5-1.6c-0.6-0.4-1.3-0.7-2.1-0.9c-0.8-0.2-1.5-0.3-2.3-0.3
			c-1.2,0-2.4,0.2-3.4,0.5c-1,0.3-1.9,0.7-2.7,1.2c-0.8,0.5-1.5,1-2,1.6c-0.6,0.6-1,1.2-1.3,1.8l-5.3-6c0.7-1,1.6-1.9,2.7-2.7
			c1.1-0.8,2.3-1.4,3.6-2c1.3-0.5,2.7-1,4.2-1.2c1.4-0.3,2.9-0.4,4.3-0.4c2.2,0,4.3,0.3,6.2,0.9s3.5,1.5,4.9,2.6
			c1.4,1.1,2.4,2.4,3.2,3.8c0.8,1.5,1.1,3,1.1,4.7c0,2.5-0.7,4.5-2.2,6.1c-1.5,1.6-3.5,2.7-6.1,3.3c1.4,0.2,2.7,0.7,3.8,1.4
			s2.1,1.5,2.9,2.5c0.8,1,1.4,2.1,1.9,3.4c0.4,1.3,0.7,2.6,0.7,3.9c0,2.1-0.5,3.9-1.4,5.5c-1,1.5-2.2,2.8-3.8,3.8
			c-1.5,1-3.3,1.8-5.3,2.3C548.2,102.6,546.1,102.8,544.1,102.8z M585.1,102.9c-3.1,0-5.9-0.8-8.3-2.1c-2.4-1.4-4.4-3.2-6-5.3
			c-1.6-2.2-2.8-4.6-3.6-7.2c-0.8-2.6-1.2-5.2-1.2-7.7c0-2.6,0.4-5.3,1.3-8s2.2-5.1,3.8-7.2c1.7-2.1,3.7-3.9,6-5.2
			c2.4-1.3,5-2,7.9-2c3.1,0,5.9,0.7,8.3,2.1c2.4,1.4,4.4,3.2,6,5.4c1.6,2.2,2.8,4.6,3.6,7.2c0.8,2.6,1.2,5.1,1.2,7.5
			c0,2.7-0.4,5.4-1.3,8c-0.9,2.6-2.2,5-3.8,7.2c-1.7,2.1-3.7,3.9-6,5.2C590.8,102.2,588.1,102.9,585.1,102.9z M574.6,80.6
			c0,1.7,0.3,3.5,0.7,5.2c0.4,1.7,1.1,3.3,1.9,4.7c0.8,1.4,1.9,2.6,3.2,3.5c1.3,0.9,2.8,1.3,4.6,1.3c1.9,0,3.5-0.5,4.8-1.4
			c1.3-1,2.4-2.2,3.3-3.6c0.8-1.5,1.5-3.1,1.9-4.8c0.4-1.7,0.6-3.4,0.6-4.9c0-1.7-0.2-3.5-0.7-5.2c-0.5-1.7-1.1-3.3-2-4.7
			c-0.9-1.4-2-2.6-3.3-3.5c-1.3-0.9-2.9-1.3-4.6-1.3c-1.8,0-3.4,0.5-4.7,1.4c-1.3,1-2.4,2.2-3.3,3.6c-0.8,1.5-1.5,3.1-1.9,4.8
			C574.8,77.4,574.6,79,574.6,80.6z M635.3,94.8v7.5h-24.9v-7.5h8.6V66.1c-0.3,0.5-0.9,1-1.6,1.6c-0.8,0.6-1.6,1.2-2.6,1.7
			c-1,0.6-2,1-3,1.4s-1.9,0.6-2.8,0.6v-7.7c1.1,0,2.3-0.3,3.4-0.9c1.2-0.6,2.2-1.3,3.2-2c1-0.7,1.8-1.4,2.4-2s1-1,1-1.1h8.5v37
			H635.3z M671.4,89.2c0,2.1-0.4,3.9-1.3,5.6c-0.8,1.7-2,3.1-3.5,4.3c-1.5,1.2-3.2,2.1-5.1,2.8c-1.9,0.6-4,1-6.2,1
			c-2.2,0-4.3-0.3-6.2-1c-1.9-0.7-3.6-1.6-5.1-2.9c-1.4-1.2-2.6-2.7-3.4-4.4c-0.8-1.7-1.2-3.6-1.2-5.6c0-1.2,0.2-2.4,0.6-3.4
			s1-2,1.6-2.9c0.7-0.9,1.4-1.6,2.2-2.3c0.8-0.7,1.6-1.2,2.4-1.6c-1.5-0.7-2.8-1.9-3.9-3.3c-1.1-1.5-1.6-3.1-1.6-4.9
			c0-2,0.4-3.7,1.3-5.2c0.9-1.5,2-2.8,3.5-3.8c1.4-1,3-1.8,4.7-2.4c1.7-0.5,3.4-0.8,5.1-0.8c1.7,0,3.4,0.3,5.1,0.8
			c1.8,0.5,3.3,1.3,4.7,2.3c1.4,1,2.6,2.3,3.5,3.8c0.9,1.5,1.4,3.3,1.4,5.2c0,0.9-0.1,1.7-0.4,2.6c-0.3,0.8-0.7,1.6-1.2,2.4
			c-0.5,0.7-1.1,1.4-1.8,2c-0.7,0.6-1.4,1.1-2.2,1.4c0.9,0.5,1.8,1,2.6,1.7c0.8,0.7,1.6,1.5,2.2,2.4c0.7,0.9,1.2,1.9,1.6,2.9
			C671.2,86.8,671.4,88,671.4,89.2z M662.9,88.7c0-1-0.2-2-0.7-2.8c-0.4-0.8-1-1.5-1.7-2.1c-0.7-0.6-1.5-1-2.4-1.3
			c-0.9-0.3-1.8-0.4-2.8-0.4c-1,0-1.9,0.2-2.9,0.5s-1.7,0.8-2.4,1.3c-0.7,0.6-1.2,1.3-1.6,2.1c-0.4,0.8-0.6,1.7-0.6,2.7
			c0,1,0.2,1.9,0.7,2.7c0.4,0.8,1,1.5,1.7,2.1c0.7,0.6,1.5,1,2.4,1.3s1.8,0.5,2.8,0.5c1,0,1.9-0.2,2.9-0.5c0.9-0.3,1.7-0.8,2.4-1.4
			c0.7-0.6,1.3-1.3,1.7-2.1C662.7,90.6,662.9,89.7,662.9,88.7z M649.2,70.7c0,0.9,0.2,1.6,0.6,2.3c0.4,0.6,0.9,1.2,1.5,1.6
			c0.6,0.4,1.3,0.8,2,1c0.7,0.2,1.5,0.3,2.2,0.3c0.7,0,1.4-0.1,2.2-0.3c0.7-0.2,1.4-0.6,2-1c0.6-0.5,1.1-1,1.5-1.6
			c0.4-0.6,0.6-1.4,0.6-2.3c0-1.5-0.6-2.7-1.8-3.7c-1.2-0.9-2.7-1.4-4.4-1.4c-1.7,0-3.1,0.5-4.3,1.4
			C649.8,67.9,649.2,69.2,649.2,70.7z"/>
	</g>
</g>
</svg>
