<svg id="Capa_1" data-name="Capa 1" xmlns="http://www.w3.org/2000/svg" width="335.919" height="336" viewBox="0 0 335.919 336">
  <path d="M237.051,121.406a76.688,76.688,0,0,0-35.144-7.468c-57.327-.219-101.915,62.379-71.165,118.609A22.987,22.987,0,0,1,132.5,255.39c-2.2,4.612-6.81,10.982-3.954,14.057,3.514,3.734,10.1-.878,14.936-2.636a29.167,29.167,0,0,1,25.918,1.758,80.984,80.984,0,0,0,67.651-147.163Zm15.155,104.551a10.406,10.406,0,0,1-3.953,6.15,23.77,23.77,0,0,1-23.063,8.127A93.71,93.71,0,0,1,158.637,187.3a27.524,27.524,0,0,1,2.416-31.19,11,11,0,0,1,10.983-5.271,7.054,7.054,0,0,1,8.786,5.051v.44a52.967,52.967,0,0,0,4.612,10.982,10.757,10.757,0,0,1-1.757,14.936c-4.173,3.734-3.514,7.028-.439,11.2a71.076,71.076,0,0,0,24.6,21.745c5.93,3.075,10.543,3.075,13.838-3.075,3.953-7.029,9.005-7.029,15.155-3.3,2.416,1.318,4.832,2.416,7.468,3.734A10.936,10.936,0,0,1,252.206,225.957Z" transform="translate(-32.041 -32.149)" fill="#fff" fill-rule="evenodd"/>
  <path d="M204.983,32.23C112.292,29.375,34.977,102.3,32.122,194.987s70.066,170.226,162.757,173.081S365.1,298,367.959,205.311v-4.833C367.74,109.765,295.7,35.305,204.983,32.23ZM300.528,199.6c-3.075,45.686-36.9,83.685-82.147,91.372a90.069,90.069,0,0,1-57.108-8.566,14.546,14.546,0,0,0-12.08-.878c-15.595,5.491-31.41,10.323-47.883,15.594,5.711-17.132,10.762-33.166,16.473-48.761,1.1-3.295-.219-5.052-1.537-7.468a91.169,91.169,0,0,1-11.861-45.906A100.032,100.032,0,0,1,134.7,125.14c39.316-37.34,101.476-36.022,138.816,3.3A97.433,97.433,0,0,1,300.528,199.6Z" transform="translate(-32.041 -32.149)" fill="#fff" fill-rule="evenodd"/>
</svg>
