<svg id="Capa_1" data-name="Capa 1" xmlns="http://www.w3.org/2000/svg" width="798.386" height="152.016" viewBox="0 0 798.386 152.016">
  <path id="Forma_5" data-name="Forma 5" d="M75.918,0a76.008,76.008,0,1,0,76.1,76.052h0v-.07A76.029,76.029,0,0,0,75.94,0h-.022Zm43.153,44.821L80.358,82.314a6.839,6.839,0,0,1-9.56,0L32.115,44.821ZM26.322,106.607V44.883a.337.337,0,0,1,.248-.407h0a.342.342,0,0,1,.36.136L59.1,76.205a.925.925,0,0,1,.057,1.307h0l-.008.008h0l-.028.031L27.029,106.887a.353.353,0,1,1-.651-.271h0ZM119.7,107.7H31.5a.2.2,0,0,1-.067-.271h0a.142.142,0,0,1,.057-.057L62.217,80.752l.242.2L69.9,87.773a8.315,8.315,0,0,0,5.714,2.194,8.675,8.675,0,0,0,5.974-2.321l7.31-6.815.238-.206,30.728,26.627a.229.229,0,0,1,.156.283v.007a.237.237,0,0,1-.29.153Zm5.358-1.092a.34.34,0,0,1-.3.368h0a.38.38,0,0,1-.272-.1L92.323,77.535a.946.946,0,0,1,0-1.316l32.159-31.6a.347.347,0,0,1,.479-.087h0a.332.332,0,0,1,.136.355Zm71.269-52.218V46.131h8.333v8.258Zm0,37.063V58.921h8.333V91.452Zm46.143,0h-8.333V73.2q0-3.91-1.369-5.71a4.491,4.491,0,0,0-3.793-1.8,7.178,7.178,0,0,0-2.549.5,9.471,9.471,0,0,0-2.457,1.4,11.386,11.386,0,0,0-2.083,2.141,8.468,8.468,0,0,0-1.368,2.731v19h-8.333V58.921h7.524v6.022a12.306,12.306,0,0,1,5.225-4.842,16.781,16.781,0,0,1,7.711-1.739,9.841,9.841,0,0,1,4.975,1.117A8.076,8.076,0,0,1,240.6,62.4a12.214,12.214,0,0,1,1.462,4.1,26.9,26.9,0,0,1,.4,4.655v20.3Zm8.956,0V66.991h-4.29V60.66h4.29V58.672q0-6.082,2.924-9.623a9.773,9.773,0,0,1,7.96-3.538,18.544,18.544,0,0,1,8.023,1.925L268.654,53.7a10.7,10.7,0,0,0-2.209-.838,9.191,9.191,0,0,0-2.331-.34q-4.356,0-4.354,5.835v2.3h7.961v6.331H259.76v24.46Zm34.455.622a17.945,17.945,0,0,1-7.154-1.366,16.044,16.044,0,0,1-5.379-3.694,16.275,16.275,0,0,1-3.388-5.37,18.056,18.056,0,0,1,0-12.851,16.243,16.243,0,0,1,3.388-5.37,16.044,16.044,0,0,1,5.379-3.694,17.91,17.91,0,0,1,7.154-1.366A17.693,17.693,0,0,1,293,59.729a16.048,16.048,0,0,1,8.737,9.064,18.056,18.056,0,0,1,0,12.851,16.558,16.558,0,0,1-3.357,5.37,15.737,15.737,0,0,1-5.349,3.694,17.948,17.948,0,0,1-7.151,1.366Zm-8.52-16.822a11.3,11.3,0,0,0,.653,3.941,9.6,9.6,0,0,0,1.8,3.075,8.036,8.036,0,0,0,2.7,2.016,8.25,8.25,0,0,0,6.718,0,8.054,8.054,0,0,0,2.7-2.016,9.562,9.562,0,0,0,1.805-3.1,11.629,11.629,0,0,0,.653-3.973,11.423,11.423,0,0,0-.653-3.911,9.538,9.538,0,0,0-1.805-3.105,8.1,8.1,0,0,0-2.7-2.018,7.983,7.983,0,0,0-3.358-.715,7.684,7.684,0,0,0-3.36.745,8.455,8.455,0,0,0-2.7,2.051,9.513,9.513,0,0,0-1.8,3.1A11.37,11.37,0,0,0,277.36,75.252Zm61.438,16.2h-8.33V73.2q0-3.91-1.369-5.71a4.491,4.491,0,0,0-3.793-1.8,7.178,7.178,0,0,0-2.549.5,9.471,9.471,0,0,0-2.457,1.4,11.38,11.38,0,0,0-2.082,2.141,8.45,8.45,0,0,0-1.369,2.731v19h-8.333V58.921h7.524v6.022a12.318,12.318,0,0,1,5.225-4.842,16.781,16.781,0,0,1,7.711-1.739,9.847,9.847,0,0,1,4.976,1.117,8.081,8.081,0,0,1,2.984,2.919,12.214,12.214,0,0,1,1.462,4.1,26.9,26.9,0,0,1,.4,4.655Zm22.388.622a18.1,18.1,0,0,1-7.088-1.336,15.964,15.964,0,0,1-8.863-8.971,17.094,17.094,0,0,1-1.213-6.394,18.05,18.05,0,0,1,1.183-6.55,15.886,15.886,0,0,1,3.42-5.4,16.311,16.311,0,0,1,5.44-3.694,18.127,18.127,0,0,1,7.184-1.366,17.7,17.7,0,0,1,7.121,1.366,16.37,16.37,0,0,1,5.348,3.662,15.622,15.622,0,0,1,3.358,5.34,17.8,17.8,0,0,1,1.149,6.333q0,.806-.03,1.55a6.5,6.5,0,0,1-.156,1.243H352.856a9.723,9.723,0,0,0,.933,3.415,8.393,8.393,0,0,0,4.6,4.16,8.8,8.8,0,0,0,3.11.559,9.636,9.636,0,0,0,4.694-1.21,6.416,6.416,0,0,0,3.017-3.2l7.151,1.987a14.508,14.508,0,0,1-5.752,6.115,17.852,17.852,0,0,1-9.419,2.391Zm8.459-19.62a8.457,8.457,0,0,0-11.661-7.482,8.174,8.174,0,0,0-2.58,1.646,8.476,8.476,0,0,0-1.836,2.547,8.942,8.942,0,0,0-.839,3.289Zm17.662-13.533L394.335,69.1l.5,1.117.623-1.117,6.965-10.181h8.583L399.375,75.252l11.817,16.2h-8.583L395.4,81.332l-.56-1.055-.5,1.055-7.152,10.12h-8.581l11.754-16.2L378.791,58.921h8.516Zm50.313-4.9a24.975,24.975,0,0,1,8.737,1.553,22.217,22.217,0,0,1,7.43,4.532,21.391,21.391,0,0,1,5.132,7.388,25.549,25.549,0,0,1,1.9,10.181q0,.872-.094,2.328a24.441,24.441,0,0,1-.4,3.073,20.88,20.88,0,0,1-.932,3.291,11.549,11.549,0,0,1-1.679,3.042,7.751,7.751,0,0,1-6.468,3.043,7.086,7.086,0,0,1-2.768-.466,4.783,4.783,0,0,1-1.742-1.211,4.885,4.885,0,0,1-.963-1.646,9.448,9.448,0,0,1-.436-1.769,14.464,14.464,0,0,1-4.663,3.073,15.1,15.1,0,0,1-5.908,1.148q-4.667,0-7.091-2.421a8.477,8.477,0,0,1-2.425-6.271,8.313,8.313,0,0,1,1.026-4.283,8.224,8.224,0,0,1,2.674-2.793,11.559,11.559,0,0,1,3.731-1.522,19.2,19.2,0,0,1,4.2-.465,17.364,17.364,0,0,1,4.291.465,16.74,16.74,0,0,1,2.735.9,14.545,14.545,0,0,0-.31-3.1,5.741,5.741,0,0,0-1.119-2.421,5.358,5.358,0,0,0-2.178-1.553,9.281,9.281,0,0,0-3.482-.559,13.985,13.985,0,0,0-4.665.745,11.64,11.64,0,0,0-3.607,1.988l-1.616-4.408a19.06,19.06,0,0,1,10.7-3.1,13.3,13.3,0,0,1,6.312,1.24,8.4,8.4,0,0,1,3.356,3.129,10.631,10.631,0,0,1,1.338,4.19,41.084,41.084,0,0,1,.247,4.408v5.959c0,.912.033,1.793.094,2.639a9.535,9.535,0,0,0,.406,2.235,3.568,3.568,0,0,0,.932,1.552,2.421,2.421,0,0,0,1.74.589,3.333,3.333,0,0,0,2.707-1.241,9.31,9.31,0,0,0,1.616-3.012,16.711,16.711,0,0,0,.778-3.694q.186-1.922.186-3.228a21.687,21.687,0,0,0-1.461-8.04,19.341,19.341,0,0,0-4.074-6.394,18.426,18.426,0,0,0-6.281-4.22,22.536,22.536,0,0,0-16.2-.033,18.963,18.963,0,0,0-6.282,4.13,18.509,18.509,0,0,0-4.1,6.271,20.968,20.968,0,0,0-1.462,7.914,21.886,21.886,0,0,0,1.369,7.793,18.934,18.934,0,0,0,3.887,6.332,18.513,18.513,0,0,0,6.062,4.285,19.175,19.175,0,0,0,7.9,1.583,18.133,18.133,0,0,0,5.16-.652,37.706,37.706,0,0,0,4.54-1.708l1,3.228a25.655,25.655,0,0,1-5.349,1.862,24.634,24.634,0,0,1-5.472.622,22.99,22.99,0,0,1-8.769-1.676,21.644,21.644,0,0,1-7.182-4.749,22.293,22.293,0,0,1-4.852-7.388A24.879,24.879,0,0,1,414,77.178a23.871,23.871,0,0,1,1.928-9.839,21.414,21.414,0,0,1,5.193-7.265,22.687,22.687,0,0,1,7.557-4.5,26.112,26.112,0,0,1,8.942-1.557Zm3.051,32.031a5.681,5.681,0,0,0,2.425-1.988,4.783,4.783,0,0,0,.746-2.607V79.1q-.871-.309-2.737-.8a16.465,16.465,0,0,0-4.228-.5,9.2,9.2,0,0,0-4.789,1.117,4.057,4.057,0,0,0-1.865,3.787,4.358,4.358,0,0,0,1.336,3.356,5.228,5.228,0,0,0,3.7,1.24,13.547,13.547,0,0,0,2.737-.31A10.271,10.271,0,0,0,440.671,86.052Zm57.335,5.4h-8.333V73.2q0-3.91-1.369-5.71a4.488,4.488,0,0,0-3.793-1.8,7.178,7.178,0,0,0-2.549.5,9.471,9.471,0,0,0-2.457,1.4,11.38,11.38,0,0,0-2.082,2.141,8.47,8.47,0,0,0-1.369,2.731v19h-8.333V58.921h7.524v6.022A12.318,12.318,0,0,1,480.47,60.1a16.781,16.781,0,0,1,7.711-1.739,9.847,9.847,0,0,1,4.976,1.117,8.081,8.081,0,0,1,2.984,2.919,12.214,12.214,0,0,1,1.462,4.1,26.9,26.9,0,0,1,.4,4.655v20.3Zm22.392.622a18.1,18.1,0,0,1-7.088-1.336,15.964,15.964,0,0,1-8.863-8.971,17.093,17.093,0,0,1-1.212-6.394,18.028,18.028,0,0,1,1.182-6.55,15.9,15.9,0,0,1,3.42-5.4,16.326,16.326,0,0,1,5.44-3.694,18.145,18.145,0,0,1,7.184-1.366,17.7,17.7,0,0,1,7.121,1.366,16.37,16.37,0,0,1,5.348,3.662,15.607,15.607,0,0,1,3.358,5.34,17.792,17.792,0,0,1,1.15,6.333c0,.537-.011,1.055-.03,1.55a6.417,6.417,0,0,1-.157,1.243H512.062a9.7,9.7,0,0,0,.932,3.415,8.393,8.393,0,0,0,4.6,4.16,8.791,8.791,0,0,0,3.111.559,9.633,9.633,0,0,0,4.693-1.21,6.416,6.416,0,0,0,3.017-3.2l7.152,1.987a14.522,14.522,0,0,1-5.753,6.115A17.851,17.851,0,0,1,520.4,92.074Zm8.459-19.62a8.457,8.457,0,0,0-11.66-7.482,8.179,8.179,0,0,0-2.581,1.646,8.476,8.476,0,0,0-1.836,2.547,8.942,8.942,0,0,0-.839,3.289Zm17.66-13.533L553.545,69.1l.5,1.117.622-1.117,6.965-10.181h8.582L558.578,75.252l11.82,16.2h-8.583L554.6,81.332l-.559-1.055-.5,1.055-7.151,10.12h-8.58l11.754-16.2L538,58.921Zm58.146,32.531H596.33V73.2q0-3.91-1.369-5.71a4.491,4.491,0,0,0-3.793-1.8,7.178,7.178,0,0,0-2.549.5,9.476,9.476,0,0,0-2.458,1.4,11.38,11.38,0,0,0-2.082,2.141,8.468,8.468,0,0,0-1.368,2.731v19h-8.334V58.921H581.9v6.022a12.32,12.32,0,0,1,5.226-4.842,16.781,16.781,0,0,1,7.711-1.739,9.841,9.841,0,0,1,4.975,1.117,8.076,8.076,0,0,1,2.985,2.919,12.214,12.214,0,0,1,1.462,4.1,26.9,26.9,0,0,1,.4,4.655v20.3Zm22.389.622a18.1,18.1,0,0,1-7.089-1.336,15.962,15.962,0,0,1-8.862-8.971,17.094,17.094,0,0,1-1.213-6.394,18.05,18.05,0,0,1,1.183-6.55,15.886,15.886,0,0,1,3.42-5.4,16.3,16.3,0,0,1,5.44-3.694,18.127,18.127,0,0,1,7.184-1.366,17.693,17.693,0,0,1,7.12,1.366,16.374,16.374,0,0,1,5.349,3.662,15.622,15.622,0,0,1,3.358,5.34,17.817,17.817,0,0,1,1.149,6.333q0,.806-.03,1.55a6.5,6.5,0,0,1-.156,1.243H618.718a9.675,9.675,0,0,0,.933,3.415,8.379,8.379,0,0,0,4.6,4.16,8.782,8.782,0,0,0,3.11.559,9.636,9.636,0,0,0,4.694-1.21,6.42,6.42,0,0,0,3.017-3.2l7.151,1.987a14.514,14.514,0,0,1-5.752,6.115A17.852,17.852,0,0,1,627.052,92.074Zm8.459-19.62a8.457,8.457,0,0,0-11.661-7.482,8.2,8.2,0,0,0-2.581,1.646,8.486,8.486,0,0,0-1.835,2.547,8.928,8.928,0,0,0-.836,3.287h16.916Zm42.662,19-6.282-19.617-6.218,19.615h-8.956L645.462,58.921h8.644l7.463,22.6,6.468-22.6h7.835l6.468,22.6,7.463-22.6h8.52L687.192,91.452h-9.019Zm36.444.622a25.293,25.293,0,0,1-8.023-1.3,19.575,19.575,0,0,1-6.716-3.726l3.108-5.214a26.735,26.735,0,0,0,5.815,3.2,15.59,15.59,0,0,0,5.629,1.087,7.121,7.121,0,0,0,3.918-.931,3,3,0,0,0,1.431-2.67,2.666,2.666,0,0,0-1.679-2.544,36.288,36.288,0,0,0-5.472-1.862q-3.173-.872-5.412-1.678a13.883,13.883,0,0,1-3.607-1.83,6.246,6.246,0,0,1-1.989-2.361,7.5,7.5,0,0,1-.622-3.2,10.116,10.116,0,0,1,.963-4.469,9.716,9.716,0,0,1,2.707-3.384,12.531,12.531,0,0,1,4.073-2.141,16.577,16.577,0,0,1,5.067-.745,21.842,21.842,0,0,1,6.873,1.056,16.758,16.758,0,0,1,5.876,3.415L723.2,67.8a19.575,19.575,0,0,0-4.819-2.733,13.244,13.244,0,0,0-4.633-.868,6.736,6.736,0,0,0-3.546.868,3.021,3.021,0,0,0-1.43,2.8,2.676,2.676,0,0,0,.343,1.427,2.982,2.982,0,0,0,1.087.994,10.658,10.658,0,0,0,1.96.838q1.211.4,3.015.838,3.359.871,5.752,1.739a15.722,15.722,0,0,1,3.92,1.986,7.091,7.091,0,0,1,2.238,2.577,7.928,7.928,0,0,1,.716,3.508,9.044,9.044,0,0,1-3.546,7.544q-3.541,2.759-9.638,2.757Zm18.408-.622V82.512h6.841v8.94h-6.841Zm12.127-16.265a17.664,17.664,0,0,1,1.182-6.457,15.687,15.687,0,0,1,3.421-5.34,16.634,16.634,0,0,1,5.409-3.662,17.913,17.913,0,0,1,7.151-1.366,17.177,17.177,0,0,1,9.112,2.3,14.683,14.683,0,0,1,5.629,6.022l-8.147,2.484a7.328,7.328,0,0,0-2.8-2.763,7.843,7.843,0,0,0-3.855-.964,7.988,7.988,0,0,0-3.359.715,8.263,8.263,0,0,0-2.7,1.987,9.167,9.167,0,0,0-1.8,3.073,11.6,11.6,0,0,0-.652,3.973,11.054,11.054,0,0,0,.683,3.973,9.977,9.977,0,0,0,1.835,3.1,8.036,8.036,0,0,0,2.705,2.016,7.785,7.785,0,0,0,3.3.715,8.007,8.007,0,0,0,4.135-1.117,6.287,6.287,0,0,0,2.644-2.733l8.147,2.484a13.681,13.681,0,0,1-5.536,6.084,17.4,17.4,0,0,1-9.266,2.361,17.93,17.93,0,0,1-7.151-1.366,16.171,16.171,0,0,1-8.862-9.1,17.343,17.343,0,0,1-1.22-6.421Zm37.064-29.056h8.334v34.89a4.089,4.089,0,0,0,.872,2.793,3.124,3.124,0,0,0,2.487.994,6.2,6.2,0,0,0,1.646-.249,11.321,11.321,0,0,0,1.712-.619l1.119,6.331a16.087,16.087,0,0,1-3.917,1.243,21.624,21.624,0,0,1-4.043.433,8.346,8.346,0,0,1-6.063-2.079,7.873,7.873,0,0,1-2.147-5.929V46.133Z" fill="#fff" fill-rule="evenodd"/>
</svg>
