<svg xmlns="http://www.w3.org/2000/svg" width="150" height="150" viewBox="0 0 150 150">
  <defs>
    <style>
      .cls-1 {
        fill: #fff;
        fill-rule: evenodd;
      }
    </style>
  </defs>
  <path id="Forma_3" data-name="Forma 3" class="cls-1" d="M19.685,108.8L9.618,117.424H140.481l-9.72-8.621h-3.122l8.238,7.124H14.125l8.53-7.124H19.685Zm-11.13,23.43H141.445a7.786,7.786,0,0,0,3.256-14.861l-11.336-10.051a9.185,9.185,0,0,0,8.227-9.129V28a9.226,9.226,0,0,0-9.223-9.235H17.629A9.226,9.226,0,0,0,8.407,28V98.192a9.2,9.2,0,0,0,8.6,9.168L5.337,117.354a7.812,7.812,0,0,0-3.295,2.82l-0.1.086H1.994A7.774,7.774,0,0,0,8.554,132.233ZM11.591,127a1.537,1.537,0,1,1,1.541-1.536A1.527,1.527,0,0,1,11.591,127Zm6.115,0a1.537,1.537,0,1,1,1.539-1.536A1.534,1.534,0,0,1,17.707,127Zm6.535,0a1.537,1.537,0,1,1,1.539-1.536A1.531,1.531,0,0,1,24.242,127Zm56.271,0H67.531a1.537,1.537,0,0,1,0-3.073H80.513A1.537,1.537,0,1,1,80.513,127ZM74.991,24.229a1.693,1.693,0,1,1-1.676,1.687A1.687,1.687,0,0,1,74.991,24.229Zm-58.2,69.424V32.537H133.2V93.654H16.792ZM19.685,108.8h2.971l-8.53,7.124H135.877l-8.238-7.124h3.122l9.72,8.621H9.618Z"/>
</svg>
