<svg xmlns="http://www.w3.org/2000/svg" viewBox="0 0 765.19 133.23"><g id="Capa_2" data-name="Capa 2"><g id="Capa_5" data-name="Capa 5"><polygon points="119.49 131.16 93.27 131.16 26.8 43.46 26.8 131.16 0 131.16 0 0 26.31 0 92.49 87.87 92.49 0 119.49 0 119.49 131.16" fill="#fff"/><path d="M174.47,133.23a66.56,66.56,0,0,1-21.56-3.33,47.41,47.41,0,0,1-16.78-9.67,42.75,42.75,0,0,1-10.85-15.6,54.49,54.49,0,0,1-3.83-21,54.63,54.63,0,0,1,3.73-20.69,44,44,0,0,1,10.46-15.59,46.07,46.07,0,0,1,16.1-9.85A59.72,59.72,0,0,1,172.5,34a62.6,62.6,0,0,1,21.21,3.37,45.12,45.12,0,0,1,16.1,9.72,42.43,42.43,0,0,1,10.27,15.6,57.65,57.65,0,0,1,3.58,20.9v7.52H149.43a31.65,31.65,0,0,0,3.24,9.76,24.27,24.27,0,0,0,5.5,6.92,22.12,22.12,0,0,0,7.41,4.15,28.15,28.15,0,0,0,8.89,1.38,25.11,25.11,0,0,0,7.07-1,21.06,21.06,0,0,0,6.38-3.07,17.07,17.07,0,0,0,4.66-5,13.46,13.46,0,0,0,1.92-6.83h28.08a41.11,41.11,0,0,1-5.7,15.29,39.79,39.79,0,0,1-10.55,11.19,47.22,47.22,0,0,1-14.48,6.91,61.65,61.65,0,0,1-17.38,2.38M195,71.37q-2.55-8.82-8.4-13.14a24.89,24.89,0,0,0-28,0q-6,4.32-8.54,13.14Z" fill="#fff"/><polygon points="321.36 131.16 288.27 131.16 266.08 100.57 243.99 131.16 211.09 131.16 250.66 81.91 213.84 36.29 246.83 36.29 266.08 63.24 285.32 36.29 318.31 36.29 281.59 81.91 321.36 131.16" fill="#fff"/><polygon points="441.41 131.16 415.19 131.16 348.73 43.46 348.73 131.16 321.92 131.16 321.92 0 348.23 0 414.41 87.87 414.41 0 441.41 0 441.41 131.16" fill="#fff"/><path d="M496.39,133.23a66.41,66.41,0,0,1-21.55-3.33,47.37,47.37,0,0,1-16.79-9.67,42.75,42.75,0,0,1-10.85-15.6,54.49,54.49,0,0,1-3.83-21,54.83,54.83,0,0,1,3.73-20.69,44.1,44.1,0,0,1,10.46-15.59,46.07,46.07,0,0,1,16.1-9.85A59.72,59.72,0,0,1,494.42,34a62.6,62.6,0,0,1,21.21,3.37,45,45,0,0,1,16.1,9.72A42.43,42.43,0,0,1,542,62.73a57.65,57.65,0,0,1,3.58,20.9v7.52H471.35a31.65,31.65,0,0,0,3.24,9.76,24.1,24.1,0,0,0,5.5,6.92A22.12,22.12,0,0,0,487.5,112a28.15,28.15,0,0,0,8.89,1.38,25.11,25.11,0,0,0,7.07-1,21.06,21.06,0,0,0,6.38-3.07,16.94,16.94,0,0,0,4.66-5,13.46,13.46,0,0,0,1.92-6.83H544.5a41.09,41.09,0,0,1-5.69,15.29,40,40,0,0,1-10.56,11.19,47.27,47.27,0,0,1-14.49,6.91,61.53,61.53,0,0,1-17.37,2.38m20.52-61.86q-2.55-8.82-8.4-13.14a24.88,24.88,0,0,0-28,0q-6,4.32-8.55,13.14Z" fill="#fff"/><polygon points="682.7 36.29 650.5 131.16 626.74 131.16 608.77 77.16 590.8 131.16 566.85 131.16 534.35 36.29 563.81 36.29 578.92 91.15 597.19 36.29 620.35 36.29 638.82 91.15 653.93 36.29 682.7 36.29" fill="#fff"/><path d="M720.9,133.23q-44.86,0-47.62-35.77h27.2q.19,15.9,20.22,15.9c5.83,0,10.27-1,13.31-2.85s4.56-4.29,4.56-7.18a5.3,5.3,0,0,0-1-3.28,9.25,9.25,0,0,0-3.74-2.46,55.71,55.71,0,0,0-7.7-2.42q-5-1.24-12.92-3-9.72-2.07-16.69-4.19A41.43,41.43,0,0,1,685,82.73,19.51,19.51,0,0,1,678.29,75a27.93,27.93,0,0,1-2.16-11.8,23.36,23.36,0,0,1,3-11.53,28.07,28.07,0,0,1,8.34-9.2,42.82,42.82,0,0,1,13.06-6.13A60.48,60.48,0,0,1,717.56,34q43.5,0,44.39,32.14H735.73q-1-12.27-16.89-12.27a38.32,38.32,0,0,0-6.43.52,20.75,20.75,0,0,0-5.16,1.51,9.84,9.84,0,0,0-3.38,2.43,4.9,4.9,0,0,0-1.24,3.32,4.81,4.81,0,0,0,.65,2.59,6.43,6.43,0,0,0,3,2,53.28,53.28,0,0,0,7.12,2.16q4.71,1.17,12.86,2.9,9.91,2.25,17.24,4.49a44.36,44.36,0,0,1,12.12,5.57,21.06,21.06,0,0,1,7.16,8.17,27.59,27.59,0,0,1,2.37,12.18A25.51,25.51,0,0,1,762,114.26a30,30,0,0,1-8.88,9.94,45,45,0,0,1-13.94,6.61,64.85,64.85,0,0,1-18.32,2.42" fill="#fff"/></g></g></svg>