<svg xmlns="http://www.w3.org/2000/svg" width="150" height="150" viewBox="0 0 150 150">
  <defs>
    <style>
      .cls-1 {
        fill: #fff;
        fill-rule: evenodd;
      }
    </style>
  </defs>
  <path id="Forma_4" data-name="Forma 4" class="cls-1" d="M40.449,64.3H9.563a6.229,6.229,0,0,0-6.357,6.99L2.88,131.86a3.891,3.891,0,0,0,.032.523,8.643,8.643,0,0,0,8.3,7.3H50.636a6.2,6.2,0,0,0,6.338-6.776l-8.553-63.1c-0.043.016-.084,0.035-0.125,0.049A8.684,8.684,0,0,0,40.449,64.3Zm107.73,26.146A14.473,14.473,0,0,0,142.44,80.1a9.291,9.291,0,0,0,3.928-6.939,19.745,19.745,0,0,0-4.839-14.7,15.826,15.826,0,0,0-11.96-4.982H101.458c-0.055-4.063-.055-10.432.237-16.088,0.432-8.163-4.144-18.119-8.669-23.339-2.379-2.752-4.791-4.293-7.175-4.587a19.137,19.137,0,0,0-2.36-.143c-5.183,0-11.31,2.068-12.506,6.6-0.527,1.972-.037,4.054.488,6.251a26.327,26.327,0,0,1,.648,11.637c-1.534,8.62-14.576,29.454-18.8,33.279L62.12,132c5.791,2.243,19.174,7.124,26.207,7.124H123.49c2.392,0,10.392-.521,12.8-7.235A11.883,11.883,0,0,0,135.88,123c-0.012-.252-0.022-0.469-0.029-0.614,0-.054-0.009-0.117-0.01-0.182,4.391-1.17,7.234-4.087,7.988-8.407a14.028,14.028,0,0,0-2.239-11C146.241,100.638,148.67,96.3,148.178,90.444Z"/>
</svg>
