<svg id="Capa_2" data-name="Capa 2" xmlns="http://www.w3.org/2000/svg" viewBox="0 0 456.96 242.39"><defs><style>.cls-1{fill:#fff;stroke:#fff;stroke-miterlimit:10;}</style></defs><path class="cls-1" d="M263.61,351a5.19,5.19,0,0,1-4.14-2.09L173.58,234.76H88.66a5.47,5.47,0,0,1,0-10.93h87.47a5.18,5.18,0,0,1,4.14,2.09l87.48,116.23a5.62,5.62,0,0,1-.9,7.67A5.11,5.11,0,0,1,263.61,351Z" transform="translate(-80.18 -220.5)"/><path class="cls-1" d="M263.61,353.72a7.89,7.89,0,0,1-6.32-3.19l-85.07-113H88.66a8.2,8.2,0,0,1,0-16.4h87.47a8,8,0,0,1,6.32,3.18L269.92,340.5a8.37,8.37,0,0,1-1.35,11.44A7.85,7.85,0,0,1,263.61,353.72Zm-175-127.16a2.74,2.74,0,0,0,0,5.47h86.28l86.71,115.21a2.45,2.45,0,0,0,3.48.46,2.91,2.91,0,0,0,.44-3.91L178.09,227.57a2.44,2.44,0,0,0-2-1Z" transform="translate(-80.18 -220.5)"/><path class="cls-1" d="M528.65,459.7l-88.92-.13a5.19,5.19,0,0,1-4.12-2L392.09,401a5.38,5.38,0,0,1,.89-7.46,5.17,5.17,0,0,1,7.34.91l42,54.49,75.64.13-82.31-104.5a5.39,5.39,0,0,1,0-6.55l89-112.24a5.17,5.17,0,0,1,7.34-.9,5.36,5.36,0,0,1,.89,7.45l-86.47,109,86.4,109.8a5.39,5.39,0,0,1,.58,5.61A5.23,5.23,0,0,1,528.65,459.7Z" transform="translate(-80.18 -220.5)"/><path class="cls-1" d="M528.65,462.39l-88.93-.13a7.84,7.84,0,0,1-6.24-3.09L390,402.65a8.09,8.09,0,0,1,1.35-11.21,7.86,7.86,0,0,1,11.14,1.38l41.15,53.44,68.77.12L433.51,346.25a8,8,0,0,1,0-9.86l89-112.27a7.84,7.84,0,0,1,11.11-1.34A8.09,8.09,0,0,1,535,234L449.79,341.31l85.09,108.14a8.16,8.16,0,0,1,.89,8.43A8,8,0,0,1,528.65,462.39ZM396.2,395.11a2.47,2.47,0,0,0-1.55.55,2.66,2.66,0,0,0-.44,3.7l43.52,56.53a2.52,2.52,0,0,0,2,1l88.92.14a2.54,2.54,0,0,0,2.28-1.47,2.68,2.68,0,0,0-.29-2.79L443,341.3l87.79-110.63a2.67,2.67,0,0,0-.46-3.68,2.5,2.5,0,0,0-3.55.44l-89,112.27a2.67,2.67,0,0,0,0,3.24l85.73,108.83L441,451.63,398.2,396.1a2.54,2.54,0,0,0-1.7-1Z" transform="translate(-80.18 -220.5)"/><path class="cls-1" d="M262.93,459.57h-.48a5.17,5.17,0,0,1-4.11-2L180.76,356.71v97.55a5.27,5.27,0,0,1-5.22,5.31H88.62a5.31,5.31,0,0,1,0-10.62h81.7V341.31a5.31,5.31,0,0,1,3.51-5,5.2,5.2,0,0,1,5.82,1.75l83,107.92,69.68-104.64-81.54-109a5.38,5.38,0,0,1-.58-5.6,5.2,5.2,0,0,1,4.69-3h86.91a5.2,5.2,0,0,1,4.11,2l43.32,55.89a5.37,5.37,0,0,1-.9,7.45,5.16,5.16,0,0,1-7.33-.91l-41.74-53.84H265.66L343.11,338a5.39,5.39,0,0,1,0,6.55L267,457.53A5.19,5.19,0,0,1,262.93,459.57Z" transform="translate(-80.18 -220.5)"/><path class="cls-1" d="M262.93,462.26h-.48a7.83,7.83,0,0,1-6.24-3.09l-72.77-94.58v89.67a8,8,0,0,1-7.9,8H88.63a8,8,0,0,1,0-16h79V341.31a8,8,0,0,1,5.32-7.56,7.84,7.84,0,0,1,8.82,2.64l80.76,105,66.55-100L248.69,233.88a8.1,8.1,0,0,1-.86-8.37,7.93,7.93,0,0,1,7.11-4.51h86.91a7.82,7.82,0,0,1,6.24,3.08L391.39,280a8.08,8.08,0,0,1-1.34,11.21,7.84,7.84,0,0,1-11.12-1.38L338,237H271l74.24,99.42a8,8,0,0,1,0,9.8L269.26,459A7.91,7.91,0,0,1,262.93,462.26ZM178.08,348.82l82.38,107.07a2.5,2.5,0,0,0,2,1h.48a2.52,2.52,0,0,0,2-1l76-112.82a2.74,2.74,0,0,0,.11-3.41l-80.68-108h80.31l42.55,54.88a2.53,2.53,0,0,0,1.7,1,2.48,2.48,0,0,0,1.84-.53,2.68,2.68,0,0,0,.44-3.72l-43.31-55.87a2.49,2.49,0,0,0-2-1H254.94a2.54,2.54,0,0,0-2.28,1.46,2.72,2.72,0,0,0,.29,2.8l82.7,110.59L262.84,450.56,177.52,339.67a2.49,2.49,0,0,0-2.8-.85,2.62,2.62,0,0,0-1.72,2.49V451.63H88.63a2.63,2.63,0,0,0,0,5.26h86.91a2.59,2.59,0,0,0,2.54-2.63Z" transform="translate(-80.18 -220.5)"/></svg>