<svg xmlns="http://www.w3.org/2000/svg" xmlns:xlink="http://www.w3.org/1999/xlink" width="800" height="164" viewBox="0 -5.5 800 164">
  <defs>
    <style>
      .cls-1 {
        fill: #fff;
        fill-rule: evenodd;
      }
    </style>
    <clipPath id="clip-path">
      <rect width="800" height="153"/>
    </clipPath>
  </defs>
  <g clip-path="url(#clip-path)">
    <path id="Forma_6" data-name="Forma 6" class="cls-1" d="M80.743,37.289c-26.052-.123-46.409,28.418-32.361,54.025a10.363,10.363,0,0,1,.808,10.37c-0.987,2.077-3.109,5.037-1.8,6.414,1.58,1.662,4.62-.4,6.764-1.233a13.2,13.2,0,0,1,11.79.8,36.887,36.887,0,1,0,14.8-70.389v0.013Zm21.1,53.776a10.865,10.865,0,0,1-10.528,3.685A42.654,42.654,0,0,1,60.966,70.7a12.579,12.579,0,0,1,1.122-14.2,5,5,0,0,1,5.026-2.352A3.309,3.309,0,0,1,71.162,56.5a1.288,1.288,0,0,0,.048.219,30.274,30.274,0,0,0,2.07,5.019,4.852,4.852,0,0,1-.782,6.754c-1.877,1.684-1.559,3.24-.223,5.1a32.82,32.82,0,0,0,11.187,9.872c2.664,1.447,4.8,1.382,6.319-1.373,1.786-3.248,4.1-3.209,6.921-1.535,1.074,0.642,2.249,1.111,3.375,1.657a5.008,5.008,0,0,1,1.747,8.862Zm-19.7-91a76.471,76.471,0,1,0,74.111,78.675V78.723c0-.686.031-1.373,0.031-2.059A76.878,76.878,0,0,0,82.144.061Zm6.03,117.822a41.263,41.263,0,0,1-26-3.856,6.587,6.587,0,0,0-5.494-.407c-7.1,2.532-14.327,4.7-21.833,7.1,2.62-7.813,4.947-15.07,7.5-22.249,0.533-1.5-.092-2.291-0.668-3.388a41.89,41.89,0,0,1-5.415-20.929A45.5,45.5,0,0,1,50.015,42.4a44.707,44.707,0,0,1,75.543,33.9,45.129,45.129,0,0,1-37.383,41.6v-0.017Zm132.243-47.11v6.762h-6.439v7.074h-7.565V77.534h-6.439V70.773h6.439V63.7h7.565v7.074h6.439Zm21.51-3.129a15.659,15.659,0,0,1,5.813,1.063A14.261,14.261,0,0,1,252.4,71.65a13.093,13.093,0,0,1,3.064,4.507,14.871,14.871,0,0,1,1.095,5.759,15.025,15.025,0,0,1-1.219,6.135,14.15,14.15,0,0,1-3.409,4.758,15.36,15.36,0,0,1-5.19,3.1,19.037,19.037,0,0,1-6.563,1.1,17.978,17.978,0,0,1-8.692-2.065,14.6,14.6,0,0,1-5.877-5.7l4.815-5.006a13.747,13.747,0,0,0,4.407,3.88,10.988,10.988,0,0,0,5.408,1.441,7.742,7.742,0,0,0,5.534-2.035,7.1,7.1,0,0,0,2.157-5.415,7.834,7.834,0,0,0-.532-2.91,6.723,6.723,0,0,0-1.5-2.317,6.8,6.8,0,0,0-2.281-1.5,7.579,7.579,0,0,0-2.876-.533,8.167,8.167,0,0,0-3.814.939,7.464,7.464,0,0,0-2.877,2.565h-7.316a13.267,13.267,0,0,1,.251-1.408q0.249-1.219.626-3.129t0.811-4.258q0.438-2.348.94-4.788,1.125-5.7,2.5-12.834h21.885v7.637H237.927l-1.752,9.954a4.93,4.93,0,0,1,2.187-1.378A10.956,10.956,0,0,1,241.928,67.644Zm52.455,13.9a14.819,14.819,0,0,1-1.249,6.072,15.466,15.466,0,0,1-3.439,4.915,15.971,15.971,0,0,1-5.16,3.286A17.093,17.093,0,0,1,278.127,97a16.249,16.249,0,0,1-6.785-1.378,13.991,13.991,0,0,1-5.157-4.006,18.412,18.412,0,0,1-3.251-6.417,30.221,30.221,0,0,1-1.125-8.607A43.622,43.622,0,0,1,263,65.858a23.329,23.329,0,0,1,3.439-7.825,15.04,15.04,0,0,1,5.439-4.788A15.451,15.451,0,0,1,279,51.618a16.486,16.486,0,0,1,13.692,7.01l-4.815,5.258A10.586,10.586,0,0,0,284,60.194a10.4,10.4,0,0,0-5.127-1.316,7.961,7.961,0,0,0-6.69,3.319q-2.5,3.317-2.625,9.39a9.44,9.44,0,0,1,3.72-3.568,11.479,11.479,0,0,1,5.595-1.316,16.421,16.421,0,0,1,6.1,1.129,15.161,15.161,0,0,1,4.939,3.129A14.518,14.518,0,0,1,294.383,81.541ZM278.19,89.929a7.749,7.749,0,0,0,3.127-.657,8.248,8.248,0,0,0,2.625-1.817,8.756,8.756,0,0,0,1.782-2.692,8.094,8.094,0,0,0,.656-3.223,7.664,7.664,0,0,0-.656-3.162,8.62,8.62,0,0,0-1.782-2.6,8.141,8.141,0,0,0-2.6-1.753,7.971,7.971,0,0,0-3.157-.626,8.2,8.2,0,0,0-3.189.626,8.12,8.12,0,0,0-4.376,4.351A7.961,7.961,0,0,0,270,81.541a8.078,8.078,0,0,0,.657,3.223,8.393,8.393,0,0,0,1.781,2.661,9.07,9.07,0,0,0,2.595,1.814A7.323,7.323,0,0,0,278.19,89.929Zm36.2-22.848a14.812,14.812,0,0,1,1.25-6.074,15.355,15.355,0,0,1,3.439-4.913,15.93,15.93,0,0,1,5.159-3.288,17.069,17.069,0,0,1,6.409-1.188,16.252,16.252,0,0,1,6.784,1.375,13.916,13.916,0,0,1,5.127,3.976,18.83,18.83,0,0,1,3.251,6.387,29.485,29.485,0,0,1,1.156,8.607A42.617,42.617,0,0,1,345.746,82.7a24.607,24.607,0,0,1-3.439,7.858,14.713,14.713,0,0,1-5.408,4.818A15.454,15.454,0,0,1,329.77,97a16.434,16.434,0,0,1-7.721-1.847,17.031,17.031,0,0,1-5.971-5.227l4.815-5.259a10.657,10.657,0,0,0,3.845,3.694,10.373,10.373,0,0,0,5.159,1.315,7.948,7.948,0,0,0,6.688-3.319q2.5-3.314,2.628-9.388a9.388,9.388,0,0,1-3.754,3.567,11.54,11.54,0,0,1-5.562,1.315,16.329,16.329,0,0,1-6.128-1.127A15.176,15.176,0,0,1,318.86,77.6a14.514,14.514,0,0,1-3.281-4.694A14.216,14.216,0,0,1,314.39,67.081Zm16.193-8.452a7.359,7.359,0,0,0-3.157.688,8.539,8.539,0,0,0-4.313,4.476,8.114,8.114,0,0,0-.657,3.225,7.661,7.661,0,0,0,.657,3.161,8.88,8.88,0,0,0,1.749,2.6,7.692,7.692,0,0,0,2.595,1.751,8.431,8.431,0,0,0,6.378,0,7.891,7.891,0,0,0,2.6-1.721,8.49,8.49,0,0,0,1.751-2.568,7.676,7.676,0,0,0,.656-3.159,8.138,8.138,0,0,0-.656-3.225,8.8,8.8,0,0,0-1.784-2.692,8.713,8.713,0,0,0-2.625-1.847A7.567,7.567,0,0,0,330.583,58.629ZM400.3,81.541a14.8,14.8,0,0,1-1.249,6.072,15.45,15.45,0,0,1-3.439,4.915,15.95,15.95,0,0,1-5.16,3.286A17.085,17.085,0,0,1,384.04,97a16.241,16.241,0,0,1-6.784-1.378,13.987,13.987,0,0,1-5.158-4.006,18.412,18.412,0,0,1-3.251-6.417,30.221,30.221,0,0,1-1.125-8.607,43.619,43.619,0,0,1,1.189-10.738,23.309,23.309,0,0,1,3.438-7.825,15.04,15.04,0,0,1,5.439-4.788,15.452,15.452,0,0,1,7.129-1.626,16.486,16.486,0,0,1,13.692,7.01l-4.815,5.258a10.594,10.594,0,0,0-3.877-3.692,10.407,10.407,0,0,0-5.127-1.316A7.959,7.959,0,0,0,378.1,62.2q-2.5,3.317-2.626,9.39a9.44,9.44,0,0,1,3.72-3.568,11.483,11.483,0,0,1,5.6-1.316,16.42,16.42,0,0,1,6.1,1.129,15.161,15.161,0,0,1,4.939,3.129A14.518,14.518,0,0,1,400.3,81.541ZM384.1,89.929a7.746,7.746,0,0,0,3.127-.657,8.226,8.226,0,0,0,2.625-1.817,8.738,8.738,0,0,0,1.782-2.692,8.094,8.094,0,0,0,.656-3.223,7.664,7.664,0,0,0-.656-3.162,8.6,8.6,0,0,0-1.782-2.6,8.126,8.126,0,0,0-2.594-1.753A7.979,7.979,0,0,0,384.1,73.4a8.194,8.194,0,0,0-3.188.626,8.066,8.066,0,0,0-2.628,1.753,8.161,8.161,0,0,0-1.749,2.6,7.979,7.979,0,0,0-.626,3.162,8.1,8.1,0,0,0,.657,3.223,8.393,8.393,0,0,0,1.781,2.661,9.084,9.084,0,0,0,2.595,1.814A7.323,7.323,0,0,0,384.1,89.929Zm53.707-6.7a12.206,12.206,0,0,1-1.28,5.633,13.466,13.466,0,0,1-3.5,4.321,15.965,15.965,0,0,1-5.16,2.786,19.827,19.827,0,0,1-6.252.969,18.739,18.739,0,0,1-6.252-1.032A15.85,15.85,0,0,1,410.238,93a13.721,13.721,0,0,1-3.439-4.445,12.671,12.671,0,0,1-1.249-5.633,9.47,9.47,0,0,1,.623-3.476,12.02,12.02,0,0,1,1.627-2.91,13.706,13.706,0,0,1,2.22-2.316,13.288,13.288,0,0,1,2.468-1.627,10.513,10.513,0,0,1-3.938-3.382,8.269,8.269,0,0,1-1.627-4.945,10.245,10.245,0,0,1,1.346-5.29,12.632,12.632,0,0,1,3.5-3.849,16.4,16.4,0,0,1,4.753-2.378,17.1,17.1,0,0,1,5.158-.814,18.217,18.217,0,0,1,5.157.782,15.35,15.35,0,0,1,4.784,2.347,13.155,13.155,0,0,1,3.5,3.851A10.047,10.047,0,0,1,436.5,64.2a8.03,8.03,0,0,1-.436,2.6,9.168,9.168,0,0,1-1.221,2.38A10.264,10.264,0,0,1,433,71.148a10.882,10.882,0,0,1-2.252,1.441,13.922,13.922,0,0,1,2.627,1.721,13.638,13.638,0,0,1,2.251,2.38,11.747,11.747,0,0,1,1.594,2.974A10.387,10.387,0,0,1,437.81,83.23Zm-8.5-.5a5.968,5.968,0,0,0-.656-2.819,6.348,6.348,0,0,0-1.751-2.1,7.979,7.979,0,0,0-2.468-1.284,9.226,9.226,0,0,0-2.816-.439,8.88,8.88,0,0,0-2.876.469,7.364,7.364,0,0,0-2.407,1.347,6.792,6.792,0,0,0-1.655,2.1,5.866,5.866,0,0,0-.626,2.725,5.658,5.658,0,0,0,.656,2.723,6.983,6.983,0,0,0,1.718,2.1,7.711,7.711,0,0,0,2.441,1.347,8.663,8.663,0,0,0,2.813.469,8.427,8.427,0,0,0,5.314-1.878,6.591,6.591,0,0,0,1.688-2.1A5.761,5.761,0,0,0,429.307,82.731ZM415.428,64.513a4.472,4.472,0,0,0,.562,2.284,5.22,5.22,0,0,0,1.47,1.629,6.854,6.854,0,0,0,2,1,7.361,7.361,0,0,0,2.22.343,7.47,7.47,0,0,0,2.187-.343,6.428,6.428,0,0,0,2.032-1.033,5.586,5.586,0,0,0,1.47-1.659,4.474,4.474,0,0,0,.563-2.286,4.373,4.373,0,0,0-1.845-3.692,7.254,7.254,0,0,0-4.471-1.378,6.916,6.916,0,0,0-4.376,1.408A4.486,4.486,0,0,0,415.428,64.513Zm45.453,31.863V86.3H442.186V78.785L463.508,51.93h5.751V78.722h5.5V86.3h-5.5V96.376h-8.378ZM450.627,78.722h11.192V64.576Zm61.586,4.508a12.194,12.194,0,0,1-1.28,5.633,13.466,13.466,0,0,1-3.5,4.321,15.965,15.965,0,0,1-5.16,2.786,19.829,19.829,0,0,1-6.251.969,18.735,18.735,0,0,1-6.252-1.032A15.845,15.845,0,0,1,484.641,93a13.721,13.721,0,0,1-3.439-4.445,12.671,12.671,0,0,1-1.249-5.633,9.47,9.47,0,0,1,.623-3.476,12.02,12.02,0,0,1,1.627-2.91,13.745,13.745,0,0,1,2.22-2.316,13.288,13.288,0,0,1,2.468-1.627,10.513,10.513,0,0,1-3.938-3.382,8.267,8.267,0,0,1-1.626-4.945,10.245,10.245,0,0,1,1.345-5.29,12.632,12.632,0,0,1,3.5-3.849,16.4,16.4,0,0,1,4.754-2.378,17.1,17.1,0,0,1,5.157-.814,18.207,18.207,0,0,1,5.157.782,15.35,15.35,0,0,1,4.784,2.347,13.169,13.169,0,0,1,3.5,3.851A10.047,10.047,0,0,1,510.9,64.2a8.03,8.03,0,0,1-.436,2.6,9.168,9.168,0,0,1-1.221,2.38,10.264,10.264,0,0,1-1.843,1.971,10.856,10.856,0,0,1-2.252,1.441,13.891,13.891,0,0,1,2.627,1.721,13.675,13.675,0,0,1,2.251,2.38,11.747,11.747,0,0,1,1.594,2.974A10.387,10.387,0,0,1,512.213,83.23Zm-8.5-.5a5.98,5.98,0,0,0-.657-2.819,6.336,6.336,0,0,0-1.751-2.1,7.99,7.99,0,0,0-2.468-1.284,9.22,9.22,0,0,0-2.815-.439,8.882,8.882,0,0,0-2.877.469,7.375,7.375,0,0,0-2.407,1.347,6.792,6.792,0,0,0-1.655,2.1,5.866,5.866,0,0,0-.626,2.725,5.658,5.658,0,0,0,.656,2.723,6.986,6.986,0,0,0,1.719,2.1,7.706,7.706,0,0,0,2.44,1.347,8.659,8.659,0,0,0,2.813.469,8.427,8.427,0,0,0,5.314-1.878,6.564,6.564,0,0,0,1.688-2.1A5.762,5.762,0,0,0,503.711,82.731Zm-13.88-18.217a4.472,4.472,0,0,0,.562,2.284,5.22,5.22,0,0,0,1.47,1.629,6.854,6.854,0,0,0,2,1,7.366,7.366,0,0,0,2.22.343,7.47,7.47,0,0,0,2.187-.343,6.417,6.417,0,0,0,2.032-1.033,5.586,5.586,0,0,0,1.47-1.659,4.474,4.474,0,0,0,.563-2.286,4.373,4.373,0,0,0-1.845-3.692,7.251,7.251,0,0,0-4.47-1.378,6.917,6.917,0,0,0-4.377,1.408A4.486,4.486,0,0,0,489.831,64.513Zm57.207,32.426a17.724,17.724,0,0,1-9.222-2.253,11.972,11.972,0,0,1-5.282-6.447l4.438-5.508a6.328,6.328,0,0,0,.876,1.971,9.372,9.372,0,0,0,1.907,2.129,10.417,10.417,0,0,0,3,1.72,12.51,12.51,0,0,0,7.253.282,8.935,8.935,0,0,0,2.595-1.157,5.789,5.789,0,0,0,1.781-1.847,4.821,4.821,0,0,0,.657-2.534q0-3.193-3.376-4.76t-9.44-1.563h-2.063V69.958h2.063a29.059,29.059,0,0,0,4.625-.343,14.28,14.28,0,0,0,3.69-1.065,6.372,6.372,0,0,0,2.438-1.847,4.249,4.249,0,0,0,.876-2.69,4.572,4.572,0,0,0-.6-2.38,5,5,0,0,0-1.531-1.627,7.124,7.124,0,0,0-2.095-.941,8.756,8.756,0,0,0-2.281-.312,11.912,11.912,0,0,0-6.191,1.659,9.514,9.514,0,0,0-2.033,1.626,9.864,9.864,0,0,0-1.343,1.786l-5.377-6.074a11.8,11.8,0,0,1,2.689-2.692,16.98,16.98,0,0,1,3.626-2,23.118,23.118,0,0,1,4.189-1.251,22.187,22.187,0,0,1,4.377-.439,19.73,19.73,0,0,1,6.221.939,15.546,15.546,0,0,1,4.909,2.6,12.153,12.153,0,0,1,3.218,3.88,10.217,10.217,0,0,1,1.158,4.79,8.672,8.672,0,0,1-2.251,6.166,11.635,11.635,0,0,1-6.127,3.286,11.2,11.2,0,0,1,3.844,1.408A10.9,10.9,0,0,1,561.2,77a11.559,11.559,0,0,1,1.875,3.443,12.109,12.109,0,0,1,.657,3.976,10.387,10.387,0,0,1-1.44,5.539,12.194,12.194,0,0,1-3.781,3.882,17.972,17.972,0,0,1-5.347,2.317A24.273,24.273,0,0,1,547.038,96.939ZM588.428,97a16.74,16.74,0,0,1-8.347-2.159,19.953,19.953,0,0,1-6.032-5.384A23.816,23.816,0,0,1,570.39,82.2a26.36,26.36,0,0,1-1.219-7.731,25.3,25.3,0,0,1,1.345-8.045,24.207,24.207,0,0,1,3.845-7.262,20.034,20.034,0,0,1,6.064-5.227,17.168,17.168,0,0,1,16.381.157,20.373,20.373,0,0,1,6.065,5.478,24.247,24.247,0,0,1,3.659,7.293,25.985,25.985,0,0,1,1.219,7.606A25.2,25.2,0,0,1,606.4,82.54a24.316,24.316,0,0,1-3.844,7.231A19.986,19.986,0,0,1,596.494,95,16.168,16.168,0,0,1,588.428,97ZM577.863,74.466a24.052,24.052,0,0,0,.717,5.258,17.8,17.8,0,0,0,1.939,4.79,10.959,10.959,0,0,0,3.251,3.5,8.746,8.746,0,0,0,9.473-.094,11.555,11.555,0,0,0,3.282-3.661,18.066,18.066,0,0,0,1.908-4.821,21.247,21.247,0,0,0,.624-4.976,20.733,20.733,0,0,0-.687-5.259,17.95,17.95,0,0,0-2-4.788,11.166,11.166,0,0,0-3.315-3.507,8.092,8.092,0,0,0-4.627-1.345,7.924,7.924,0,0,0-4.751,1.439A11.535,11.535,0,0,0,580.4,64.67a17.911,17.911,0,0,0-1.908,4.851A21.412,21.412,0,0,0,577.863,74.466Zm35.076,21.91a42.024,42.024,0,0,1,.593-7.543,18.7,18.7,0,0,1,1.938-5.666A14.677,14.677,0,0,1,619,78.912a27.044,27.044,0,0,1,5.377-3.382q2.061-1,4.063-1.908a20.166,20.166,0,0,0,3.626-2.1A10.444,10.444,0,0,0,634.7,68.8a6.668,6.668,0,0,0,1-3.725,5.935,5.935,0,0,0-1.719-4.475,6.7,6.7,0,0,0-4.845-1.659,11.08,11.08,0,0,0-3.345.5,15.267,15.267,0,0,0-2.97,1.282,17.148,17.148,0,0,0-2.5,1.722,20.875,20.875,0,0,0-1.939,1.815l-5.251-5.508a16.946,16.946,0,0,1,2.375-2.284,21.62,21.62,0,0,1,3.72-2.41,25.867,25.867,0,0,1,4.908-1.911,22.125,22.125,0,0,1,6.065-.782,18.877,18.877,0,0,1,6.409,1,13.452,13.452,0,0,1,4.688,2.784,11.426,11.426,0,0,1,2.876,4.29,15.132,15.132,0,0,1,.971,5.508,12.284,12.284,0,0,1-3.221,8.7,15.838,15.838,0,0,1-3.439,2.849,42.645,42.645,0,0,1-4.219,2.284q-2.379,1.189-4.283,2.286a19.612,19.612,0,0,0-3.251,2.284,9.361,9.361,0,0,0-2.063,2.5,6.03,6.03,0,0,0-.72,2.943H645.2v7.574h-32.26Zm54.018-28.732a15.664,15.664,0,0,1,5.814,1.063,14.282,14.282,0,0,1,4.658,2.943,13.1,13.1,0,0,1,3.063,4.507,14.853,14.853,0,0,1,1.1,5.759,15.025,15.025,0,0,1-1.219,6.135,14.134,14.134,0,0,1-3.408,4.758,15.38,15.38,0,0,1-5.19,3.1,19.043,19.043,0,0,1-6.564,1.1,17.98,17.98,0,0,1-8.692-2.065,14.6,14.6,0,0,1-5.877-5.7l4.815-5.006a13.747,13.747,0,0,0,4.407,3.88,10.991,10.991,0,0,0,5.408,1.441,7.746,7.746,0,0,0,5.535-2.035,7.1,7.1,0,0,0,2.156-5.415,7.814,7.814,0,0,0-.532-2.91,6.709,6.709,0,0,0-1.5-2.317,6.8,6.8,0,0,0-2.281-1.5,7.579,7.579,0,0,0-2.876-.533,8.167,8.167,0,0,0-3.814.939,7.461,7.461,0,0,0-2.876,2.565h-7.317a13.267,13.267,0,0,1,.251-1.408q0.249-1.219.626-3.129t0.812-4.258q0.438-2.348.939-4.788,1.125-5.7,2.5-12.834h21.885v7.637H662.956l-1.751,9.954a4.919,4.919,0,0,1,2.187-1.378A10.95,10.95,0,0,1,666.957,67.644Z"/>
  </g>
</svg>
