<svg xmlns="http://www.w3.org/2000/svg" xmlns:xlink="http://www.w3.org/1999/xlink" width="309" height="68.6" viewBox="-151.786 0 1103.571 245">
  <defs>
    <style>
      .cls-1 {
        fill: #fff;
        fill-rule: evenodd;
      }
    </style>
    <clipPath id="clip-path">
      <rect width="800" height="245"/>
    </clipPath>
  </defs>
  <g clip-path="url(#clip-path)">
    <path id="Forma_1" data-name="Forma 1" class="cls-1" d="M43.726,121.49a114.056,114.056,0,1,1,0,2.02v-2.02ZM168.6,104.079a42.308,42.308,0,0,1,0-5.233c0.945-5.233-1.572-6.43-6.288-6.059a122.635,122.635,0,0,1-15.091,0c-3.616,0-4.668,1.2-4.615,4.713v81.522c0,3.973,1.471,5.233,5.242,4.915h16.981c3.825,0,5.236-1.047,5.236-4.969V139.454a44.9,44.9,0,0,1,1.208-11.813,14.668,14.668,0,0,1,15.246-12.119,13.882,13.882,0,0,1,14.31,12.342,40.743,40.743,0,0,1,.942,9.355v41.839c0,3.508.991,4.815,4.607,4.714h18.891c2.624,0,4.405-.311,4.351-3.663-0.262-19.452.365-38.958-.674-58.362-0.9-16.313-8.541-25.255-21.7-27.767a39.317,39.317,0,0,0-38.354,10.1h-0.3ZM93.041,138.068v41.4c0,3.608,1.1,4.759,4.668,4.651h23.26c3.2,0,4.459-1.046,4.459-4.336V96.808c0-3.035-1.207-3.925-4.142-3.871H98.016c-3.873,0-5.236,1.047-4.979,4.915,0.372,13.338,0,26.778,0,40.171Zm0-74.315a16.141,16.141,0,0,0,32.221,1.966V65.585a10.376,10.376,0,0,0,0-1.832A16.654,16.654,0,0,0,109.124,47.8a16.435,16.435,0,0,0-16.09,16.161Zm259.612,39.531v42.265H339.814V79.6h9.959L384.2,122.885V79.7h12.839v65.853H386.617Zm78.922,43.193a27.1,27.1,0,0,1-10.608-2A23.879,23.879,0,0,1,407.7,131.057a25.577,25.577,0,0,1-1.815-9.57,27.024,27.024,0,0,1,1.769-9.8,23.807,23.807,0,0,1,5.119-8.075,24.411,24.411,0,0,1,8.142-5.532,27.134,27.134,0,0,1,10.749-2.044,26.481,26.481,0,0,1,10.658,2.044,24.517,24.517,0,0,1,8,5.479,23.353,23.353,0,0,1,5.024,7.989,26.6,26.6,0,0,1,1.721,9.475q0,1.206-.046,2.32a9.629,9.629,0,0,1-.233,1.86H419.1a14.5,14.5,0,0,0,1.4,5.108,12.55,12.55,0,0,0,6.888,6.223,13.191,13.191,0,0,0,4.655.836,14.428,14.428,0,0,0,7.017-1.811,9.6,9.6,0,0,0,4.514-4.785l10.7,2.974a21.731,21.731,0,0,1-8.608,9.148,26.732,26.732,0,0,1-14.093,3.583Zm12.654-29.359a12.937,12.937,0,0,0-4.05-8.776,13.073,13.073,0,0,0-13.4-2.416,12.255,12.255,0,0,0-3.862,2.462,12.734,12.734,0,0,0-2.747,3.81,13.369,13.369,0,0,0-1.256,4.921h25.315ZM470.662,96.87L481.178,112.1l0.746,1.671,0.932-1.671L493.279,96.87h12.839l-17.4,24.435L506.4,145.546H493.56l-10.8-15.141-0.837-1.578-0.747,1.578-10.7,15.141H457.635l17.586-24.241L457.9,96.875h12.75Zm55.746,6.408v42.271H513.569V79.6h9.957l34.434,43.284V79.7H570.8v65.853H560.375Zm78.922,43.193a27.1,27.1,0,0,1-10.608-2,23.879,23.879,0,0,1-13.263-13.421,25.557,25.557,0,0,1-1.815-9.57,27,27,0,0,1,1.769-9.8,23.792,23.792,0,0,1,5.119-8.075,24.408,24.408,0,0,1,8.14-5.532,27.145,27.145,0,0,1,10.749-2.044,26.463,26.463,0,0,1,10.656,2.044,24.521,24.521,0,0,1,8,5.479,23.353,23.353,0,0,1,5.024,7.989,26.6,26.6,0,0,1,1.721,9.475c0,0.8-.017,1.578-0.045,2.32a9.553,9.553,0,0,1-.234,1.86H592.859a14.475,14.475,0,0,0,1.395,5.108,12.549,12.549,0,0,0,6.889,6.223,13.182,13.182,0,0,0,4.654.836,14.428,14.428,0,0,0,7.017-1.811,9.6,9.6,0,0,0,4.514-4.785l10.7,2.974a21.719,21.719,0,0,1-8.608,9.148,26.726,26.726,0,0,1-14.093,3.589v-0.008Zm12.655-29.353a12.655,12.655,0,0,0-17.45-11.192,12.258,12.258,0,0,0-3.864,2.462,12.769,12.769,0,0,0-2.747,3.81,13.407,13.407,0,0,0-1.255,4.921h25.316Zm63.845,28.423-9.406-29.35-9.306,29.35H649.724L632.881,96.87h12.936l11.168,33.808,9.68-33.808H678.39l9.68,33.808L699.238,96.87h12.751L695.33,145.541h-13.5Zm54.54,0.938a37.846,37.846,0,0,1-12.007-1.944,29.269,29.269,0,0,1-10.048-5.576l4.65-7.8a40,40,0,0,0,8.7,4.785,23.344,23.344,0,0,0,8.423,1.626,10.66,10.66,0,0,0,5.863-1.393,4.487,4.487,0,0,0,2.142-3.995,3.988,3.988,0,0,0-2.512-3.807,54.415,54.415,0,0,0-8.19-2.786q-4.747-1.3-8.1-2.51a20.756,20.756,0,0,1-5.4-2.738,9.338,9.338,0,0,1-2.976-3.532,11.191,11.191,0,0,1-.931-4.785,15.122,15.122,0,0,1,1.44-6.686,14.584,14.584,0,0,1,4.05-5.063,18.766,18.766,0,0,1,6.1-3.2,24.823,24.823,0,0,1,7.583-1.114,32.7,32.7,0,0,1,10.286,1.581,25.054,25.054,0,0,1,8.794,5.109l-5.025,7.523A29.321,29.321,0,0,0,742,106.08a19.8,19.8,0,0,0-6.933-1.3,10.088,10.088,0,0,0-5.308,1.3,4.522,4.522,0,0,0-2.137,4.186,3.987,3.987,0,0,0,.512,2.136,4.477,4.477,0,0,0,1.625,1.486,16,16,0,0,0,2.935,1.255q1.813,0.6,4.512,1.253,5.025,1.3,8.608,2.6a23.614,23.614,0,0,1,5.865,2.971,10.6,10.6,0,0,1,3.35,3.855,11.867,11.867,0,0,1,1.071,5.249,13.534,13.534,0,0,1-5.306,11.286Q745.495,146.48,736.37,146.479Z"/>
  </g>
</svg>
