<svg xmlns="http://www.w3.org/2000/svg" width="434.918" height="434.918" viewBox="0 0 434.918 434.918">
  <g id="Capa_1" data-name="Capa 1">
    <circle cx="217.459" cy="217.459" r="217.459" fill="#0055b8"/>
  </g>
  <g id="Capa_4" data-name="Capa 4">
    <path d="M204.233,292.871c-8.111-8.111-11.587-19.7-11.587-33.6,0-17.38,5.793-32.442,17.38-47.5s25.491-22.015,42.871-22.015c9.269,0,17.38,2.318,23.173,8.111q5.214,5.214,6.952,13.9l5.793-17.38h26.65l-18.539,61.409c-1.159,4.635-2.317,8.111-3.476,11.587v4.635a21.489,21.489,0,0,0,2.317,8.11c2.318,2.318,4.635,3.476,9.27,3.476,8.11,0,16.221-5.793,24.332-16.221s11.587-24.332,11.587-41.712c0-25.491-11.587-44.029-33.6-55.616-13.9-6.952-28.967-10.428-46.347-10.428-31.284,0-57.933,9.269-76.472,28.967-17.38,18.538-25.491,39.394-25.491,63.726,0,27.808,10.429,48.664,30.126,64.886q27.809,20.856,66.044,20.856a140.985,140.985,0,0,0,49.823-9.27,127.085,127.085,0,0,0,26.649-15.062l3.476-2.318,10.428,16.222A128.845,128.845,0,0,1,302.719,350.8c-15.062,5.794-31.284,8.111-48.664,8.111-39.394,0-68.361-11.587-90.376-35.919a105.13,105.13,0,0,1-26.649-70.679c0-30.125,11.586-56.774,33.6-77.63,23.174-22.015,53.3-33.6,89.218-33.6,28.966,0,54.457,8.111,73,23.173,19.7,15.063,30.125,37.078,30.125,63.727a82.7,82.7,0,0,1-19.7,54.458c-12.746,15.062-27.808,23.173-44.03,23.173-8.11,0-15.062-2.317-19.7-6.952s-6.952-10.428-6.952-15.063v-4.634c-3.476,6.952-8.111,11.586-11.587,16.221-8.11,6.952-17.38,10.428-28.966,10.428A35.257,35.257,0,0,1,204.233,292.871Zm67.2-79.948a14.876,14.876,0,0,0-11.586-4.635c-9.27,0-18.539,5.793-25.491,18.539-6.952,11.586-10.428,24.332-10.428,34.76,0,6.952,1.159,12.745,4.635,16.221,3.476,4.635,8.11,5.793,12.745,5.793,10.428,0,18.539-8.11,24.332-23.173s9.269-26.649,9.269-35.919C276.07,221.033,273.753,216.4,271.435,212.923Z" transform="translate(-32.541 -32.541)" fill="#fff"/>
  </g>
</svg>
