<svg xmlns="http://www.w3.org/2000/svg" width="39.821" height="30.296" viewBox="0 0 39.821 30.296">
  <g id="Capa_2" data-name="Capa 2">
    <g id="Layer_1" data-name="Layer 1">
      <path d="M35.748,1.876H12.814l.071.177L14.6,6.314,35.51,6.33a9.592,9.592,0,0,1,1.179.138l-.044-.015V2.772A.9.9,0,0,0,35.748,1.876Z" fill="#ff4d00"/>
      <path d="M35.51,6.33,14.6,6.314,12.885,2.053,12.16.25H2.151a1.9,1.9,0,0,0-1.9,1.9V28.145a1.9,1.9,0,0,0,1.9,1.9H37.669a1.9,1.9,0,0,0,1.9-1.9V10.26a3.948,3.948,0,0,0-2.882-3.792A9.592,9.592,0,0,0,35.51,6.33ZM39.149,25.8v1.419H.675V25.8Z" fill="#fff" stroke="#ff4d00" stroke-miterlimit="10" stroke-width="0.5"/>
      <rect x="0.675" y="25.799" width="38.474" height="1.419" fill="#ff4d00"/>
    </g>
  </g>
</svg>
