<svg id="Capa_1" data-name="Capa 1" xmlns="http://www.w3.org/2000/svg" width="339.604" height="295.686" viewBox="0 0 339.604 295.686">
  <g>
    <path d="M107.584,183.375H50.265L62.15,171.5a5.829,5.829,0,0,0,0-8.257,5.864,5.864,0,0,0-8.275,0L32.888,184.219l-.7,2.431-1.3,0a5.732,5.732,0,0,0-.571,2.158l-.012.194a6.37,6.37,0,0,0,.044.965,5.806,5.806,0,0,0,1.392,3.089L53.878,215.19a5.988,5.988,0,0,0,8.272,0,5.832,5.832,0,0,0,0-8.257L50.265,195.059h57.319Z" transform="translate(-30.307 -52.295)" fill="#ff4d00"/>
    <path d="M131.251,123.074,83.061,74.911h18.677a5.841,5.841,0,1,0,0-11.681l-31.718.005-1.5.692-.881-.556a5.777,5.777,0,0,0-2.536,1.3l-.116.1a6.221,6.221,0,0,0-.68.742l-.1.124a5.842,5.842,0,0,0-1.1,3.037l-.009,33.16a5.84,5.84,0,0,0,5.845,5.838,5.85,5.85,0,0,0,5.848-5.838V83.178l48.64,48.607Z" transform="translate(-30.307 -52.295)" fill="#ff4d00"/>
    <path d="M101.738,315.2a5.841,5.841,0,1,0,0-11.681H83.061l36.66-36.641-7.433-9.1-37.5,37.47V276.6a5.849,5.849,0,0,0-9.984-4.128A5.784,5.784,0,0,0,63.1,276.6v32.686a6.637,6.637,0,0,0,.784,3l.23-.023,1.338,1.782a5.732,5.732,0,0,0,2.171,1.007l.868-.556,1.536.7Z" transform="translate(-30.307 -52.295)" fill="#ff4d00"/>
    <path d="M336.355,211.062a5.8,5.8,0,0,0,1.712,4.131,5.991,5.991,0,0,0,8.274,0l21.8-21.794a5.823,5.823,0,0,0,1.762-4.411l-.013-.174a5.707,5.707,0,0,0-.975-2.853l-1.156-.355-.429-1.379-21-20.986a5.846,5.846,0,1,0-8.272,8.262l11.884,11.875H292.632v11.684h57.319l-11.884,11.877A5.787,5.787,0,0,0,336.355,211.062Z" transform="translate(-30.307 -52.295)" fill="#ff4d00"/>
    <path d="M335.409,105.962a5.8,5.8,0,0,0,1.712-4.129V69.147a6.216,6.216,0,0,0-1.166-3.583l-.035-.042a6.55,6.55,0,0,0-.682-.747l-.124-.106a5.761,5.761,0,0,0-2.558-1.3l-.965.6-1.5-.747-1.054-.01-30.56.02a5.841,5.841,0,1,0,0,11.681h18.678l-48.6,48.57,8.123,8.406,48.744-48.709v18.655a5.851,5.851,0,0,0,9.984,4.129Z" transform="translate(-30.307 -52.295)" fill="#ff4d00"/>
    <path d="M332.546,315.07a5.8,5.8,0,0,0,2.568-1.305l.139-.122a6.621,6.621,0,0,0,.667-.732l.038-.047a5.853,5.853,0,0,0,1.151-3.106l.012-33.158a5.848,5.848,0,0,0-11.7,0v18.653l-33.3-33.279-8.3,8.237,33.329,33.309H298.478a5.841,5.841,0,1,0,0,11.681l31.852,0,1.464-.586Z" transform="translate(-30.307 -52.295)" fill="#ff4d00"/>
    <path d="M148.14,259.964l3.441.586,10.113,50.468c5.6,22.362,20.7,36.964,38.41,36.964s32.875-14.8,38.592-37.7l9.941-49.732,3.444-.588c18.194-3.1,19.477-16.757,19.425-38.874-3.322-39.616-12.825-61.953-33.877-79.261l-4.074-3.35,3.5-3.947a49.574,49.574,0,1,0-73.888,0l3.5,3.945-4.078,3.352c-21.063,17.313-30.578,39.9-33.935,80.571C128.676,243.557,129.986,256.875,148.14,259.964Zm14.1-158.133a37.873,37.873,0,1,1,37.872,37.849A37.9,37.9,0,0,1,162.235,101.831Zm8.739,48.252a5.813,5.813,0,0,0,1.017-1.047l3.084-3.88,3.945,1.327a50.14,50.14,0,0,0,6.19,2.33l1.7.541,11.624,17.42-14.507,36.241,16.08,21.427,16.082-21.427-14.507-36.241,11.624-17.422,1.7-.539a50.109,50.109,0,0,0,6.2-2.335l3.7-1.751,3.325,4.3a5.872,5.872,0,0,0,1.032,1.064c16.246,13,27.029,29.491,30.575,71.471.017,22.184.017,27.355-16.006,27.355a5.863,5.863,0,0,0-5.734,4.7l-10.8,54.1c-4.359,17.459-15.01,28.587-27.185,28.587-12.16,0-22.759-10.927-27-27.835l-10.986-54.855a5.857,5.857,0,0,0-5.734-4.694c-16,0-16.013-5.511-16.05-26.012C143.932,179.549,154.291,163.427,170.974,150.083Z" transform="translate(-30.307 -52.295)" fill="#ff4d00"/>
  </g>
</svg>
