<svg id="Capa_1" data-name="Capa 1" xmlns="http://www.w3.org/2000/svg" width="396.553" height="400.508" viewBox="0 0 396.553 400.508">
  <ellipse cx="198.277" cy="200.254" rx="198.277" ry="200.254" fill="#fff"/>
  <g>
    <path d="M157.161,244.067c13.268,0,26.539.119,39.805-.075,3.759-.055,5.32.765,5.1,4.912-.361,6.953-.242,13.944-.035,20.91.095,3.223-.846,4.3-4.188,4.253-13.591-.178-27.185-.074-41.518-.074,1.553,3.148,4.021,4.812,5.982,6.828,4.629,4.759,9.31,9.473,14.1,14.066,1.88,1.8,2.5,3.046.264,5.171-5.658,5.369-11.128,10.939-16.566,16.533-1.57,1.616-2.512,1.931-4.315.114q-27.533-27.754-55.285-55.289c-1.956-1.942-1.489-3.038.186-4.706q27.53-27.4,54.923-54.947c1.885-1.9,2.953-1.8,4.719.033,5.3,5.492,10.655,10.95,16.232,16.161,2.453,2.292,1.744,3.581-.28,5.526-6.662,6.4-13.17,12.964-19.737,19.464Z" transform="translate(-51.447 -53.321)" fill="#ff4d00"/>
    <path d="M344.074,274.254c-13.269,0-26.539-.118-39.805.076-3.76.055-5.32-.766-5.105-4.912.36-6.954.242-13.944.035-20.911-.1-3.222.846-4.3,4.187-4.253,13.591.178,27.186.074,41.519.074-1.553-3.148-4.021-4.811-5.982-6.827-4.63-4.76-9.31-9.474-14.1-14.067-1.88-1.8-2.5-3.046-.265-5.171,5.658-5.368,11.129-10.938,16.566-16.533,1.571-1.616,2.512-1.931,4.315-.113q27.534,27.753,55.285,55.289c1.956,1.941,1.49,3.038-.185,4.7q-27.531,27.4-54.923,54.947c-1.886,1.9-2.954,1.8-4.719-.032-5.3-5.492-10.656-10.951-16.232-16.162-2.453-2.292-1.744-3.58.28-5.526,6.662-6.4,13.17-12.964,19.737-19.464Z" transform="translate(-51.447 -53.321)" fill="#ff4d00"/>
    <path d="M265.711,165.7c0,13.269-.119,26.539.075,39.8.055,3.76-.765,5.32-4.912,5.105-6.953-.36-13.944-.242-20.91-.035-3.223.1-4.3-.846-4.254-4.187.179-13.591.075-27.186.075-41.519-3.148,1.553-4.812,4.021-6.828,5.982-4.759,4.63-9.473,9.31-14.066,14.1-1.8,1.88-3.046,2.5-5.171.265-5.369-5.658-10.939-11.129-16.533-16.566-1.616-1.571-1.932-2.512-.114-4.316q27.754-27.533,55.289-55.284c1.941-1.956,3.038-1.49,4.706.185q27.4,27.531,54.947,54.923c1.9,1.886,1.8,2.953-.033,4.719-5.492,5.3-10.95,10.656-16.161,16.232-2.292,2.453-3.581,1.744-5.526-.28-6.4-6.662-12.964-13.17-19.464-19.737Z" transform="translate(-51.447 -53.321)" fill="#ff4d00"/>
    <path d="M235.524,352.617c0-13.269.118-26.539-.076-39.805-.055-3.759.766-5.32,4.912-5.105,6.954.361,13.944.242,20.91.035,3.223-.1,4.3.846,4.254,4.187-.178,13.592-.074,27.186-.074,41.519,3.148-1.553,4.811-4.021,6.827-5.982,4.76-4.629,9.474-9.31,14.067-14.1,1.8-1.88,3.046-2.5,5.171-.264,5.368,5.657,10.938,11.128,16.533,16.566,1.616,1.57,1.931,2.512.113,4.315q-27.753,27.533-55.289,55.284c-1.941,1.956-3.038,1.49-4.705-.185q-27.4-27.529-54.947-54.923c-1.9-1.885-1.8-2.953.032-4.719,5.492-5.3,10.951-10.655,16.162-16.232,2.292-2.453,3.58-1.744,5.525.28,6.4,6.662,12.964,13.17,19.465,19.737Z" transform="translate(-51.447 -53.321)" fill="#ff4d00"/>
  </g>
</svg>
