<svg id="Capa_2" data-name="Capa 2" xmlns="http://www.w3.org/2000/svg" width="282.375" height="312.388" viewBox="0 0 282.375 312.388">
  <g>
    <path d="M207.2,199.779l11.527-7.06c-3.56-3.354-7.31-6.606-10.927-9.686l-4.751-4.042,3.755-3.57A73.359,73.359,0,0,0,229.836,121.8c0-40.728-32.942-73.861-73.433-73.861S82.971,81.074,82.971,121.8a73.328,73.328,0,0,0,23.247,53.81L110,179.178l-4.524,3.855C78.9,205.662,65.92,219.3,61.112,281.417c.013,8.639,5.578,16.623,16.108,22.733,16.19,9.4,45.876,15.012,79.41,15.012,8.519,0,17.01-.394,25.3-1.166l0-12.894c-5.337.525-10.842.883-16.429,1.065l-8.027.261.064.08-1.238-.041-1.022.032.055-.066-8.039-.275c-27.384-.94-50.564-5.813-63.593-13.369l-.007,0c-9.531-5.546-9.588-9.349-9.61-10.781,4.576-58.975,17.075-69.619,39.765-88.943l7.474-6.382,2.754,1.361c1.483.733,2.967,1.461,4.5,2.1l1.218.506,20.785,28.73-22.244,51.249L156.4,305.115l28.067-34.492-22.244-51.249,20.783-28.733,1.222-.5c1.632-.673,3.205-1.443,4.773-2.228l2.763-1.384,7.66,6.539C202.178,195.407,204.766,197.615,207.2,199.779ZM156.4,182.551A60.749,60.749,0,1,1,216.846,121.8,60.664,60.664,0,0,1,156.4,182.551Z" transform="translate(-59.971 -46.8)" fill="#ff4d00" stroke="#fff" stroke-miterlimit="10" stroke-width="2.28"/>
    <path d="M233.644,313.071l3.776,2.85a65.657,65.657,0,1,0-12.847-12.838l2.853,3.775-3.818,2.8a9.856,9.856,0,0,1-.936.592L182.8,350.1a5.344,5.344,0,0,0,0,7.573,5.5,5.5,0,0,0,7.592,0l39.874-39.852a9.732,9.732,0,0,1,.585-.926Zm-11.609-49.364a54.791,54.791,0,1,1,54.79,54.758A54.837,54.837,0,0,1,222.035,263.707Z" transform="translate(-59.971 -46.8)" fill="#ff4d00"/>
  </g>
</svg>
