<svg id="Capa_1" data-name="Capa 1" xmlns="http://www.w3.org/2000/svg" width="326.846" height="397.175" viewBox="0 0 326.846 397.175">
  <g>
    <path d="M228,314.25a8.714,8.714,0,0,0-1.04-4.852l-.347-.347a38.544,38.544,0,0,0-7.625-6.585c-3.119-1.733-6.932-3.813-11.438-5.892l-11.784,29.808c22.529,0,28.075-3.813,28.421-4.16C226.268,320.836,228,319.1,228,314.25Z" transform="translate(-85.202 -52.564)" fill="#ff4d00"/>
    <path d="M278.259,97.622c12.824,3.466,22.182,6.239,29.808,9.359l12.131,5.2-13.171,47.831h.346a185.176,185.176,0,0,1,37.434,3.813A241.608,241.608,0,0,1,376,173.182l8.665,3.466L402,112.873l-6.239-2.773c-6.586-3.119-15.6-5.892-26.689-8.665a238.123,238.123,0,0,0-32.234-5.546V52.564H266.474V94.849C270.633,95.889,274.446,96.582,278.259,97.622Z" transform="translate(-85.202 -52.564)" fill="#ff4d00"/>
    <path d="M251.223,309.051c-3.812-1.04-7.278-2.079-10.744-3.119a27.607,27.607,0,0,1,1.386,8.318c0,10.4-5.2,16.291-9.705,19.064-5.892,4.506-18.717,6.932-36.74,6.932h-5.2l-5.546,14.211,6.586,3.119a278.386,278.386,0,0,0,29.808,11.438c12.131,4.159,27.382,7.279,45.405,9.012v7.625c2.426-1.04,4.506-2.08,6.585-3.119a87.963,87.963,0,0,0,25.3-19.064,71.075,71.075,0,0,0,13.864-24.262,82.237,82.237,0,0,0,4.159-26.342v-.347c-4.852,1.04-12.131,2.08-23.569,2.08A162.82,162.82,0,0,1,251.223,309.051Z" transform="translate(-85.202 -52.564)" fill="#ff4d00"/>
    <path d="M405.116,260.873a80.667,80.667,0,0,0-20.45-25.649,143.1,143.1,0,0,0-29.461-18.716c-11.092-5.2-23.223-10.052-36.047-14.558a200.763,200.763,0,0,1-20.8-7.278,76.148,76.148,0,0,1-11.785-5.546l-5.2-2.08a223.809,223.809,0,0,0-32.581-9.7,172.3,172.3,0,0,0-38.473-4.159,71.862,71.862,0,0,0-14.9,1.387c0,1.733-.347,3.466-.347,5.2a64.883,64.883,0,0,0,1.387,14.557,41.263,41.263,0,0,0,6.932,2.773,212.57,212.57,0,0,0,21.489,7.625,382.774,382.774,0,0,1,39.167,15.944c13.864,6.586,24.609,13.518,33.274,21.143a91.589,91.589,0,0,1,23.569,29.808,78.411,78.411,0,0,1,5.892,14.9l.693.693a15.274,15.274,0,0,1,2.427,9.012,12.986,12.986,0,0,1-.347,3.813c.347,3.812.693,7.971.693,12.131a98.619,98.619,0,0,1-4.852,30.5,87.97,87.97,0,0,1-16.637,29.115c-7.279,8.318-16.984,15.944-29.462,22.529-4.159,2.08-8.318,3.813-12.824,5.546V426.2h70.361V376.293a107.552,107.552,0,0,0,30.848-10.052c10.4-5.546,19.063-11.784,25.648-19.41a65.613,65.613,0,0,0,14.558-24.955,85.4,85.4,0,0,0,4.159-26.342C412.048,282.363,409.622,270.925,405.116,260.873Z" transform="translate(-85.202 -52.564)" fill="#ff4d00"/>
    <path d="M251.57,163.477q13.518,3.12,26,7.279a13.98,13.98,0,0,1,4.853-6.239,32.408,32.408,0,0,1,9.7-3.466l11.091-40.9-1.04-.347c-6.585-2.773-15.944-5.546-27.728-8.665a246.886,246.886,0,0,0-31.541-5.546,31.749,31.749,0,0,0-4.853,2.426c-10.051,5.2-18.37,11.438-24.609,19.064a71.765,71.765,0,0,0-14.21,24.955,75.42,75.42,0,0,0-2.427,8.319c3.813-.347,8.319-.693,13.171-.693A176.821,176.821,0,0,1,251.57,163.477Z" transform="translate(-85.202 -52.564)" fill="#ff4d00"/>
    <path d="M288.31,252.555c-7.625-6.932-17.677-13.171-30.155-19.064-11.437-5.545-24.262-10.4-37.779-15.25-6.933-2.08-13.171-4.506-18.371-6.586.347.347.347,1.04.694,1.387a75.29,75.29,0,0,0,19.41,23.569,107.847,107.847,0,0,0,26,15.6c9.358,4.159,18.717,7.625,28.422,11.091,9.7,3.12,18.023,6.239,25.3,9.012,1.386.693,3.119,1.04,4.506,1.733A80.483,80.483,0,0,0,288.31,252.555Z" transform="translate(-85.202 -52.564)" fill="#ff4d00"/>
  </g>
  <path d="M298.362,363.468a71.075,71.075,0,0,0,13.864-24.262,82.237,82.237,0,0,0,4.159-26.342c0-12.824-2.426-24.262-7.972-34.661a83.419,83.419,0,0,0-20.1-25.648c-7.625-6.932-17.677-13.171-30.155-19.064-11.438-5.545-24.262-10.4-37.779-15.25-8.666-2.773-16.291-5.546-22.53-7.972a134.248,134.248,0,0,1-15.6-7.279,24.152,24.152,0,0,1-8.665-7.972l-.347-.693a22.753,22.753,0,0,1-2.426-11.091c0-6.932,3.119-12.478,9.012-16.984,6.239-4.506,16.637-6.585,30.5-6.585a195.735,195.735,0,0,1,41.246,4.159,253.1,253.1,0,0,1,34.66,10.4l2.08,1.04,14.9-54.764-1.04-.346c-6.585-2.773-15.944-5.546-27.728-8.666a214.624,214.624,0,0,0-33.274-5.545l-5.892-1.387v-45.4H173.93v47.138l-5.545,1.04c-10.745,2.426-20.45,5.546-28.422,9.7A77.071,77.071,0,0,0,115.7,135.749a82.486,82.486,0,0,0-13.518,24.609,88.071,88.071,0,0,0-4.506,28.075c0,12.478,2.427,23.222,7.279,32.581,4.506,8.318,11.091,15.943,19.41,22.876a115.207,115.207,0,0,0,26.689,15.6c9.358,3.812,19.409,7.972,29.461,11.438s19.41,6.932,26.689,10.051a145.51,145.51,0,0,1,19.063,9.012l.346.347a44.482,44.482,0,0,1,11.092,9.705c3.812,4.5,4.159,10.051,4.159,13.517,0,10.4-5.2,16.291-9.705,19.063-5.892,4.506-18.717,6.933-36.74,6.933a168.237,168.237,0,0,1-46.1-6.239,222.066,222.066,0,0,1-37.78-13.171l-2.08-1.04-20.8,53.03,1.386.694a283.983,283.983,0,0,0,31.195,12.131c12.131,4.159,27.381,7.278,47.138,9.358l6.239.693V447h61.695V393.623l5.546-1.04c12.478-2.426,22.876-5.546,31.541-10.051A91.031,91.031,0,0,0,298.362,363.468Z" transform="translate(-85.202 -52.564)" fill="#fff" stroke="#ff4d00" stroke-miterlimit="10" stroke-width="5.478"/>
</svg>
