<?xml version="1.0" encoding="utf-8"?>
<!-- Generator: Adobe Illustrator 24.1.2, SVG Export Plug-In . SVG Version: 6.00 Build 0)  -->
<svg version="1.1" id="Capa_1" xmlns="http://www.w3.org/2000/svg" xmlns:xlink="http://www.w3.org/1999/xlink" x="0px" y="0px"
	 viewBox="0 0 39.8 30.3" style="enable-background:new 0 0 39.8 30.3;" xml:space="preserve">
<style type="text/css">
	.st0{fill:#FFFFFF;}
	.st1{fill:#FF4D00;}
</style>
<ellipse class="st0" cx="19.8" cy="15.4" rx="14.3" ry="14.5"/>
<g>
	<path class="st1" d="M26.8,12l-3.5,0c-0.4,0-0.8-0.3-0.8-0.7c0-0.1,0-0.3,0.1-0.4c0.5-0.9,1.1-2.3,1.5-3.7c0.1-0.6-0.2-1.2-0.8-1.3
		c-0.1,0-0.2,0-0.3,0h-0.2c-0.6,0-1.2,0.4-1.4,1c-0.4,1.2-1.3,2.7-2.2,3.7l-0.5,0.5c-0.6,0.7-1,1.6-0.9,2.5l0.1,7.9
		c0,1.2,1,2.2,2.2,2.2c0,0,0,0,0,0l2.1,0l1.2,0l2.1,0c1.1,0,2-0.8,2.1-1.9l1.1-7.3c0.2-1.1-0.6-2.2-1.7-2.3C27,12.1,26.9,12,26.8,12
		z"/>
	<path class="st1" d="M16.6,13.4l0.1,9c0,0.7-0.5,1.3-1.2,1.3c0,0,0,0,0,0l-3.3,0c-0.7,0-1.3-0.5-1.3-1.2c0,0,0,0,0,0l-0.1-9
		c0-0.7,0.5-1.3,1.2-1.3c0,0,0,0,0,0l3.3,0C16.1,12.2,16.6,12.7,16.6,13.4C16.6,13.4,16.6,13.4,16.6,13.4z M14.8,21.8
		c0-0.5-0.4-0.9-1-0.9c-0.5,0-0.9,0.4-0.9,1c0,0.5,0.4,0.9,1,0.9c0,0,0,0,0,0C14.3,22.8,14.8,22.3,14.8,21.8L14.8,21.8z"/>
</g>
</svg>
