<svg id="Capa_1" data-name="Capa 1" xmlns="http://www.w3.org/2000/svg" width="396.553" height="400.508" viewBox="0 0 396.553 400.508">
  <ellipse cx="198.277" cy="200.254" rx="198.277" ry="200.254" fill="#fff"/>
  <g id="Capa_2" data-name="Capa 2">
    <g id="Capa_1-2" data-name="Capa 1-2">
      <path d="M209.557,294.232a18.994,18.994,0,0,1-1.752,1.108l-74.678,74.626a10.011,10.011,0,0,0-.025,14.158l.025.026a10.293,10.293,0,0,0,14.219,0l74.673-74.631a17.95,17.95,0,0,1,1.095-1.735Z" transform="translate(-51.447 -57.321)" fill="#ff4d00"/>
      <path d="M291.78,137.912a91.965,91.965,0,1,0,91.965,91.965A91.965,91.965,0,0,0,291.78,137.912Zm0,172.033a80.069,80.069,0,1,1,80.068-80.068A80.069,80.069,0,0,1,291.78,309.945Z" transform="translate(-51.447 -57.321)" fill="#ff4d00" stroke="#ff4d00" stroke-miterlimit="10" stroke-width="6.569"/>
    </g>
  </g>
</svg>
