<svg xmlns="http://www.w3.org/2000/svg" viewBox="0 0 83.98 83.98"><defs><style>.cls-1,.cls-5{fill:#fff;}.cls-1{stroke:#d61016;}.cls-1,.cls-3,.cls-4,.cls-6{stroke-miterlimit:10;}.cls-1,.cls-4{stroke-width:1.5px;}.cls-2,.cls-4{fill:#d61016;}.cls-3,.cls-6{fill:none;}.cls-3,.cls-4,.cls-6{stroke:#fff;}.cls-3{stroke-width:3px;}</style></defs><g id="Capa_2" data-name="Capa 2"><circle class="cls-1" cx="41.99" cy="41.99" r="41.24"/></g><g id="Capa_8" data-name="Capa 8"><circle class="cls-2" cx="41.29" cy="42.18" r="30.29"/><circle class="cls-2" cx="41.25" cy="42.31" r="24.91"/><circle class="cls-3" cx="41.32" cy="41.99" r="26.36"/><path class="cls-4" d="M40.06,67.69s.3-6.94-7.28-24.66l25.06-10.4S65.27,49.5,65.17,57Z" transform="translate(-7.91 -7.78)"/><path class="cls-5" d="M41.69,46.26l-1.53-3.8.53-.21,2,1.43a10.37,10.37,0,0,1,1.18,1h0a16.08,16.08,0,0,1-.68-1.54l-.64-1.59.46-.18,1.53,3.79-.5.2-2-1.44a12.43,12.43,0,0,1-1.22-1h0c.23.47.42.92.67,1.55l.66,1.63Z" transform="translate(-7.91 -7.78)"/><path class="cls-5" d="M45.14,43.39a.94.94,0,0,0,1.32.57,2,2,0,0,0,.7-.44l.23.32a2.42,2.42,0,0,1-.84.53,1.37,1.37,0,0,1-1.9-.83,1.44,1.44,0,0,1,.69-2,1.24,1.24,0,0,1,1.64.83.94.94,0,0,1,.08.24Zm1.32-.94a.77.77,0,0,0-1-.53A.88.88,0,0,0,45,43Z" transform="translate(-7.91 -7.78)"/><path class="cls-5" d="M47.31,40.83l.91,1.24c.21.28.39.53.56.79h0c0-.3-.07-.63-.1-1l-.12-1.57.42-.17,1,1.2a8.71,8.71,0,0,1,.6.79h0a8,8,0,0,1-.15-1l-.16-1.52.49-.2L51,42.52l-.45.18-.94-1.13a9.9,9.9,0,0,1-.61-.8h0a7.16,7.16,0,0,1,.12,1l.08,1.47-.45.18L46.8,41Z" transform="translate(-7.91 -7.78)"/><path class="cls-5" d="M52.05,41.5a1.34,1.34,0,0,0,.73-.06c.37-.15.46-.4.37-.62s-.29-.31-.71-.3-.9-.15-1-.48A.9.9,0,0,1,52,38.86a1.47,1.47,0,0,1,.74-.1l0,.41a1,1,0,0,0-.62.07.42.42,0,0,0-.31.55c.09.23.3.26.71.26s.88.12,1,.53,0,1-.69,1.23a1.62,1.62,0,0,1-.84.12Z" transform="translate(-7.91 -7.78)"/><line class="cls-6" x1="39.6" y1="39.53" x2="49.92" y2="35.55"/><line class="cls-6" x1="40.39" y1="41.57" x2="50.71" y2="37.59"/><line class="cls-6" x1="41.16" y1="43.57" x2="51.48" y2="39.59"/><line class="cls-6" x1="41.85" y1="45.34" x2="52.16" y2="41.36"/><line class="cls-6" x1="42.54" y1="47.13" x2="52.85" y2="43.16"/><line class="cls-6" x1="43.31" y1="49.13" x2="53.63" y2="45.15"/><line class="cls-6" x1="43.99" y1="50.91" x2="54.31" y2="46.93"/><line class="cls-6" x1="31.63" y1="42.6" x2="38.44" y2="39.98"/><line class="cls-6" x1="32.41" y1="44.64" x2="39.22" y2="42.02"/><line class="cls-6" x1="33.19" y1="46.64" x2="39.99" y2="44.02"/><line class="cls-6" x1="33.87" y1="48.42" x2="40.68" y2="45.79"/><line class="cls-6" x1="34.56" y1="50.21" x2="41.37" y2="47.58"/><line class="cls-6" x1="35.33" y1="52.21" x2="42.14" y2="49.58"/><line class="cls-6" x1="36.02" y1="53.98" x2="42.82" y2="51.36"/><line class="cls-3" x1="60.34" y1="24.76" x2="23.82" y2="60.91"/></g></svg>