<svg xmlns="http://www.w3.org/2000/svg" viewBox="0 0 83.98 83.98"><defs><style>.cls-1,.cls-3{fill:#fff;}.cls-1{stroke:#cb007b;stroke-miterlimit:10;stroke-width:1.5px;}.cls-2{fill:#cb007b;}.cls-4{fill:#fefefe;}</style></defs><g id="Capa_2" data-name="Capa 2"><circle class="cls-1" cx="41.99" cy="41.99" r="41.24"/></g><g id="Capa_9" data-name="Capa 9"><path class="cls-2" d="M58.88,70.76c-1.56-1.47-3.48-2.94-5-4.35a3.61,3.61,0,0,0-2.77-1.19c-8.29,0-14.4,0-22.69,0a3.4,3.4,0,0,1-.84-.06c-.61-.15-.79-.35-.84-1,0-.24,0-.48,0-.72V33.05a5.81,5.81,0,0,1,.07-1.1.78.78,0,0,1,.69-.7,6.91,6.91,0,0,1,1-.1H70.28a6.3,6.3,0,0,1,1.15.09.92.92,0,0,1,.83.95c0,.11,0,.22,0,.34.1,8.8.09,17.61,0,26.42,0,1.6,0,3.21,0,4.81,0,1.31-.28,1.53-1.45,1.55-2.57,0-4,0-6.61,0-.57,0-.57,0-.57.63,0,2.28,0,7.34,0,9.61" transform="translate(-7.91 -7.78)"/><path class="cls-3" d="M54.46,64a2.47,2.47,0,0,0-1.87-.81l-21.32,0a7.65,7.65,0,0,1-1.36-.08,1.92,1.92,0,0,1-1.86-1.8c0-.09,0-.22-.1-.27v-.15c.16-.09.08-.24.08-.35q0-12.51,0-25c0-.11.09-.26-.08-.34v-.08c.15-.1.09-.28.13-.42A2,2,0,0,1,29.88,33,7.42,7.42,0,0,1,30.93,33H67.85a7,7,0,0,1,1,.08,2.14,2.14,0,0,1,1.86,2.33c0,.19,0,.39,0,.59V60.24a7.67,7.67,0,0,1-.08,1.17A1.93,1.93,0,0,1,69,63.17a5.84,5.84,0,0,1-.93.08H62.61c-.33,0-.4.09-.4.41,0,2.67,0,5.35,0,8.07m-1.41-3.32c.1-.12.06-.23.06-.33V62.52c0-.51,0-.51.51-.51,2.26,0,4.52,0,6.77,0,1,0,1.28-.2,1.28-1.26,0-1.31,0-2.61,0-3.91,0-7.17,0-14.34,0-21.5a2.53,2.53,0,0,0,0-.28.75.75,0,0,0-.73-.77,5.65,5.65,0,0,0-1-.07H30.84a6.84,6.84,0,0,0-.9.08.64.64,0,0,0-.6.57,3.77,3.77,0,0,0-.06.89q0,12.36,0,24.72c0,.19,0,.39,0,.59,0,.55.2.71.75.84a3,3,0,0,0,.74,0h21.9a3.29,3.29,0,0,1,2.44,1c1.24,1.23,2.47,2.48,3.75,3.67Z" transform="translate(-7.91 -7.78)"/><path class="cls-2" d="M60.81,68.41l-2-1.85c-1.28-1.19-2.51-2.44-3.75-3.67a3.29,3.29,0,0,0-2.44-1H30.77a3,3,0,0,1-.74,0c-.55-.13-.7-.29-.75-.84,0-.2,0-.4,0-.59q0-12.36,0-24.72a3.77,3.77,0,0,1,.06-.89.64.64,0,0,1,.6-.57,6.84,6.84,0,0,1,.9-.08H67.67a5.65,5.65,0,0,1,1,.07.75.75,0,0,1,.73.77,2.53,2.53,0,0,1,0,.28c.09,7.16.08,14.33,0,21.5,0,1.3,0,2.6,0,3.91,0,1.06-.24,1.25-1.28,1.26-2.25,0-4.51,0-6.77,0-.51,0-.51,0-.51.51v5.56C60.87,68.18,60.91,68.29,60.81,68.41Zm-2.59-23.2a5.38,5.38,0,0,0-.38-2,4.88,4.88,0,0,0-7.87-2c-.72.66-.55.51-1.18,0a5.14,5.14,0,0,0-3-1.27,4.88,4.88,0,0,0-4.24,2A5.11,5.11,0,0,0,40.54,46,9.35,9.35,0,0,0,42,49.61a29.58,29.58,0,0,0,7.27,7.53c.17.13.27.08.4,0,1.06-1,2.13-2,3.18-3a22.42,22.42,0,0,0,3.86-4.5A8.84,8.84,0,0,0,58.22,45.21Z" transform="translate(-7.91 -7.78)"/><path class="cls-3" d="M58.22,45.21a8.84,8.84,0,0,1-1.49,4.42,22.42,22.42,0,0,1-3.86,4.5c-1,1-2.12,2-3.18,3-.13.13-.23.18-.4,0A29.58,29.58,0,0,1,42,49.61,9.35,9.35,0,0,1,40.54,46a5.11,5.11,0,0,1,1.05-4.05,4.88,4.88,0,0,1,4.24-2,5.14,5.14,0,0,1,3,1.27c.63.52.46.67,1.18,0a4.88,4.88,0,0,1,7.87,2A5.38,5.38,0,0,1,58.22,45.21ZM49.36,44c-.42-.53-.77-1.1-1.22-1.58a3.43,3.43,0,0,0-2.3-1.2,4,4,0,0,0-4.07,4.56,10.29,10.29,0,0,0,1.8,4,30.58,30.58,0,0,0,5.71,5.88c.16.13.23.07.35-.05,1.33-1.3,2.7-2.57,4-3.94a13,13,0,0,0,3.06-4.76,4.5,4.5,0,0,0,0-3.09c-.85-2.25-4.1-3.9-6.38-1.09C50,43.05,49.7,43.49,49.36,44Z" transform="translate(-7.91 -7.78)"/><path class="cls-4" d="M49.36,44c.34-.46.65-.9,1-1.32,2.28-2.81,5.53-1.16,6.38,1.09a4.5,4.5,0,0,1,0,3.09,13,13,0,0,1-3.06,4.76c-1.28,1.37-2.65,2.64-4,3.94-.12.12-.19.18-.35.05a30.58,30.58,0,0,1-5.71-5.88,10.29,10.29,0,0,1-1.8-4,4,4,0,0,1,4.07-4.56,3.43,3.43,0,0,1,2.3,1.2C48.59,42.85,48.94,43.42,49.36,44Z" transform="translate(-7.91 -7.78)"/></g></svg>