<svg xmlns="http://www.w3.org/2000/svg" width="434.918" height="434.918" viewBox="0 0 434.918 434.918">
  <g id="Capa_1" data-name="Capa 1">
    <circle cx="217.459" cy="217.459" r="217.459" fill="#0055b8"/>
  </g>
  <g id="Capa_6" data-name="Capa 6">
    <g id="v9KEug.tif">
      <path d="M142.532,334.084V230.006c1.073-2.146,1.073-4.292,2.146-6.438,4.292-9.657,12.876-15.022,23.6-15.022h68.671a1.051,1.051,0,0,1,1.073-1.073,3.746,3.746,0,0,0-2.146-1.073c-7.511-8.584-16.095-16.095-23.6-24.679-1.073,0-1.073-1.072-2.146-2.145-3.219-4.292-1.073-9.657,3.219-11.8,3.218-2.146,7.51-1.073,10.729,2.146L248.757,194.6c0,1.073,0,1.073,1.073,2.146l2.146-2.146,47.211-47.211c2.146-2.146,4.292-4.292,7.511-5.365h2.146c1.073,0,1.073,1.073,2.146,1.073a7.3,7.3,0,0,1,4.291,8.584,23.42,23.42,0,0,1-3.218,5.365c-16.095,16.1-32.19,32.189-49.357,49.357l-2.146,2.146H330.3c12.876,0,22.533,7.511,24.679,19.314,2.146,0,2.146,1.073,2.146,2.146V334.084a3.942,3.942,0,0,1-1.073,3.219c-3.219,11.8-12.876,19.314-24.679,19.314H166.137c-9.656,0-18.24-6.438-22.532-16.1C143.6,338.376,142.532,336.23,142.532,334.084Zm86.911-109.443H209.057c-9.657,0-19.314,0-27.9,3.219-8.584,2.146-15.022,6.437-18.24,15.021L159.7,255.757c-1.073,11.8-1.073,23.606-1.073,36.481a123.708,123.708,0,0,0,3.219,27.9c2.145,7.511,7.51,12.876,15.021,16.094s16.1,3.219,24.679,4.292h47.211c9.657,0,19.313,0,27.9-2.146,9.657-2.146,16.1-7.51,18.241-16.094a60.759,60.759,0,0,0,3.219-19.314,130.763,130.763,0,0,0,0-28.97,123.708,123.708,0,0,0-3.219-27.9q-3.219-11.266-12.876-16.094c-5.365-2.146-11.8-3.219-17.168-4.292C253.049,224.641,241.246,224.641,229.443,224.641Zm98.714,82.619c7.511,0,12.876-5.365,12.876-12.876s-5.365-12.875-12.876-12.875-12.876,5.364-12.876,12.875S320.646,307.26,328.157,307.26Zm0-32.189c7.511,0,12.876-5.365,12.876-12.876s-5.365-12.876-12.876-12.876-12.876,5.365-12.876,12.876C315.281,268.633,320.646,274,328.157,275.071Z" transform="translate(-32.541 -32.541)" fill="#fff"/>
    </g>
  </g>
</svg>
