<svg xmlns="http://www.w3.org/2000/svg" xmlns:xlink="http://www.w3.org/1999/xlink" width="800" height="164" viewBox="0 -5.5 800 164">
  <defs>
    <style>
      .cls-1 {
        fill: #fff;
        fill-rule: evenodd;
      }
    </style>
    <clipPath id="clip-path">
      <rect width="800" height="153"/>
    </clipPath>
  </defs>
  <g clip-path="url(#clip-path)">
    <path id="Forma_7" data-name="Forma 7" class="cls-1" d="M76.386,152.717A76.069,76.069,0,1,1,153.453,77.8h0A76,76,0,0,1,76.386,152.717ZM64.361,99.266c0,6.109.273,12.25,0,18.359-0.238,3.874,1.164,4.766,4.692,4.457a54.439,54.439,0,0,1,9.971,0c3.087,0.243,4.04-.72,4-3.909-0.2-12.369,0-24.773,0-37.107,0-2.916.754-3.777,3.7-3.777,9.935,0,9.935,0,10.517-10.019V66.449c0.617-7.925.617-7.925-7.435-7.925-6.337,0-6.231,0-6.059-6.317a4.05,4.05,0,0,1,3.369-4.625h0a4.153,4.153,0,0,1,1.147,0h7.091c1.813,0,2.465-.689,2.43-2.469v-11.3c0-1.268-.375-2.209-1.883-2.209a74.058,74.058,0,0,0-19.456,1.1c-8.083,2.438-11.885,8.99-11.885,20.179,0,5.486,0,5.659-5.481,5.522-3.012,0-3.837,1.029-3.665,3.879a55.964,55.964,0,0,1,0,9.573c-0.441,4.289.856,6.277,5.376,5.456,3.426-.618,3.942.959,3.837,3.945C64.206,87.374,64.361,93.232,64.361,99.266ZM224.02,54.647a24.721,24.721,0,0,1,8.673,1.547,22.04,22.04,0,0,1,7.377,4.515,21.32,21.32,0,0,1,5.095,7.359,25.546,25.546,0,0,1,1.882,10.142q0,0.867-.093,2.319a24.551,24.551,0,0,1-.4,3.061,20.855,20.855,0,0,1-.926,3.279,11.477,11.477,0,0,1-1.667,3.03,7.683,7.683,0,0,1-6.421,3.031,7.019,7.019,0,0,1-2.747-.464,4.74,4.74,0,0,1-1.729-1.206,4.866,4.866,0,0,1-.956-1.639,9.333,9.333,0,0,1-.433-1.762,14.36,14.36,0,0,1-4.63,3.061,14.951,14.951,0,0,1-5.865,1.143q-4.632,0-7.039-2.411a8.457,8.457,0,0,1-2.408-6.247,8.3,8.3,0,0,1,1.019-4.266,8.17,8.17,0,0,1,2.655-2.783,11.443,11.443,0,0,1,3.7-1.516,19.026,19.026,0,0,1,4.168-.463,17.2,17.2,0,0,1,4.259.463,16.659,16.659,0,0,1,2.716.9,14.515,14.515,0,0,0-.308-3.093,5.7,5.7,0,0,0-1.111-2.411,5.325,5.325,0,0,0-2.162-1.547,9.2,9.2,0,0,0-3.456-.557,13.844,13.844,0,0,0-4.632.742A11.568,11.568,0,0,0,215,70.85l-1.6-4.391a18.878,18.878,0,0,1,10.62-3.091,13.161,13.161,0,0,1,6.266,1.235,8.346,8.346,0,0,1,3.333,3.124,10.627,10.627,0,0,1,1.329,4.174,41.143,41.143,0,0,1,.245,4.391v5.936c0,0.908.033,1.786,0.093,2.629a9.553,9.553,0,0,0,.4,2.226,3.58,3.58,0,0,0,.926,1.547,2.4,2.4,0,0,0,1.727.587,3.307,3.307,0,0,0,2.688-1.236,9.291,9.291,0,0,0,1.6-3,16.7,16.7,0,0,0,.773-3.68q0.184-1.915.185-3.216a21.662,21.662,0,0,0-1.451-8.009,19.269,19.269,0,0,0-4.044-6.37,18.314,18.314,0,0,0-6.236-4.2,22.3,22.3,0,0,0-16.083-.033,18.831,18.831,0,0,0-6.236,4.114,18.451,18.451,0,0,0-4.074,6.247,20.974,20.974,0,0,0-1.451,7.883,21.871,21.871,0,0,0,1.359,7.763,18.875,18.875,0,0,0,3.858,6.307,18.385,18.385,0,0,0,6.019,4.269,18.978,18.978,0,0,0,7.842,1.577,17.959,17.959,0,0,0,5.123-.649,37.418,37.418,0,0,0,4.507-1.7l0.988,3.216a25.4,25.4,0,0,1-5.31,1.855,24.425,24.425,0,0,1-5.433.62,22.756,22.756,0,0,1-8.706-1.67,21.472,21.472,0,0,1-7.129-4.731,22.21,22.21,0,0,1-4.817-7.359,24.879,24.879,0,0,1-1.759-9.495,23.866,23.866,0,0,1,1.914-9.8,21.332,21.332,0,0,1,5.155-7.237,22.5,22.5,0,0,1,7.5-4.482A25.848,25.848,0,0,1,224.02,54.647Zm3.025,31.913a5.651,5.651,0,0,0,2.408-1.98,4.774,4.774,0,0,0,.74-2.6V79.631q-0.865-.308-2.717-0.8a16.273,16.273,0,0,0-4.2-.5,9.115,9.115,0,0,0-4.754,1.113,4.045,4.045,0,0,0-1.852,3.772A4.349,4.349,0,0,0,218,86.559a5.182,5.182,0,0,0,3.674,1.236,13.474,13.474,0,0,0,2.717-.308A10.174,10.174,0,0,0,227.045,86.559Zm56.92,5.379h-8.273V73.755q0-3.9-1.359-5.688a4.454,4.454,0,0,0-3.766-1.794,7.105,7.105,0,0,0-2.53.494,9.391,9.391,0,0,0-2.44,1.393,11.321,11.321,0,0,0-2.067,2.133,8.455,8.455,0,0,0-1.359,2.72V91.938H253.9V59.532h7.47v6a12.244,12.244,0,0,1,5.187-4.823,16.612,16.612,0,0,1,7.655-1.732,9.746,9.746,0,0,1,4.94,1.113A8.028,8.028,0,0,1,282.113,63a12.19,12.19,0,0,1,1.451,4.081,26.845,26.845,0,0,1,.4,4.637V91.938Zm22.225,0.619a17.914,17.914,0,0,1-7.036-1.331,15.874,15.874,0,0,1-8.8-8.936,17.082,17.082,0,0,1-1.2-6.369,18.06,18.06,0,0,1,1.173-6.525,15.845,15.845,0,0,1,3.4-5.38,16.18,16.18,0,0,1,5.4-3.68,17.948,17.948,0,0,1,7.132-1.361,17.5,17.5,0,0,1,7.069,1.361,16.263,16.263,0,0,1,5.31,3.648,15.565,15.565,0,0,1,3.333,5.319,17.758,17.758,0,0,1,1.142,6.309q0,0.8-.031,1.544a6.355,6.355,0,0,1-.155,1.238h-25a9.675,9.675,0,0,0,.925,3.4,8.4,8.4,0,0,0,1.915,2.535,8.289,8.289,0,0,0,2.655,1.609,8.7,8.7,0,0,0,3.088.557,9.535,9.535,0,0,0,4.659-1.206,6.384,6.384,0,0,0,2.995-3.186l7.1,1.98a14.441,14.441,0,0,1-5.711,6.091A17.676,17.676,0,0,1,306.19,92.558Zm8.4-19.544A8.624,8.624,0,0,0,311.9,67.17a8.415,8.415,0,0,0-11.451.03,8.467,8.467,0,0,0-1.822,2.537,8.945,8.945,0,0,0-.833,3.276h16.793ZM332.12,59.532L339.1,69.674l0.493,1.113,0.618-1.113,6.914-10.142h8.52L344.1,75.8l11.731,16.14h-8.52l-7.162-10.081-0.555-1.05-0.493,1.05L332,91.938h-8.518L335.146,75.8,323.662,59.532h8.458Zm57.725,32.406h-8.273V73.755q0-3.9-1.359-5.688a4.453,4.453,0,0,0-3.766-1.794,7.114,7.114,0,0,0-2.53.494,9.424,9.424,0,0,0-2.44,1.393,11.321,11.321,0,0,0-2.067,2.133,8.432,8.432,0,0,0-1.358,2.72V91.938h-8.273V59.532h7.469v6a12.244,12.244,0,0,1,5.187-4.823,16.616,16.616,0,0,1,7.656-1.732,9.744,9.744,0,0,1,4.939,1.113A8.028,8.028,0,0,1,387.993,63a12.19,12.19,0,0,1,1.451,4.081,26.845,26.845,0,0,1,.4,4.637V91.938Zm22.226,0.619a17.915,17.915,0,0,1-7.037-1.331,15.868,15.868,0,0,1-8.8-8.936,17.083,17.083,0,0,1-1.2-6.369,18.039,18.039,0,0,1,1.174-6.525,15.827,15.827,0,0,1,3.395-5.38,16.184,16.184,0,0,1,5.4-3.68,17.939,17.939,0,0,1,7.131-1.361,17.507,17.507,0,0,1,7.069,1.361,16.263,16.263,0,0,1,5.31,3.648,15.582,15.582,0,0,1,3.334,5.319,17.8,17.8,0,0,1,1.14,6.309q0,0.8-.03,1.544a6.442,6.442,0,0,1-.154,1.238h-25a9.675,9.675,0,0,0,.926,3.4,8.382,8.382,0,0,0,1.914,2.535,8.289,8.289,0,0,0,2.655,1.609,8.707,8.707,0,0,0,3.088.557,9.541,9.541,0,0,0,4.66-1.206,6.393,6.393,0,0,0,3-3.186l7.1,1.98a14.434,14.434,0,0,1-5.711,6.091A17.675,17.675,0,0,1,412.071,92.558Zm8.4-19.544a8.628,8.628,0,0,0-2.687-5.843,8.415,8.415,0,0,0-11.451.03,8.447,8.447,0,0,0-1.821,2.537,8.906,8.906,0,0,0-.834,3.276h16.793Zm42.355,18.925L456.587,72.4l-6.173,19.542h-8.891L430.35,59.532h8.58l7.41,22.51,6.421-22.51h7.777l6.421,22.51,7.41-22.51h8.458L471.776,91.938h-8.953ZM499,92.558a25.012,25.012,0,0,1-7.965-1.3,19.422,19.422,0,0,1-6.667-3.712l3.086-5.194a26.546,26.546,0,0,0,5.773,3.184,15.433,15.433,0,0,0,5.588,1.083,7.054,7.054,0,0,0,3.889-.927,2.99,2.99,0,0,0,1.421-2.66,2.655,2.655,0,0,0-1.667-2.534,35.934,35.934,0,0,0-5.432-1.855q-3.15-.867-5.373-1.671a13.779,13.779,0,0,1-3.581-1.823A6.221,6.221,0,0,1,486.1,72.8a7.493,7.493,0,0,1-.617-3.186,10.1,10.1,0,0,1,.956-4.452,9.691,9.691,0,0,1,2.687-3.371,12.429,12.429,0,0,1,4.044-2.133,16.413,16.413,0,0,1,5.03-.742,21.616,21.616,0,0,1,6.823,1.052,16.615,16.615,0,0,1,5.834,3.4l-3.334,5.009a19.43,19.43,0,0,0-4.784-2.723,13.1,13.1,0,0,0-4.6-.865,6.668,6.668,0,0,0-3.52.865,3.013,3.013,0,0,0-1.419,2.785,2.674,2.674,0,0,0,.34,1.422,2.978,2.978,0,0,0,1.079.99,10.533,10.533,0,0,0,1.946.835q1.2,0.4,2.993.834,3.334,0.867,5.711,1.732a15.605,15.605,0,0,1,3.891,1.978,7.065,7.065,0,0,1,2.222,2.567,7.918,7.918,0,0,1,.711,3.495,9.022,9.022,0,0,1-3.521,7.515Q505.052,92.559,499,92.558Zm16.423-16.822A17.626,17.626,0,0,1,516.6,69.3a15.633,15.633,0,0,1,3.4-5.319,16.506,16.506,0,0,1,5.37-3.648,17.724,17.724,0,0,1,7.1-1.361,17,17,0,0,1,9.045,2.289,14.615,14.615,0,0,1,5.588,6l-8.087,2.474a7.306,7.306,0,0,0-2.78-2.752,7.767,7.767,0,0,0-3.827-.96,7.892,7.892,0,0,0-3.335.712,8.2,8.2,0,0,0-2.685,1.98,9.132,9.132,0,0,0-1.79,3.061,11.58,11.58,0,0,0-.648,3.958,11.044,11.044,0,0,0,.679,3.958,9.957,9.957,0,0,0,1.821,3.093,7.967,7.967,0,0,0,2.685,2.008,7.715,7.715,0,0,0,3.273.712,7.915,7.915,0,0,0,4.1-1.113,6.248,6.248,0,0,0,2.625-2.722l8.088,2.474a13.61,13.61,0,0,1-5.5,6.061,17.233,17.233,0,0,1-9.2,2.351,17.747,17.747,0,0,1-7.1-1.361,16.082,16.082,0,0,1-8.8-9.062A17.3,17.3,0,0,1,515.423,75.736Zm66.923,16.2h-8.273V73.755q0-3.834-1.419-5.657a4.79,4.79,0,0,0-4.013-1.825,6.34,6.34,0,0,0-2.345.494,9.222,9.222,0,0,0-2.348,1.393,11.9,11.9,0,0,0-2.036,2.133,8.434,8.434,0,0,0-1.359,2.72V91.938H552.28V46.791h8.273v18.74a12.479,12.479,0,0,1,4.847-4.855,13.669,13.669,0,0,1,6.759-1.7,10.62,10.62,0,0,1,5.125,1.083,8.151,8.151,0,0,1,3.088,2.875,11.875,11.875,0,0,1,1.544,4.081,25.474,25.474,0,0,1,.43,4.7V91.938Zm7.224-36.921V46.791h8.273v8.227H589.57Zm0,36.921V59.532h8.273V91.938H589.57Zm15.68-45.147h8.273V81.548a4.085,4.085,0,0,0,.866,2.782,3.1,3.1,0,0,0,2.47.99,6.135,6.135,0,0,0,1.634-.248,11.169,11.169,0,0,0,1.7-.617l1.111,6.307A15.931,15.931,0,0,1,617.414,92a21.34,21.34,0,0,1-4.014.432,8.266,8.266,0,0,1-6.018-2.071,7.858,7.858,0,0,1-2.132-5.906V46.791Zm34.636,45.767a17.915,17.915,0,0,1-7.037-1.331,15.874,15.874,0,0,1-8.8-8.936,17.082,17.082,0,0,1-1.2-6.369A18.06,18.06,0,0,1,624.02,69.4a15.845,15.845,0,0,1,3.4-5.38,16.2,16.2,0,0,1,5.4-3.68,17.948,17.948,0,0,1,7.132-1.361,17.507,17.507,0,0,1,7.069,1.361,16.263,16.263,0,0,1,5.31,3.648A15.565,15.565,0,0,1,655.66,69.3a17.779,17.779,0,0,1,1.141,6.309q0,0.8-.03,1.544a6.355,6.355,0,0,1-.155,1.238h-25a9.675,9.675,0,0,0,.925,3.4,8.4,8.4,0,0,0,1.915,2.535,8.3,8.3,0,0,0,2.655,1.609,8.7,8.7,0,0,0,3.088.557,9.535,9.535,0,0,0,4.659-1.206,6.384,6.384,0,0,0,3-3.186l7.1,1.98a14.441,14.441,0,0,1-5.711,6.091A17.675,17.675,0,0,1,639.886,92.558Zm8.4-19.544A8.624,8.624,0,0,0,645.6,67.17a8.415,8.415,0,0,0-11.451.03,8.467,8.467,0,0,0-1.822,2.537,8.945,8.945,0,0,0-.833,3.276h16.793Z"/>
  </g>
</svg>
