<svg xmlns="http://www.w3.org/2000/svg" xmlns:xlink="http://www.w3.org/1999/xlink" width="800" height="164" viewBox="0 -5.5 800 164">
  <defs>
    <style>
      .cls-1 {
        fill: #fff;
        fill-rule: evenodd;
      }
    </style>
    <clipPath id="clip-path">
      <rect width="800" height="153"/>
    </clipPath>
  </defs>
  <g clip-path="url(#clip-path)">
    <path id="Forma_3" data-name="Forma 3" class="cls-1" d="M1.134,75.824a76.277,76.277,0,1,1,0,1.351V75.824ZM84.781,64.18a28.133,28.133,0,0,1,0-3.5c0.633-3.5-1.053-4.3-4.212-4.052a82.28,82.28,0,0,1-10.109,0c-2.422,0-3.127.8-3.091,3.152V114.3c0,2.657.985,3.5,3.511,3.287H82.255c2.562,0,3.507-.7,3.507-3.323V87.838a29.988,29.988,0,0,1,.809-7.9,9.822,9.822,0,0,1,10.213-8.105,9.294,9.294,0,0,1,9.585,8.254A27.209,27.209,0,0,1,107,86.343v27.981c0,2.346.664,3.22,3.086,3.153H122.74c1.758,0,2.951-.208,2.915-2.45-0.176-13.009.244-26.054-.452-39.031-0.6-10.91-5.721-16.89-14.533-18.57A26.365,26.365,0,0,0,84.979,64.18h-0.2ZM34.168,86.911V114.6c0,2.413.736,3.183,3.127,3.111H52.876c2.142,0,2.987-.7,2.987-2.9V59.317c0-2.03-.809-2.625-2.775-2.589H37.5c-2.594,0-3.507.7-3.335,3.287,0.249,8.92,0,17.908,0,26.865Zm0-49.7a10.812,10.812,0,0,0,21.583,1.315v-0.09a6.943,6.943,0,0,0,0-1.225,11.147,11.147,0,0,0-10.81-10.667A11,11,0,0,0,34.163,37.352Zm173.9,26.437V91.914h-8.6V47.81h6.671L229.2,76.757V47.873h8.6V91.914h-6.981Zm52.866,28.887a18.179,18.179,0,0,1-7.106-1.337,16.308,16.308,0,0,1-5.425-3.633,16.127,16.127,0,0,1-3.459-5.343,17.075,17.075,0,0,1-1.216-6.4,18.048,18.048,0,0,1,1.185-6.554,15.918,15.918,0,0,1,3.429-5.4,16.348,16.348,0,0,1,5.454-3.7,18.2,18.2,0,0,1,7.2-1.367,17.761,17.761,0,0,1,7.139,1.367,16.434,16.434,0,0,1,5.362,3.664,15.618,15.618,0,0,1,3.365,5.343,17.762,17.762,0,0,1,1.153,6.337q0,0.806-.031,1.551a6.4,6.4,0,0,1-.156,1.244H252.577a9.67,9.67,0,0,0,.935,3.416,8.4,8.4,0,0,0,4.614,4.162,8.831,8.831,0,0,0,3.118.559,9.669,9.669,0,0,0,4.7-1.211,6.425,6.425,0,0,0,3.024-3.2l7.169,1.989a14.539,14.539,0,0,1-5.766,6.118A17.925,17.925,0,0,1,260.931,92.536ZM269.41,72.9a8.645,8.645,0,0,0-2.713-5.869,8.769,8.769,0,0,0-8.976-1.616,8.217,8.217,0,0,0-2.587,1.647,8.516,8.516,0,0,0-1.84,2.548,8.923,8.923,0,0,0-.841,3.291H269.41Zm17.706-13.541,7.044,10.187,0.5,1.118,0.624-1.118,6.982-10.187h8.6L299.209,75.7l11.845,16.212h-8.6l-7.232-10.126-0.561-1.055-0.5,1.055-7.171,10.126h-8.6L290.17,75.7l-11.6-16.338h8.541Zm37.341,4.285V91.914h-8.6V47.81h6.67l23.065,28.947V47.873h8.6V91.914h-6.982Zm52.866,28.887a18.179,18.179,0,0,1-7.106-1.337,16.308,16.308,0,0,1-5.425-3.633,16.127,16.127,0,0,1-3.459-5.343,17.075,17.075,0,0,1-1.216-6.4,18.048,18.048,0,0,1,1.185-6.554,15.918,15.918,0,0,1,3.429-5.4,16.354,16.354,0,0,1,5.453-3.7,18.208,18.208,0,0,1,7.2-1.367,17.756,17.756,0,0,1,7.138,1.367,16.434,16.434,0,0,1,5.362,3.664,15.618,15.618,0,0,1,3.365,5.343,17.762,17.762,0,0,1,1.153,6.337c0,0.537-.011,1.055-0.03,1.551a6.392,6.392,0,0,1-.157,1.244H368.969a9.67,9.67,0,0,0,.935,3.416,8.4,8.4,0,0,0,4.614,4.162,8.831,8.831,0,0,0,3.118.559,9.669,9.669,0,0,0,4.7-1.211,6.425,6.425,0,0,0,3.024-3.2l7.169,1.989a14.533,14.533,0,0,1-5.766,6.118A17.925,17.925,0,0,1,377.323,92.536ZM385.8,72.9a8.65,8.65,0,0,0-2.714-5.869,8.768,8.768,0,0,0-8.975-1.616,8.21,8.21,0,0,0-2.588,1.647,8.516,8.516,0,0,0-1.84,2.548,8.943,8.943,0,0,0-.841,3.291H385.8Zm42.766,19.009-6.3-19.629-6.234,19.629H407.06l-11.282-32.55h8.665l7.481,22.61,6.484-22.61h7.854l6.484,22.61,7.481-22.61h8.541l-11.159,32.55h-9.04ZM465.1,92.536a25.386,25.386,0,0,1-8.043-1.3,19.619,19.619,0,0,1-6.731-3.729l3.115-5.217a26.83,26.83,0,0,0,5.83,3.2,15.652,15.652,0,0,0,5.642,1.087,7.151,7.151,0,0,0,3.927-.931,3,3,0,0,0,1.435-2.672,2.666,2.666,0,0,0-1.683-2.546,36.4,36.4,0,0,0-5.486-1.863q-3.18-.871-5.424-1.679a13.924,13.924,0,0,1-3.617-1.831,6.251,6.251,0,0,1-1.993-2.362,7.477,7.477,0,0,1-.624-3.2,10.1,10.1,0,0,1,.965-4.472,9.754,9.754,0,0,1,2.713-3.386,12.582,12.582,0,0,1,4.084-2.143,16.649,16.649,0,0,1,5.079-.745,21.936,21.936,0,0,1,6.89,1.057,16.792,16.792,0,0,1,5.891,3.417l-3.366,5.031a19.654,19.654,0,0,0-4.832-2.734,13.286,13.286,0,0,0-4.644-.869,6.764,6.764,0,0,0-3.555.869,3.024,3.024,0,0,0-1.432,2.8,2.667,2.667,0,0,0,.343,1.428,3,3,0,0,0,1.089.994,10.678,10.678,0,0,0,1.966.839q1.214,0.4,3.022.838,3.366,0.871,5.766,1.74a15.8,15.8,0,0,1,3.929,1.987,7.092,7.092,0,0,1,2.244,2.578,7.926,7.926,0,0,1,.717,3.51,9.045,9.045,0,0,1-3.554,7.548Q471.212,92.537,465.1,92.536Z"/>
  </g>
</svg>
