<svg xmlns="http://www.w3.org/2000/svg" width="3333" height="683" viewBox="0 0 3333 683">
  <defs>
    <style>
      .cls-1 {
        fill: #fff;
        fill-rule: evenodd;
      }
    </style>
  </defs>
  <path id="Forma_1" data-name="Forma 1" class="cls-1" d="M859.445,657.431C683.391,657.014,541,515,541.4,340.168S684.862,24,860.916,24.4s318.414,142.415,318.044,317.2v2.132C1177.55,517.8,1034.75,658,859.445,657.431Zm0-129.45h114.02a71.129,71.129,0,0,0,73.595-64.435,419.469,419.469,0,0,0,1.29-50.137V233.2c0-50.429-30.4-79.311-80.8-79.311H747.6a71.2,71.2,0,0,0-76.848,64.835v7.527c-1.138,76.76-1.284,153.665,0,230.4a71.066,71.066,0,0,0,71.317,70.814h4.556Zm0-37.084H747.762a36.3,36.3,0,0,1-39.918-31.852,29.5,29.5,0,0,1,0-6.245V314.245c0-9.118,2.847-12.307,11.973-11.741,12.689,0,28.516-4.247,37.659,1.4s-1.158,21.388-1.158,33a100.656,100.656,0,0,0,57.058,95.446A103.05,103.05,0,0,0,951.312,387.2a101.326,101.326,0,0,0,7.843-70.96c-3.013-12.324,0-14.156,11.4-14.156,40.934,0,40.934,0,40.934,39.95V447.783c0,30.157-13.259,42.468-43.651,42.468C931.905,491.022,895.821,490.9,859.445,490.9Zm-65.5-150.417a66.105,66.105,0,1,1,65.729,66.42l-0.395,0H858.27A66.49,66.49,0,0,1,793.948,340.48ZM971.64,260.893c-30.371,0-30.371,0-30.371-29.59,0-33.417,0-33.417,33.05-33.567,30.371,0,30.371,0,30.371,29.445C1004.79,260.893,1004.79,260.893,971.64,260.893Zm486.1-11.416a104.823,104.823,0,0,1,36.47,6.445,92.831,92.831,0,0,1,31.02,18.819,88.844,88.844,0,0,1,21.43,30.677,105.8,105.8,0,0,1,7.92,42.277q0,3.615-.39,9.664a101.433,101.433,0,0,1-1.67,12.757,85.434,85.434,0,0,1-3.9,13.665,47.787,47.787,0,0,1-7,12.632,32.423,32.423,0,0,1-27,12.632,29.777,29.777,0,0,1-11.56-1.932,19.973,19.973,0,0,1-7.27-5.025,20.279,20.279,0,0,1-4.02-6.832,38.727,38.727,0,0,1-1.82-7.345,60.417,60.417,0,0,1-19.47,12.757,63.394,63.394,0,0,1-24.67,4.763q-19.47,0-29.58-10.051a35.1,35.1,0,0,1-10.13-26.038,32.871,32.871,0,0,1,15.45-29.383,48.487,48.487,0,0,1,15.58-6.32,80.691,80.691,0,0,1,17.53-1.932,72.973,72.973,0,0,1,17.92,1.932,70.412,70.412,0,0,1,11.41,3.747,59.558,59.558,0,0,0-1.29-12.907,23.686,23.686,0,0,0-4.67-10.051,22.414,22.414,0,0,0-9.09-6.445,38.989,38.989,0,0,0-14.57-2.311,58.668,58.668,0,0,0-19.48,3.094,48.717,48.717,0,0,0-15.06,8.252l-6.75-18.319a79.921,79.921,0,0,1,44.66-12.858,55.786,55.786,0,0,1,26.35,5.151,35.069,35.069,0,0,1,14.02,13.019,44.071,44.071,0,0,1,5.58,17.4,167.357,167.357,0,0,1,1.03,18.319V364.47c0,3.785.14,7.445,0.39,10.959a39.593,39.593,0,0,0,1.7,9.28,14.818,14.818,0,0,0,3.89,6.445,10.132,10.132,0,0,0,7.26,2.444,13.943,13.943,0,0,0,11.3-5.154,38.707,38.707,0,0,0,6.75-12.491,69.3,69.3,0,0,0,3.25-15.338q0.78-7.982.78-13.407a89.662,89.662,0,0,0-6.1-33.383,80.3,80.3,0,0,0-17.01-26.551,77.138,77.138,0,0,0-26.22-17.525,94.59,94.59,0,0,0-67.64-.137,79.226,79.226,0,0,0-26.22,17.145,76.8,76.8,0,0,0-17.13,26.039,86.749,86.749,0,0,0-6.11,32.859,90.494,90.494,0,0,0,5.72,32.359,78.562,78.562,0,0,0,16.22,26.289,77.213,77.213,0,0,0,25.32,17.791,80.369,80.369,0,0,0,32.97,6.574,76.2,76.2,0,0,0,21.55-2.706,158.246,158.246,0,0,0,18.95-7.078l4.17,13.406a107.677,107.677,0,0,1-22.33,7.732,103.667,103.667,0,0,1-22.85,2.586,96.412,96.412,0,0,1-36.61-6.962,90.344,90.344,0,0,1-29.98-19.718,92.476,92.476,0,0,1-20.26-30.677,102.955,102.955,0,0,1-7.4-39.579,98.71,98.71,0,0,1,8.05-40.853,89.078,89.078,0,0,1,21.67-30.165,94.865,94.865,0,0,1,31.55-18.686A109.585,109.585,0,0,1,1457.74,249.477ZM1470.46,382.5a23.7,23.7,0,0,0,10.12-8.257,19.678,19.678,0,0,0,3.11-10.825v-9.8q-3.63-1.281-11.42-3.331a68.985,68.985,0,0,0-17.65-2.082,38.6,38.6,0,0,0-20,4.639,16.819,16.819,0,0,0-7.76,15.725,18.059,18.059,0,0,0,5.58,13.927,21.882,21.882,0,0,0,15.45,5.151,57.079,57.079,0,0,0,11.42-1.287A42.993,42.993,0,0,0,1470.46,382.5Zm111.11,53.614v-31.2h95.29v31.189h-95.29v0.009Zm251.6-31.2h-34.79V329.142q0-16.238-5.72-23.711a18.771,18.771,0,0,0-15.83-7.494A30.185,30.185,0,0,0,1766.18,300a39.6,39.6,0,0,0-10.27,5.829,47.4,47.4,0,0,0-8.7,8.893,35.071,35.071,0,0,0-5.71,11.337v78.862h-34.79V269.841h31.41v25.006a51.289,51.289,0,0,1,21.82-20.106,70.315,70.315,0,0,1,32.19-7.219,41.278,41.278,0,0,1,20.77,4.638,33.66,33.66,0,0,1,12.46,12.12,50.432,50.432,0,0,1,6.1,17.012,110.881,110.881,0,0,1,1.67,19.332v84.295h0.04Zm93.47,2.582a75.949,75.949,0,0,1-29.59-5.546,67.963,67.963,0,0,1-22.59-15.077,66.943,66.943,0,0,1-14.41-22.17,70.605,70.605,0,0,1-5.06-26.551,74.6,74.6,0,0,1,4.94-27.2,65.858,65.858,0,0,1,14.27-22.425,68.153,68.153,0,0,1,22.72-15.338,76.041,76.041,0,0,1,30-5.675,74.14,74.14,0,0,1,29.72,5.675,68.37,68.37,0,0,1,22.34,15.205A65.039,65.039,0,0,1,1993,310.569a73.608,73.608,0,0,1,4.8,26.3c0,2.231-.05,4.38-0.13,6.437a27.2,27.2,0,0,1-.65,5.163H1891.83a40.029,40.029,0,0,0,3.89,14.176,34.9,34.9,0,0,0,19.21,17.271,36.957,36.957,0,0,0,12.99,2.319,40.414,40.414,0,0,0,19.59-5.025,26.719,26.719,0,0,0,12.59-13.282l29.86,8.252a60.412,60.412,0,0,1-24.02,25.4,74.831,74.831,0,0,1-39.32,9.93Zm35.3-81.465a35.855,35.855,0,0,0-11.3-24.356,36.641,36.641,0,0,0-37.39-6.708,34.309,34.309,0,0,0-10.77,6.833,35.2,35.2,0,0,0-7.66,10.575,37.22,37.22,0,0,0-3.51,13.656h70.63Zm73.74-56.208,29.33,42.277,2.09,4.638,2.59-4.638,29.08-42.277h35.84l-48.58,67.816,49.34,67.275h-35.84L2069.41,362.9l-2.34-4.38-2.08,4.38-29.85,42.023H1999.3l49.07-67.279-48.27-67.8h35.57Zm242.74,135.091h-34.78V329.142q0-16.238-5.71-23.711a18.794,18.794,0,0,0-15.84-7.494A30.131,30.131,0,0,0,2211.45,300a39.469,39.469,0,0,0-10.27,5.829,47.069,47.069,0,0,0-8.69,8.893,35.076,35.076,0,0,0-5.72,11.337v78.862h-34.81V269.841h31.42v25.006a51.321,51.321,0,0,1,21.81-20.106,70.363,70.363,0,0,1,32.2-7.219,41.315,41.315,0,0,1,20.78,4.638,33.676,33.676,0,0,1,12.46,12.12,50.647,50.647,0,0,1,6.1,17.012,110.881,110.881,0,0,1,1.67,19.332v84.295h0.02Zm93.47,2.582a75.931,75.931,0,0,1-29.59-5.546,67.973,67.973,0,0,1-22.6-15.077,66.916,66.916,0,0,1-14.4-22.17,70.811,70.811,0,0,1-5.07-26.551,74.8,74.8,0,0,1,4.94-27.2,66.016,66.016,0,0,1,14.28-22.425,68.127,68.127,0,0,1,22.71-15.338,76.089,76.089,0,0,1,30.01-5.675,74.14,74.14,0,0,1,29.72,5.675,68.224,68.224,0,0,1,22.33,15.205,64.729,64.729,0,0,1,14.02,22.171,73.608,73.608,0,0,1,4.8,26.3q0,3.33-.13,6.437a26.412,26.412,0,0,1-.65,5.163H2337.1a40.034,40.034,0,0,0,3.89,14.176,34.939,34.939,0,0,0,19.22,17.271,36.862,36.862,0,0,0,12.98,2.319,40.414,40.414,0,0,0,19.59-5.025,26.7,26.7,0,0,0,12.59-13.282l29.86,8.252a60.412,60.412,0,0,1-24.02,25.4,74.831,74.831,0,0,1-39.32,9.93v0Zm35.31-81.469a35.818,35.818,0,0,0-11.3-24.357,36.621,36.621,0,0,0-37.38-6.707,34.176,34.176,0,0,0-10.77,6.832,35.257,35.257,0,0,0-7.66,10.576,36.815,36.815,0,0,0-3.51,13.656h70.62Zm178.12,78.887-26.22-81.456-25.97,81.456h-37.37l-47.01-135.078h36.09l31.16,93.83,27-93.83h32.71l27,93.83,31.16-93.83h35.57l-46.47,135.078h-37.65Zm152.13,2.582a106.089,106.089,0,0,1-33.49-5.413,81.913,81.913,0,0,1-28.04-15.488l12.98-21.651a111.975,111.975,0,0,0,24.28,13.269,65.361,65.361,0,0,0,23.49,4.514,29.889,29.889,0,0,0,16.36-3.864,12.439,12.439,0,0,0,5.98-11.088,11.076,11.076,0,0,0-7.01-10.563,152.061,152.061,0,0,0-22.85-7.731q-13.245-3.615-22.59-6.97a57.94,57.94,0,0,1-15.06-7.6,25.89,25.89,0,0,1-8.3-9.8,30.8,30.8,0,0,1-2.6-13.281,41.623,41.623,0,0,1,4.02-18.557,40.394,40.394,0,0,1,11.3-14.052,52.337,52.337,0,0,1,17-8.894,69.628,69.628,0,0,1,21.16-3.093,91.608,91.608,0,0,1,28.69,4.384,69.975,69.975,0,0,1,24.53,14.218l-14,20.864a82.016,82.016,0,0,0-20.12-11.35,55.506,55.506,0,0,0-19.34-3.605,28.283,28.283,0,0,0-14.81,3.605,12.526,12.526,0,0,0-5.96,11.608,11.059,11.059,0,0,0,1.43,5.925,12.419,12.419,0,0,0,4.53,4.126,44.736,44.736,0,0,0,8.19,3.481q5.055,1.665,12.59,3.476,14.01,3.615,24.01,7.22a65.783,65.783,0,0,1,16.36,8.248,29.455,29.455,0,0,1,9.35,10.7,32.832,32.832,0,0,1,2.99,14.573,37.459,37.459,0,0,1-14.81,31.322q-14.8,11.475-40.25,11.471Z"/>
</svg>
